<svg width="24" height="24" viewBox="0 0 24 24" fill="none" xmlns="http://www.w3.org/2000/svg">
<g opacity="0.8" clip-path="url(#clip0_201_1962)">
<path d="M12.0093 0C12.3568 0 12.7043 0 13.0528 0C13.5297 0.00937608 13.8104 0.269823 13.8396 0.72925C13.8688 1.18868 13.9011 1.6356 13.5777 2.06586C13.299 2.4357 13.4733 2.85241 13.779 3.19203C14.4197 3.89941 15.0396 4.62761 15.6928 5.32353C15.9528 5.59268 16.1562 5.9111 16.291 6.26001C16.4258 6.60892 16.4892 6.98124 16.4775 7.35501C16.465 9.48963 16.4712 11.6263 16.4775 13.7578C16.4786 14.2445 16.3814 14.7264 16.1916 15.1747C15.5133 16.7915 15.5018 18.4167 16.1916 20.0304C16.5683 20.9159 16.5307 21.8327 16.4274 22.7391C16.392 23.0736 16.2325 23.3828 15.9803 23.6058C15.7281 23.8289 15.4015 23.9497 15.0646 23.9444C14.1557 23.9569 13.2239 24.1121 12.3714 23.585C12.0771 23.4037 11.7286 23.4944 11.4229 23.66C10.5234 24.1486 9.55609 24.0017 8.62009 23.8819C7.95644 23.8027 7.54635 23.2318 7.52026 22.5474C7.48374 21.5764 7.52026 20.6336 7.90635 19.6918C8.46879 18.3115 8.43435 16.8655 7.89487 15.4726C7.62784 14.7954 7.49495 14.073 7.50357 13.3453C7.52583 11.3506 7.52583 9.35524 7.50357 7.35918C7.49084 6.98643 7.55339 6.61493 7.68748 6.26681C7.82158 5.9187 8.02448 5.60109 8.28409 5.3329C8.93522 4.63387 9.56131 3.91295 10.1947 3.19828C10.5996 2.7399 10.6006 2.42215 10.299 1.90334C10.0184 1.42516 10.059 0.899062 10.2406 0.400046C10.345 0.118764 10.6142 0.00416715 10.9178 0.00312536L12.0093 0ZM8.33835 20.6013C8.53348 20.6149 8.66809 20.6295 8.8027 20.6336C9.06148 20.642 9.32444 20.6711 9.31192 21.0076C9.30253 21.3035 9.05626 21.3837 8.82253 21.341C8.21835 21.2306 8.16513 21.5681 8.21105 22.0234C8.22983 22.2119 8.21105 22.4057 8.23505 22.5943C8.27053 22.8974 8.45 23.1704 8.73174 23.1964C9.51853 23.2673 10.3293 23.4339 11.0817 23.0433C11.5919 22.7787 12.1387 22.6464 12.627 22.9328C13.3992 23.385 14.211 23.2454 15.0156 23.2454C15.483 23.2454 15.7356 22.9422 15.7679 22.4776C15.7825 22.2536 15.7502 22.0244 15.7773 21.8015C15.8243 21.4285 15.673 21.3379 15.313 21.342C13.8521 21.3618 12.3912 21.3504 10.9304 21.3504C10.7912 21.3546 10.6518 21.3515 10.513 21.341C10.298 21.3181 10.1457 21.1993 10.1509 20.9753C10.1509 20.7774 10.3011 20.669 10.4942 20.6472C10.633 20.636 10.7723 20.6322 10.9116 20.6357C12.337 20.6357 13.7624 20.6274 15.1898 20.6357C15.5352 20.6357 15.6542 20.5919 15.5029 20.2096C14.786 18.3969 14.8194 16.5863 15.5832 14.7923C15.645 14.6491 15.6969 14.5019 15.7387 14.3516C15.8326 13.9995 15.7627 13.8308 15.3213 13.8308C13.1999 13.8537 11.0796 13.8412 8.95609 13.8412C8.12131 13.8412 8.05766 13.937 8.36235 14.7184C8.38113 14.7663 8.40513 14.8132 8.42705 14.86C8.86426 15.8289 9.01244 16.8499 8.98113 17.9052C8.94541 18.8372 8.72703 19.7532 8.33835 20.6013ZM15.6427 10.6762L15.7617 10.6137C15.7617 10.0157 15.7617 9.41671 15.7617 8.81872C15.7617 8.58224 15.5947 8.59786 15.4392 8.58432C15.2065 8.56453 15.0218 8.47077 15.0385 8.20719C15.0521 7.97487 15.2305 7.89466 15.4403 7.88111C15.5957 7.86965 15.7648 7.88111 15.7617 7.64775C15.7554 7.21645 15.8076 6.78203 15.5884 6.37573C15.4653 6.14654 15.3484 6.04236 15.0667 6.15904C14.7382 6.30389 14.3779 6.36167 14.0205 6.32682C13.6632 6.29196 13.3209 6.16564 13.0267 5.96006C12.3203 5.48709 11.6493 5.48501 10.947 5.96006C10.3836 6.3424 9.75226 6.41011 9.09905 6.23717C8.51992 6.08507 8.34983 6.17883 8.24757 6.77161C8.21209 6.97997 8.234 7.18833 8.20583 7.39668C8.15053 7.79777 8.33 7.89362 8.70879 7.88945C10.274 7.87174 11.8392 7.88111 13.4044 7.88216C13.5604 7.8785 13.7165 7.88371 13.8719 7.89778C14.065 7.91966 14.1996 8.0228 14.2027 8.23115C14.2054 8.27499 14.1991 8.31891 14.1843 8.36025C14.1694 8.4016 14.1463 8.4395 14.1164 8.47165C14.0864 8.50381 14.0502 8.52954 14.01 8.5473C13.9698 8.56505 13.9263 8.57446 13.8824 8.57494C13.727 8.58992 13.5709 8.59548 13.4149 8.59161C11.8684 8.59161 10.322 8.61141 8.77661 8.58119C8.29974 8.56765 8.18392 8.71871 8.19853 9.16772C8.23087 10.1553 8.20583 11.1471 8.21209 12.1337C8.21209 12.2775 8.15261 12.4462 8.32374 12.5994C8.88618 12.1118 9.44653 11.6274 10.0027 11.1409C10.3053 10.8742 10.6987 10.6304 11.0399 10.8346C11.666 11.2065 11.9373 10.8044 12.2796 10.4512C12.5206 10.2022 12.7606 9.95114 13.0163 9.7157C13.5797 9.19481 14.1641 9.19481 14.7234 9.7157C15.0458 10.022 15.3401 10.3554 15.6427 10.6762ZM14.8611 5.47459C14.2977 4.8391 13.7811 4.25882 13.2667 3.67542C13.0716 3.45456 12.8222 3.22329 12.8316 2.92742C12.8545 2.15337 12.3756 2.15337 11.8309 2.20546C11.7441 2.2138 11.6568 2.2138 11.57 2.20546C11.3373 2.18567 11.21 2.27005 11.2142 2.518C11.2225 3.02118 10.9617 3.40143 10.6403 3.75668C10.1352 4.31612 9.63957 4.88389 9.11783 5.4725C9.66774 5.71941 10.1321 5.65586 10.5599 5.36833C11.5168 4.71825 12.4601 4.72033 13.417 5.36833C13.8458 5.66315 14.3091 5.72357 14.8611 5.47459ZM14.5105 13.1265C14.9008 13.1265 15.1784 13.1265 15.4559 13.1265C15.5603 13.1265 15.6646 13.1421 15.7397 13.0421C15.8441 12.8952 15.7491 11.7347 15.6083 11.593C15.146 11.1242 14.6775 10.6616 14.211 10.198C14.0326 10.0199 13.8229 9.92927 13.6163 10.1241C13.1634 10.5533 12.7283 11.0002 12.2858 11.4388C12.1815 11.543 12.1533 11.6545 12.2723 11.7514C12.987 12.3295 13.3815 13.4536 14.5105 13.1265ZM8.84861 13.0796H12.5352C12.0187 12.5504 11.5502 12.0545 11.0608 11.5805C10.9074 11.4315 10.6977 11.4763 10.539 11.6138C10.0017 12.0764 9.47053 12.5431 8.84861 13.0838V13.0796ZM12.001 1.48975C12.2775 1.48975 12.554 1.47725 12.8305 1.48975C13.1436 1.50642 13.1436 1.31994 13.1488 1.09179C13.154 0.863641 13.1164 0.692788 12.819 0.701122C12.3036 0.717791 11.7818 0.718833 11.2601 0.702164C10.9585 0.692788 10.8302 0.778214 10.827 1.10742C10.827 1.45433 10.9877 1.50955 11.2716 1.49392C11.5157 1.47934 11.7589 1.4908 12.001 1.48975Z" fill="#FA8B02" stroke="#FA8B02" stroke-width="0.2"/>
</g>
<defs>
<clipPath id="clip0_201_1962">
<rect width="24" height="24" fill="white"/>
</clipPath>
</defs>
</svg>
