<svg width="24" height="24" viewBox="0 0 24 24" fill="none" xmlns="http://www.w3.org/2000/svg">
<g opacity="0.8" clip-path="url(#clip0_201_2004)">
<mask id="path-1-outside-1_201_2004" maskUnits="userSpaceOnUse" x="-1.00977" y="-1" width="26" height="26" fill="black">
<rect fill="white" x="-1.00977" y="-1" width="26" height="26"/>
<path d="M10.4727 15.4344C10.1859 16.6722 9.59729 17.491 8.56769 17.9391C6.85563 18.6846 4.90747 17.7474 4.37919 15.9063C4.27893 15.5583 4.1474 15.4226 3.79917 15.4635C3.61963 15.4738 3.43965 15.4738 3.26011 15.4635C2.21433 15.4635 1.51679 16.0345 1.36154 17.0568C1.19228 18.174 1.0629 19.2976 0.893637 20.4158C0.835418 20.7994 0.948621 20.9092 1.33567 20.9114C2.71134 20.9114 2.71566 20.9308 2.7135 19.5497C2.7135 19.2136 2.66175 18.8882 3.18679 18.9583C3.41643 18.9895 3.49298 19.0552 3.4919 19.2814C3.48436 20.7358 3.48004 22.1901 3.4919 23.6434C3.4919 23.958 3.34528 23.9849 3.09731 23.9881C2.84934 23.9914 2.69841 23.9343 2.70919 23.6337C2.72752 23.0951 2.70919 22.5564 2.71781 22.0178C2.7232 21.7625 2.63049 21.6881 2.37713 21.672C1.14484 21.5955 1.14592 21.5879 1.14592 22.7988C1.14592 23.0498 1.13729 23.3008 1.14592 23.5529C1.15454 23.805 1.13406 23.9957 0.783668 23.9935C0.452686 23.9935 0.340562 23.8858 0.359968 23.5572C0.383686 23.1457 0.367515 22.732 0.359968 22.3194C0.359968 22.0242 0.426811 21.7215 0.0947506 21.5114C-0.0626547 21.4102 -0.00228006 21.1796 0.0225167 21.003C0.212266 19.6337 0.396624 18.2645 0.59931 16.8985C0.809543 15.4829 2.0731 14.5564 3.27304 14.6782C3.86062 14.7374 4.45897 14.6782 5.05086 14.6932C5.32794 14.7008 5.41634 14.6157 5.42497 14.3291C5.43898 13.7765 5.39263 13.3369 4.84278 12.9674C4.12476 12.4837 3.73232 11.7102 3.57168 10.8484C3.52209 10.5887 3.43692 10.4552 3.14044 10.4293C2.88717 10.4149 2.64435 10.3235 2.44452 10.1674C2.2447 10.0112 2.09742 9.79777 2.02243 9.55562C1.83591 9.01697 1.93186 8.51387 2.35449 8.12173C2.43495 8.05314 2.49457 7.96339 2.52658 7.86266C2.55859 7.76193 2.56172 7.65426 2.53561 7.55184C2.46338 7.07245 2.41486 6.5909 2.34586 6.1115C1.9944 3.68758 3.9156 2.1255 5.65676 2.29249C6.63785 2.38513 7.63296 2.21815 8.61404 2.38729C9.33531 2.51225 10.0005 2.69647 10.0824 3.60463C10.1018 3.82009 10.3121 3.84056 10.4943 3.87503C11.5314 4.07218 12.0036 4.64315 12.0036 5.70644C12.0036 6.1018 12.0036 6.49609 12.0036 6.89146C12.0036 7.39779 11.995 7.8341 12.45 8.27794C13.1799 8.99111 12.6786 10.2322 11.6479 10.4175C11.3007 10.4789 11.194 10.6092 11.1185 10.9378C10.9161 11.8417 10.3896 12.6403 9.63826 13.1829C9.36549 13.3854 9.15957 14.3108 9.31482 14.5909C9.3376 14.6292 9.37171 14.6595 9.41245 14.6777C9.45319 14.6958 9.49856 14.7009 9.5423 14.6922C10.0027 14.6738 10.504 14.843 10.8145 14.2806C10.9428 14.0501 11.2457 13.9305 11.5207 13.9499C11.8721 13.9736 11.9379 13.7786 11.9778 13.5082C12.0856 12.7455 12.2311 11.986 12.3163 11.22C12.3681 10.76 12.5459 10.4821 12.9955 10.3043C13.858 9.96176 14.7043 9.55023 15.5593 9.17856C15.9571 9.00404 16.0002 8.81336 15.6466 8.53218C14.9994 8.03239 14.557 7.31376 14.4025 6.51118C14.3572 6.27417 14.258 6.20522 14.0197 6.17291C13.265 6.06518 12.7788 5.53515 12.768 4.85753C12.7573 4.17991 13.2413 3.60894 13.9798 3.50768C14.2569 3.46997 14.3194 3.37301 14.355 3.11877C14.6181 1.24535 16.0186 0 17.8244 0C19.6303 0 21.0253 1.25613 21.2744 3.12416C21.311 3.39779 21.3984 3.46027 21.6582 3.4969C22.3956 3.60463 22.8776 4.17237 22.8614 4.85537C22.8569 5.1826 22.7314 5.49659 22.5091 5.73687C22.2867 5.97715 21.9832 6.12671 21.6571 6.15675C21.3725 6.19122 21.2571 6.28171 21.2065 6.55535C21.0609 7.34824 20.6254 7.97091 20.0259 8.49448C19.6249 8.8446 19.6454 8.9728 20.1456 9.20011C21.0081 9.59332 21.8781 9.98869 22.7546 10.3571C22.8979 10.4054 23.0238 10.4946 23.1168 10.6137C23.2097 10.7329 23.2656 10.8766 23.2775 11.0272C23.4996 12.5354 23.7411 14.0436 23.974 15.5518C24.0128 15.8039 24.0505 16.0571 23.7756 16.2198C23.5773 16.3383 23.6463 16.543 23.6452 16.7089C23.6398 17.7678 23.6452 18.8268 23.6452 19.8858C23.6452 21.1312 23.1482 21.8799 21.9989 22.3227C21.766 22.4121 21.6938 22.5219 21.7046 22.7536C21.7175 23.0218 21.6895 23.2922 21.7121 23.5605C21.738 23.8837 21.6356 24.0032 21.296 24.0022C20.9563 24.0011 20.9251 23.8363 20.9283 23.5712C20.9369 22.6922 20.9186 21.812 20.938 20.9329C20.9456 20.6033 20.8421 20.502 20.5068 20.502C18.6747 20.5157 16.8419 20.5157 15.0084 20.502C14.6418 20.502 14.5771 20.6162 14.6655 20.9394C14.7356 21.2023 14.7604 21.4781 14.4672 21.6558C14.2914 21.7635 14.3421 21.9402 14.341 22.0943C14.3345 22.5974 14.3238 23.1005 14.341 23.6025C14.3529 23.916 14.2224 23.9968 13.9292 24C13.6057 24 13.5281 23.8729 13.5378 23.5809C13.554 23.0789 13.526 22.5758 13.5464 22.0727C13.5605 21.7614 13.4386 21.686 13.1432 21.6795C12.0047 21.6547 12.0047 21.644 12.0047 22.7794C12.0047 23.0304 11.995 23.2825 12.0047 23.5335C12.0187 23.8104 12.0047 24.0054 11.6252 24.0054C11.2457 24.0054 11.2306 23.8319 11.2317 23.5443C11.2414 22.1621 11.2457 20.7789 11.2317 19.3967C11.2317 19.0735 11.318 18.9658 11.6533 18.9658C12.008 18.9658 12.0263 19.1457 12.0058 19.4032C11.9993 19.4749 11.9993 19.547 12.0058 19.6186C12.0532 20.0377 11.7977 20.6572 12.1201 20.8317C12.5125 21.0471 13.0969 20.8985 13.5982 20.9103C13.8332 20.9168 13.858 20.7746 13.8311 20.5871C13.6478 19.3267 13.4774 18.0641 13.2715 16.8069C13.2036 16.3954 13.0343 16.1282 12.4694 16.223C11.7514 16.3426 10.9708 16.3867 10.4727 15.4344ZM13.9453 16.1885C13.9453 15.136 13.9453 14.1955 13.9453 13.255C13.9453 12.9868 13.885 12.7369 14.3313 12.739C14.7776 12.7412 14.7086 13.0051 14.7086 13.2647C14.7086 15.2567 14.7205 17.2507 14.7 19.2405C14.7 19.6391 14.796 19.7587 15.2057 19.7533C16.9307 19.7296 18.6556 19.7264 20.3806 19.7533C20.841 19.7608 20.9456 19.6176 20.9402 19.1791C20.9175 17.1699 20.9402 15.1597 20.9251 13.1462C20.9251 12.8489 21.0103 12.7412 21.3208 12.7412C21.6312 12.7412 21.724 12.8489 21.711 13.1495C21.6916 13.5966 21.711 14.0458 21.711 14.495C21.711 15.4861 21.711 15.4646 22.7137 15.4646C23.0802 15.4646 23.174 15.3569 23.1158 14.9992C22.9203 13.8142 22.7406 12.6259 22.5768 11.4344C22.539 11.1619 22.3978 11.0304 22.1671 10.9302C21.4415 10.6168 20.7192 10.2989 20.0022 9.96822C19.7866 9.86803 19.6852 9.8788 19.5472 10.1115C18.675 11.5917 16.9598 11.5982 16.1102 10.1266C15.983 9.90466 15.8946 9.85295 15.6617 9.96068C14.9297 10.3011 14.189 10.6254 13.4494 10.9496C13.2575 11.0347 13.126 11.1382 13.0947 11.3719C12.9955 12.1002 12.8791 12.8263 12.7562 13.5502C12.7131 13.8023 12.7217 13.9704 12.9966 14.1104C13.194 14.204 13.3543 14.361 13.452 14.5562C13.5497 14.7515 13.5792 14.9738 13.5357 15.1877C13.4634 15.5928 13.6521 15.8363 13.9453 16.1885ZM11.2403 7.50013C11.2403 6.86345 11.2403 6.29141 11.2403 5.71936C11.2339 5.01697 11.0075 4.7498 10.3142 4.64853C9.81938 4.57635 9.42371 4.32534 9.35902 3.84271C9.29434 3.36009 9.0054 3.23189 8.61081 3.1694C7.57582 2.99704 6.5322 3.09507 5.49397 3.08322C4.27462 3.06814 3.31401 3.87827 3.12642 5.07299C2.99058 5.95314 3.24933 6.79666 3.34204 7.72744C3.83367 7.19849 4.46437 7.23943 5.0045 7.04228C5.33872 6.91947 5.61256 6.95825 5.8767 7.23404C6.20014 7.57339 6.63138 7.7059 7.09605 7.72206C7.40283 7.73851 7.70904 7.68058 7.98857 7.55321C8.2681 7.42584 8.51265 7.23281 8.70137 6.99057C9.04853 6.55966 9.39891 6.51549 9.86358 6.79989C10.2754 7.0509 10.7228 7.24051 11.2403 7.50013ZM10.4641 9.42957C10.4641 8.95664 10.4641 8.61621 10.4641 8.27471C10.4706 7.73606 9.95522 7.80393 9.6803 7.59386C9.50888 7.46243 9.35687 7.4732 9.15957 7.63264C7.7936 8.75411 7.02059 8.80259 5.45731 7.90304C4.96892 7.62187 4.2509 8.00216 4.24982 8.54296C4.24982 9.06329 4.24012 9.58362 4.24982 10.104C4.26608 10.7731 4.49587 11.4195 4.90567 11.949C5.31547 12.4784 5.88384 12.8632 6.52788 13.0471C7.82163 13.4102 9.1876 12.8758 9.95522 11.7285C10.4576 10.9809 10.4932 10.1492 10.4641 9.42957ZM20.5186 4.68193C20.5186 4.28764 20.5251 3.89335 20.5186 3.4969C20.5122 3.20065 20.5715 2.76111 20.303 2.68354C20.0346 2.60598 19.7284 2.899 19.5483 3.18556C19.5005 3.26091 19.4475 3.3329 19.3898 3.40102C19.2367 3.58416 19.0492 3.76407 18.8184 3.77915C17.7921 3.85026 16.673 4.2327 15.9765 3.03151C15.921 2.96122 15.8521 2.90263 15.7738 2.85914C15.3016 2.52841 15.1647 2.57474 15.1421 3.15432C15.1065 4.06679 15.1032 4.98573 15.127 5.89604C15.1244 6.61033 15.4059 7.29639 15.9095 7.80329C16.4132 8.31019 17.0977 8.59641 17.8126 8.59898C18.5274 8.60155 19.214 8.32026 19.7213 7.817C20.2285 7.31374 20.515 6.62972 20.5176 5.91543C20.5326 5.50714 20.5186 5.09453 20.5186 4.68193ZM6.18828 13.7592V14.7094C6.18828 15.415 6.17318 15.4333 5.47672 15.4635C5.23199 15.4743 5.04547 15.4732 5.14466 15.8169C5.39047 16.6981 6.35107 17.3994 7.36019 17.3973C8.36931 17.3951 9.34177 16.6873 9.56387 15.8093C9.62101 15.582 9.58866 15.4915 9.33315 15.4624C8.52779 15.373 8.52887 15.3633 8.52887 14.5327C8.52887 14.3894 8.52133 14.2462 8.52887 14.1018C8.54073 13.868 8.44909 13.7625 8.20544 13.8271C7.56827 14.0048 6.93002 13.9402 6.18828 13.7592ZM17.8169 3.06922C18.1867 3.03582 18.6287 3.21034 18.8874 2.78266C19.07 2.4726 19.3415 2.22451 19.6669 2.07056C19.9656 1.92836 19.9548 1.78723 19.7348 1.55777C18.8206 0.603286 17.1474 0.511716 16.1102 1.37678C15.6003 1.80016 15.6035 1.81848 16.1415 2.17291C16.2892 2.26986 16.4649 2.37005 16.5458 2.51441C16.8261 3.0509 17.2735 3.15217 17.8169 3.06922ZM21.7035 18.9238C21.7035 19.6779 21.7035 20.432 21.7035 21.1861C21.7035 21.3046 21.6927 21.4813 21.7606 21.5308C21.8932 21.6289 22.0258 21.4834 22.139 21.4102C22.3627 21.2724 22.5465 21.0787 22.6722 20.8482C22.7979 20.6177 22.8613 20.3584 22.856 20.0959C22.8635 18.9486 22.8441 17.8012 22.8657 16.655C22.8754 16.125 22.5132 16.2726 22.2393 16.2607C21.9655 16.2489 21.6647 16.1831 21.6895 16.6658C21.7326 17.4166 21.7035 18.1708 21.7035 18.9238ZM17.7985 10.4498C18.3947 10.4379 18.9187 9.96391 18.9769 9.42203C19.0017 9.1958 18.9715 9.09022 18.6934 9.16887C18.2269 9.30416 17.7355 9.33033 17.2573 9.24535C17.0654 9.21088 16.8002 9.0105 16.6827 9.20442C16.5555 9.41988 16.7086 9.68597 16.8466 9.90143C16.9462 10.0655 17.0857 10.2018 17.2521 10.2977C17.4185 10.3936 17.6065 10.4459 17.7985 10.4498ZM12.0155 15.4603H12.284C12.5481 15.4603 12.7637 15.373 12.7529 15.0724C12.7422 14.7719 12.5287 14.6911 12.2646 14.6932C12.0489 14.6932 11.8333 14.6835 11.6177 14.7029C11.5678 14.7028 11.5184 14.713 11.4727 14.7327C11.4269 14.7525 11.3857 14.7815 11.3516 14.8179C11.3175 14.8543 11.2913 14.8973 11.2746 14.9442C11.2578 14.9912 11.251 15.041 11.2544 15.0908C11.2544 15.3288 11.4107 15.4409 11.6371 15.4549C11.7643 15.4646 11.8904 15.4581 12.0155 15.4581V15.4603ZM14.3766 4.82198C14.1922 4.67762 14.5588 4.28333 14.1114 4.26286C13.7879 4.25209 13.5723 4.48694 13.5723 4.81336C13.5648 5.16779 13.7879 5.41341 14.1329 5.40156C14.5211 5.38648 14.244 5.02882 14.3766 4.81982V4.82198ZM21.5623 4.25316C21.4199 4.24562 21.3121 4.25316 21.3078 4.36628C21.2949 4.67008 21.297 4.97388 21.3078 5.27875C21.3078 5.3951 21.4059 5.4188 21.4997 5.4091C21.8232 5.37571 22.0388 5.20011 22.056 4.86507C22.0744 4.49987 21.8609 4.30918 21.5623 4.25316ZM3.53071 9.07191C3.3442 8.93832 3.71507 8.53326 3.24717 8.53865C2.91295 8.53865 2.72428 8.76703 2.73183 9.10207C2.73938 9.43711 2.93883 9.65257 3.27089 9.64072C3.68057 9.62564 3.39379 9.27552 3.53071 9.07191ZM11.2199 9.05036C11.3514 9.23027 11.0463 9.59548 11.4484 9.63534C11.7719 9.66765 11.9789 9.4328 11.9875 9.10961C11.9961 8.78643 11.8107 8.55804 11.4829 8.5408C11.07 8.51818 11.3201 8.87153 11.2199 9.04929V9.05036Z"/>
</mask>
<path d="M10.4727 15.4344C10.1859 16.6722 9.59729 17.491 8.56769 17.9391C6.85563 18.6846 4.90747 17.7474 4.37919 15.9063C4.27893 15.5583 4.1474 15.4226 3.79917 15.4635C3.61963 15.4738 3.43965 15.4738 3.26011 15.4635C2.21433 15.4635 1.51679 16.0345 1.36154 17.0568C1.19228 18.174 1.0629 19.2976 0.893637 20.4158C0.835418 20.7994 0.948621 20.9092 1.33567 20.9114C2.71134 20.9114 2.71566 20.9308 2.7135 19.5497C2.7135 19.2136 2.66175 18.8882 3.18679 18.9583C3.41643 18.9895 3.49298 19.0552 3.4919 19.2814C3.48436 20.7358 3.48004 22.1901 3.4919 23.6434C3.4919 23.958 3.34528 23.9849 3.09731 23.9881C2.84934 23.9914 2.69841 23.9343 2.70919 23.6337C2.72752 23.0951 2.70919 22.5564 2.71781 22.0178C2.7232 21.7625 2.63049 21.6881 2.37713 21.672C1.14484 21.5955 1.14592 21.5879 1.14592 22.7988C1.14592 23.0498 1.13729 23.3008 1.14592 23.5529C1.15454 23.805 1.13406 23.9957 0.783668 23.9935C0.452686 23.9935 0.340562 23.8858 0.359968 23.5572C0.383686 23.1457 0.367515 22.732 0.359968 22.3194C0.359968 22.0242 0.426811 21.7215 0.0947506 21.5114C-0.0626547 21.4102 -0.00228006 21.1796 0.0225167 21.003C0.212266 19.6337 0.396624 18.2645 0.59931 16.8985C0.809543 15.4829 2.0731 14.5564 3.27304 14.6782C3.86062 14.7374 4.45897 14.6782 5.05086 14.6932C5.32794 14.7008 5.41634 14.6157 5.42497 14.3291C5.43898 13.7765 5.39263 13.3369 4.84278 12.9674C4.12476 12.4837 3.73232 11.7102 3.57168 10.8484C3.52209 10.5887 3.43692 10.4552 3.14044 10.4293C2.88717 10.4149 2.64435 10.3235 2.44452 10.1674C2.2447 10.0112 2.09742 9.79777 2.02243 9.55562C1.83591 9.01697 1.93186 8.51387 2.35449 8.12173C2.43495 8.05314 2.49457 7.96339 2.52658 7.86266C2.55859 7.76193 2.56172 7.65426 2.53561 7.55184C2.46338 7.07245 2.41486 6.5909 2.34586 6.1115C1.9944 3.68758 3.9156 2.1255 5.65676 2.29249C6.63785 2.38513 7.63296 2.21815 8.61404 2.38729C9.33531 2.51225 10.0005 2.69647 10.0824 3.60463C10.1018 3.82009 10.3121 3.84056 10.4943 3.87503C11.5314 4.07218 12.0036 4.64315 12.0036 5.70644C12.0036 6.1018 12.0036 6.49609 12.0036 6.89146C12.0036 7.39779 11.995 7.8341 12.45 8.27794C13.1799 8.99111 12.6786 10.2322 11.6479 10.4175C11.3007 10.4789 11.194 10.6092 11.1185 10.9378C10.9161 11.8417 10.3896 12.6403 9.63826 13.1829C9.36549 13.3854 9.15957 14.3108 9.31482 14.5909C9.3376 14.6292 9.37171 14.6595 9.41245 14.6777C9.45319 14.6958 9.49856 14.7009 9.5423 14.6922C10.0027 14.6738 10.504 14.843 10.8145 14.2806C10.9428 14.0501 11.2457 13.9305 11.5207 13.9499C11.8721 13.9736 11.9379 13.7786 11.9778 13.5082C12.0856 12.7455 12.2311 11.986 12.3163 11.22C12.3681 10.76 12.5459 10.4821 12.9955 10.3043C13.858 9.96176 14.7043 9.55023 15.5593 9.17856C15.9571 9.00404 16.0002 8.81336 15.6466 8.53218C14.9994 8.03239 14.557 7.31376 14.4025 6.51118C14.3572 6.27417 14.258 6.20522 14.0197 6.17291C13.265 6.06518 12.7788 5.53515 12.768 4.85753C12.7573 4.17991 13.2413 3.60894 13.9798 3.50768C14.2569 3.46997 14.3194 3.37301 14.355 3.11877C14.6181 1.24535 16.0186 0 17.8244 0C19.6303 0 21.0253 1.25613 21.2744 3.12416C21.311 3.39779 21.3984 3.46027 21.6582 3.4969C22.3956 3.60463 22.8776 4.17237 22.8614 4.85537C22.8569 5.1826 22.7314 5.49659 22.5091 5.73687C22.2867 5.97715 21.9832 6.12671 21.6571 6.15675C21.3725 6.19122 21.2571 6.28171 21.2065 6.55535C21.0609 7.34824 20.6254 7.97091 20.0259 8.49448C19.6249 8.8446 19.6454 8.9728 20.1456 9.20011C21.0081 9.59332 21.8781 9.98869 22.7546 10.3571C22.8979 10.4054 23.0238 10.4946 23.1168 10.6137C23.2097 10.7329 23.2656 10.8766 23.2775 11.0272C23.4996 12.5354 23.7411 14.0436 23.974 15.5518C24.0128 15.8039 24.0505 16.0571 23.7756 16.2198C23.5773 16.3383 23.6463 16.543 23.6452 16.7089C23.6398 17.7678 23.6452 18.8268 23.6452 19.8858C23.6452 21.1312 23.1482 21.8799 21.9989 22.3227C21.766 22.4121 21.6938 22.5219 21.7046 22.7536C21.7175 23.0218 21.6895 23.2922 21.7121 23.5605C21.738 23.8837 21.6356 24.0032 21.296 24.0022C20.9563 24.0011 20.9251 23.8363 20.9283 23.5712C20.9369 22.6922 20.9186 21.812 20.938 20.9329C20.9456 20.6033 20.8421 20.502 20.5068 20.502C18.6747 20.5157 16.8419 20.5157 15.0084 20.502C14.6418 20.502 14.5771 20.6162 14.6655 20.9394C14.7356 21.2023 14.7604 21.4781 14.4672 21.6558C14.2914 21.7635 14.3421 21.9402 14.341 22.0943C14.3345 22.5974 14.3238 23.1005 14.341 23.6025C14.3529 23.916 14.2224 23.9968 13.9292 24C13.6057 24 13.5281 23.8729 13.5378 23.5809C13.554 23.0789 13.526 22.5758 13.5464 22.0727C13.5605 21.7614 13.4386 21.686 13.1432 21.6795C12.0047 21.6547 12.0047 21.644 12.0047 22.7794C12.0047 23.0304 11.995 23.2825 12.0047 23.5335C12.0187 23.8104 12.0047 24.0054 11.6252 24.0054C11.2457 24.0054 11.2306 23.8319 11.2317 23.5443C11.2414 22.1621 11.2457 20.7789 11.2317 19.3967C11.2317 19.0735 11.318 18.9658 11.6533 18.9658C12.008 18.9658 12.0263 19.1457 12.0058 19.4032C11.9993 19.4749 11.9993 19.547 12.0058 19.6186C12.0532 20.0377 11.7977 20.6572 12.1201 20.8317C12.5125 21.0471 13.0969 20.8985 13.5982 20.9103C13.8332 20.9168 13.858 20.7746 13.8311 20.5871C13.6478 19.3267 13.4774 18.0641 13.2715 16.8069C13.2036 16.3954 13.0343 16.1282 12.4694 16.223C11.7514 16.3426 10.9708 16.3867 10.4727 15.4344ZM13.9453 16.1885C13.9453 15.136 13.9453 14.1955 13.9453 13.255C13.9453 12.9868 13.885 12.7369 14.3313 12.739C14.7776 12.7412 14.7086 13.0051 14.7086 13.2647C14.7086 15.2567 14.7205 17.2507 14.7 19.2405C14.7 19.6391 14.796 19.7587 15.2057 19.7533C16.9307 19.7296 18.6556 19.7264 20.3806 19.7533C20.841 19.7608 20.9456 19.6176 20.9402 19.1791C20.9175 17.1699 20.9402 15.1597 20.9251 13.1462C20.9251 12.8489 21.0103 12.7412 21.3208 12.7412C21.6312 12.7412 21.724 12.8489 21.711 13.1495C21.6916 13.5966 21.711 14.0458 21.711 14.495C21.711 15.4861 21.711 15.4646 22.7137 15.4646C23.0802 15.4646 23.174 15.3569 23.1158 14.9992C22.9203 13.8142 22.7406 12.6259 22.5768 11.4344C22.539 11.1619 22.3978 11.0304 22.1671 10.9302C21.4415 10.6168 20.7192 10.2989 20.0022 9.96822C19.7866 9.86803 19.6852 9.8788 19.5472 10.1115C18.675 11.5917 16.9598 11.5982 16.1102 10.1266C15.983 9.90466 15.8946 9.85295 15.6617 9.96068C14.9297 10.3011 14.189 10.6254 13.4494 10.9496C13.2575 11.0347 13.126 11.1382 13.0947 11.3719C12.9955 12.1002 12.8791 12.8263 12.7562 13.5502C12.7131 13.8023 12.7217 13.9704 12.9966 14.1104C13.194 14.204 13.3543 14.361 13.452 14.5562C13.5497 14.7515 13.5792 14.9738 13.5357 15.1877C13.4634 15.5928 13.6521 15.8363 13.9453 16.1885ZM11.2403 7.50013C11.2403 6.86345 11.2403 6.29141 11.2403 5.71936C11.2339 5.01697 11.0075 4.7498 10.3142 4.64853C9.81938 4.57635 9.42371 4.32534 9.35902 3.84271C9.29434 3.36009 9.0054 3.23189 8.61081 3.1694C7.57582 2.99704 6.5322 3.09507 5.49397 3.08322C4.27462 3.06814 3.31401 3.87827 3.12642 5.07299C2.99058 5.95314 3.24933 6.79666 3.34204 7.72744C3.83367 7.19849 4.46437 7.23943 5.0045 7.04228C5.33872 6.91947 5.61256 6.95825 5.8767 7.23404C6.20014 7.57339 6.63138 7.7059 7.09605 7.72206C7.40283 7.73851 7.70904 7.68058 7.98857 7.55321C8.2681 7.42584 8.51265 7.23281 8.70137 6.99057C9.04853 6.55966 9.39891 6.51549 9.86358 6.79989C10.2754 7.0509 10.7228 7.24051 11.2403 7.50013ZM10.4641 9.42957C10.4641 8.95664 10.4641 8.61621 10.4641 8.27471C10.4706 7.73606 9.95522 7.80393 9.6803 7.59386C9.50888 7.46243 9.35687 7.4732 9.15957 7.63264C7.7936 8.75411 7.02059 8.80259 5.45731 7.90304C4.96892 7.62187 4.2509 8.00216 4.24982 8.54296C4.24982 9.06329 4.24012 9.58362 4.24982 10.104C4.26608 10.7731 4.49587 11.4195 4.90567 11.949C5.31547 12.4784 5.88384 12.8632 6.52788 13.0471C7.82163 13.4102 9.1876 12.8758 9.95522 11.7285C10.4576 10.9809 10.4932 10.1492 10.4641 9.42957ZM20.5186 4.68193C20.5186 4.28764 20.5251 3.89335 20.5186 3.4969C20.5122 3.20065 20.5715 2.76111 20.303 2.68354C20.0346 2.60598 19.7284 2.899 19.5483 3.18556C19.5005 3.26091 19.4475 3.3329 19.3898 3.40102C19.2367 3.58416 19.0492 3.76407 18.8184 3.77915C17.7921 3.85026 16.673 4.2327 15.9765 3.03151C15.921 2.96122 15.8521 2.90263 15.7738 2.85914C15.3016 2.52841 15.1647 2.57474 15.1421 3.15432C15.1065 4.06679 15.1032 4.98573 15.127 5.89604C15.1244 6.61033 15.4059 7.29639 15.9095 7.80329C16.4132 8.31019 17.0977 8.59641 17.8126 8.59898C18.5274 8.60155 19.214 8.32026 19.7213 7.817C20.2285 7.31374 20.515 6.62972 20.5176 5.91543C20.5326 5.50714 20.5186 5.09453 20.5186 4.68193ZM6.18828 13.7592V14.7094C6.18828 15.415 6.17318 15.4333 5.47672 15.4635C5.23199 15.4743 5.04547 15.4732 5.14466 15.8169C5.39047 16.6981 6.35107 17.3994 7.36019 17.3973C8.36931 17.3951 9.34177 16.6873 9.56387 15.8093C9.62101 15.582 9.58866 15.4915 9.33315 15.4624C8.52779 15.373 8.52887 15.3633 8.52887 14.5327C8.52887 14.3894 8.52133 14.2462 8.52887 14.1018C8.54073 13.868 8.44909 13.7625 8.20544 13.8271C7.56827 14.0048 6.93002 13.9402 6.18828 13.7592ZM17.8169 3.06922C18.1867 3.03582 18.6287 3.21034 18.8874 2.78266C19.07 2.4726 19.3415 2.22451 19.6669 2.07056C19.9656 1.92836 19.9548 1.78723 19.7348 1.55777C18.8206 0.603286 17.1474 0.511716 16.1102 1.37678C15.6003 1.80016 15.6035 1.81848 16.1415 2.17291C16.2892 2.26986 16.4649 2.37005 16.5458 2.51441C16.8261 3.0509 17.2735 3.15217 17.8169 3.06922ZM21.7035 18.9238C21.7035 19.6779 21.7035 20.432 21.7035 21.1861C21.7035 21.3046 21.6927 21.4813 21.7606 21.5308C21.8932 21.6289 22.0258 21.4834 22.139 21.4102C22.3627 21.2724 22.5465 21.0787 22.6722 20.8482C22.7979 20.6177 22.8613 20.3584 22.856 20.0959C22.8635 18.9486 22.8441 17.8012 22.8657 16.655C22.8754 16.125 22.5132 16.2726 22.2393 16.2607C21.9655 16.2489 21.6647 16.1831 21.6895 16.6658C21.7326 17.4166 21.7035 18.1708 21.7035 18.9238ZM17.7985 10.4498C18.3947 10.4379 18.9187 9.96391 18.9769 9.42203C19.0017 9.1958 18.9715 9.09022 18.6934 9.16887C18.2269 9.30416 17.7355 9.33033 17.2573 9.24535C17.0654 9.21088 16.8002 9.0105 16.6827 9.20442C16.5555 9.41988 16.7086 9.68597 16.8466 9.90143C16.9462 10.0655 17.0857 10.2018 17.2521 10.2977C17.4185 10.3936 17.6065 10.4459 17.7985 10.4498ZM12.0155 15.4603H12.284C12.5481 15.4603 12.7637 15.373 12.7529 15.0724C12.7422 14.7719 12.5287 14.6911 12.2646 14.6932C12.0489 14.6932 11.8333 14.6835 11.6177 14.7029C11.5678 14.7028 11.5184 14.713 11.4727 14.7327C11.4269 14.7525 11.3857 14.7815 11.3516 14.8179C11.3175 14.8543 11.2913 14.8973 11.2746 14.9442C11.2578 14.9912 11.251 15.041 11.2544 15.0908C11.2544 15.3288 11.4107 15.4409 11.6371 15.4549C11.7643 15.4646 11.8904 15.4581 12.0155 15.4581V15.4603ZM14.3766 4.82198C14.1922 4.67762 14.5588 4.28333 14.1114 4.26286C13.7879 4.25209 13.5723 4.48694 13.5723 4.81336C13.5648 5.16779 13.7879 5.41341 14.1329 5.40156C14.5211 5.38648 14.244 5.02882 14.3766 4.81982V4.82198ZM21.5623 4.25316C21.4199 4.24562 21.3121 4.25316 21.3078 4.36628C21.2949 4.67008 21.297 4.97388 21.3078 5.27875C21.3078 5.3951 21.4059 5.4188 21.4997 5.4091C21.8232 5.37571 22.0388 5.20011 22.056 4.86507C22.0744 4.49987 21.8609 4.30918 21.5623 4.25316ZM3.53071 9.07191C3.3442 8.93832 3.71507 8.53326 3.24717 8.53865C2.91295 8.53865 2.72428 8.76703 2.73183 9.10207C2.73938 9.43711 2.93883 9.65257 3.27089 9.64072C3.68057 9.62564 3.39379 9.27552 3.53071 9.07191ZM11.2199 9.05036C11.3514 9.23027 11.0463 9.59548 11.4484 9.63534C11.7719 9.66765 11.9789 9.4328 11.9875 9.10961C11.9961 8.78643 11.8107 8.55804 11.4829 8.5408C11.07 8.51818 11.3201 8.87153 11.2199 9.04929V9.05036Z" fill="#FA8B02"/>
<path d="M10.4727 15.4344C10.1859 16.6722 9.59729 17.491 8.56769 17.9391C6.85563 18.6846 4.90747 17.7474 4.37919 15.9063C4.27893 15.5583 4.1474 15.4226 3.79917 15.4635C3.61963 15.4738 3.43965 15.4738 3.26011 15.4635C2.21433 15.4635 1.51679 16.0345 1.36154 17.0568C1.19228 18.174 1.0629 19.2976 0.893637 20.4158C0.835418 20.7994 0.948621 20.9092 1.33567 20.9114C2.71134 20.9114 2.71566 20.9308 2.7135 19.5497C2.7135 19.2136 2.66175 18.8882 3.18679 18.9583C3.41643 18.9895 3.49298 19.0552 3.4919 19.2814C3.48436 20.7358 3.48004 22.1901 3.4919 23.6434C3.4919 23.958 3.34528 23.9849 3.09731 23.9881C2.84934 23.9914 2.69841 23.9343 2.70919 23.6337C2.72752 23.0951 2.70919 22.5564 2.71781 22.0178C2.7232 21.7625 2.63049 21.6881 2.37713 21.672C1.14484 21.5955 1.14592 21.5879 1.14592 22.7988C1.14592 23.0498 1.13729 23.3008 1.14592 23.5529C1.15454 23.805 1.13406 23.9957 0.783668 23.9935C0.452686 23.9935 0.340562 23.8858 0.359968 23.5572C0.383686 23.1457 0.367515 22.732 0.359968 22.3194C0.359968 22.0242 0.426811 21.7215 0.0947506 21.5114C-0.0626547 21.4102 -0.00228006 21.1796 0.0225167 21.003C0.212266 19.6337 0.396624 18.2645 0.59931 16.8985C0.809543 15.4829 2.0731 14.5564 3.27304 14.6782C3.86062 14.7374 4.45897 14.6782 5.05086 14.6932C5.32794 14.7008 5.41634 14.6157 5.42497 14.3291C5.43898 13.7765 5.39263 13.3369 4.84278 12.9674C4.12476 12.4837 3.73232 11.7102 3.57168 10.8484C3.52209 10.5887 3.43692 10.4552 3.14044 10.4293C2.88717 10.4149 2.64435 10.3235 2.44452 10.1674C2.2447 10.0112 2.09742 9.79777 2.02243 9.55562C1.83591 9.01697 1.93186 8.51387 2.35449 8.12173C2.43495 8.05314 2.49457 7.96339 2.52658 7.86266C2.55859 7.76193 2.56172 7.65426 2.53561 7.55184C2.46338 7.07245 2.41486 6.5909 2.34586 6.1115C1.9944 3.68758 3.9156 2.1255 5.65676 2.29249C6.63785 2.38513 7.63296 2.21815 8.61404 2.38729C9.33531 2.51225 10.0005 2.69647 10.0824 3.60463C10.1018 3.82009 10.3121 3.84056 10.4943 3.87503C11.5314 4.07218 12.0036 4.64315 12.0036 5.70644C12.0036 6.1018 12.0036 6.49609 12.0036 6.89146C12.0036 7.39779 11.995 7.8341 12.45 8.27794C13.1799 8.99111 12.6786 10.2322 11.6479 10.4175C11.3007 10.4789 11.194 10.6092 11.1185 10.9378C10.9161 11.8417 10.3896 12.6403 9.63826 13.1829C9.36549 13.3854 9.15957 14.3108 9.31482 14.5909C9.3376 14.6292 9.37171 14.6595 9.41245 14.6777C9.45319 14.6958 9.49856 14.7009 9.5423 14.6922C10.0027 14.6738 10.504 14.843 10.8145 14.2806C10.9428 14.0501 11.2457 13.9305 11.5207 13.9499C11.8721 13.9736 11.9379 13.7786 11.9778 13.5082C12.0856 12.7455 12.2311 11.986 12.3163 11.22C12.3681 10.76 12.5459 10.4821 12.9955 10.3043C13.858 9.96176 14.7043 9.55023 15.5593 9.17856C15.9571 9.00404 16.0002 8.81336 15.6466 8.53218C14.9994 8.03239 14.557 7.31376 14.4025 6.51118C14.3572 6.27417 14.258 6.20522 14.0197 6.17291C13.265 6.06518 12.7788 5.53515 12.768 4.85753C12.7573 4.17991 13.2413 3.60894 13.9798 3.50768C14.2569 3.46997 14.3194 3.37301 14.355 3.11877C14.6181 1.24535 16.0186 0 17.8244 0C19.6303 0 21.0253 1.25613 21.2744 3.12416C21.311 3.39779 21.3984 3.46027 21.6582 3.4969C22.3956 3.60463 22.8776 4.17237 22.8614 4.85537C22.8569 5.1826 22.7314 5.49659 22.5091 5.73687C22.2867 5.97715 21.9832 6.12671 21.6571 6.15675C21.3725 6.19122 21.2571 6.28171 21.2065 6.55535C21.0609 7.34824 20.6254 7.97091 20.0259 8.49448C19.6249 8.8446 19.6454 8.9728 20.1456 9.20011C21.0081 9.59332 21.8781 9.98869 22.7546 10.3571C22.8979 10.4054 23.0238 10.4946 23.1168 10.6137C23.2097 10.7329 23.2656 10.8766 23.2775 11.0272C23.4996 12.5354 23.7411 14.0436 23.974 15.5518C24.0128 15.8039 24.0505 16.0571 23.7756 16.2198C23.5773 16.3383 23.6463 16.543 23.6452 16.7089C23.6398 17.7678 23.6452 18.8268 23.6452 19.8858C23.6452 21.1312 23.1482 21.8799 21.9989 22.3227C21.766 22.4121 21.6938 22.5219 21.7046 22.7536C21.7175 23.0218 21.6895 23.2922 21.7121 23.5605C21.738 23.8837 21.6356 24.0032 21.296 24.0022C20.9563 24.0011 20.9251 23.8363 20.9283 23.5712C20.9369 22.6922 20.9186 21.812 20.938 20.9329C20.9456 20.6033 20.8421 20.502 20.5068 20.502C18.6747 20.5157 16.8419 20.5157 15.0084 20.502C14.6418 20.502 14.5771 20.6162 14.6655 20.9394C14.7356 21.2023 14.7604 21.4781 14.4672 21.6558C14.2914 21.7635 14.3421 21.9402 14.341 22.0943C14.3345 22.5974 14.3238 23.1005 14.341 23.6025C14.3529 23.916 14.2224 23.9968 13.9292 24C13.6057 24 13.5281 23.8729 13.5378 23.5809C13.554 23.0789 13.526 22.5758 13.5464 22.0727C13.5605 21.7614 13.4386 21.686 13.1432 21.6795C12.0047 21.6547 12.0047 21.644 12.0047 22.7794C12.0047 23.0304 11.995 23.2825 12.0047 23.5335C12.0187 23.8104 12.0047 24.0054 11.6252 24.0054C11.2457 24.0054 11.2306 23.8319 11.2317 23.5443C11.2414 22.1621 11.2457 20.7789 11.2317 19.3967C11.2317 19.0735 11.318 18.9658 11.6533 18.9658C12.008 18.9658 12.0263 19.1457 12.0058 19.4032C11.9993 19.4749 11.9993 19.547 12.0058 19.6186C12.0532 20.0377 11.7977 20.6572 12.1201 20.8317C12.5125 21.0471 13.0969 20.8985 13.5982 20.9103C13.8332 20.9168 13.858 20.7746 13.8311 20.5871C13.6478 19.3267 13.4774 18.0641 13.2715 16.8069C13.2036 16.3954 13.0343 16.1282 12.4694 16.223C11.7514 16.3426 10.9708 16.3867 10.4727 15.4344ZM13.9453 16.1885C13.9453 15.136 13.9453 14.1955 13.9453 13.255C13.9453 12.9868 13.885 12.7369 14.3313 12.739C14.7776 12.7412 14.7086 13.0051 14.7086 13.2647C14.7086 15.2567 14.7205 17.2507 14.7 19.2405C14.7 19.6391 14.796 19.7587 15.2057 19.7533C16.9307 19.7296 18.6556 19.7264 20.3806 19.7533C20.841 19.7608 20.9456 19.6176 20.9402 19.1791C20.9175 17.1699 20.9402 15.1597 20.9251 13.1462C20.9251 12.8489 21.0103 12.7412 21.3208 12.7412C21.6312 12.7412 21.724 12.8489 21.711 13.1495C21.6916 13.5966 21.711 14.0458 21.711 14.495C21.711 15.4861 21.711 15.4646 22.7137 15.4646C23.0802 15.4646 23.174 15.3569 23.1158 14.9992C22.9203 13.8142 22.7406 12.6259 22.5768 11.4344C22.539 11.1619 22.3978 11.0304 22.1671 10.9302C21.4415 10.6168 20.7192 10.2989 20.0022 9.96822C19.7866 9.86803 19.6852 9.8788 19.5472 10.1115C18.675 11.5917 16.9598 11.5982 16.1102 10.1266C15.983 9.90466 15.8946 9.85295 15.6617 9.96068C14.9297 10.3011 14.189 10.6254 13.4494 10.9496C13.2575 11.0347 13.126 11.1382 13.0947 11.3719C12.9955 12.1002 12.8791 12.8263 12.7562 13.5502C12.7131 13.8023 12.7217 13.9704 12.9966 14.1104C13.194 14.204 13.3543 14.361 13.452 14.5562C13.5497 14.7515 13.5792 14.9738 13.5357 15.1877C13.4634 15.5928 13.6521 15.8363 13.9453 16.1885ZM11.2403 7.50013C11.2403 6.86345 11.2403 6.29141 11.2403 5.71936C11.2339 5.01697 11.0075 4.7498 10.3142 4.64853C9.81938 4.57635 9.42371 4.32534 9.35902 3.84271C9.29434 3.36009 9.0054 3.23189 8.61081 3.1694C7.57582 2.99704 6.5322 3.09507 5.49397 3.08322C4.27462 3.06814 3.31401 3.87827 3.12642 5.07299C2.99058 5.95314 3.24933 6.79666 3.34204 7.72744C3.83367 7.19849 4.46437 7.23943 5.0045 7.04228C5.33872 6.91947 5.61256 6.95825 5.8767 7.23404C6.20014 7.57339 6.63138 7.7059 7.09605 7.72206C7.40283 7.73851 7.70904 7.68058 7.98857 7.55321C8.2681 7.42584 8.51265 7.23281 8.70137 6.99057C9.04853 6.55966 9.39891 6.51549 9.86358 6.79989C10.2754 7.0509 10.7228 7.24051 11.2403 7.50013ZM10.4641 9.42957C10.4641 8.95664 10.4641 8.61621 10.4641 8.27471C10.4706 7.73606 9.95522 7.80393 9.6803 7.59386C9.50888 7.46243 9.35687 7.4732 9.15957 7.63264C7.7936 8.75411 7.02059 8.80259 5.45731 7.90304C4.96892 7.62187 4.2509 8.00216 4.24982 8.54296C4.24982 9.06329 4.24012 9.58362 4.24982 10.104C4.26608 10.7731 4.49587 11.4195 4.90567 11.949C5.31547 12.4784 5.88384 12.8632 6.52788 13.0471C7.82163 13.4102 9.1876 12.8758 9.95522 11.7285C10.4576 10.9809 10.4932 10.1492 10.4641 9.42957ZM20.5186 4.68193C20.5186 4.28764 20.5251 3.89335 20.5186 3.4969C20.5122 3.20065 20.5715 2.76111 20.303 2.68354C20.0346 2.60598 19.7284 2.899 19.5483 3.18556C19.5005 3.26091 19.4475 3.3329 19.3898 3.40102C19.2367 3.58416 19.0492 3.76407 18.8184 3.77915C17.7921 3.85026 16.673 4.2327 15.9765 3.03151C15.921 2.96122 15.8521 2.90263 15.7738 2.85914C15.3016 2.52841 15.1647 2.57474 15.1421 3.15432C15.1065 4.06679 15.1032 4.98573 15.127 5.89604C15.1244 6.61033 15.4059 7.29639 15.9095 7.80329C16.4132 8.31019 17.0977 8.59641 17.8126 8.59898C18.5274 8.60155 19.214 8.32026 19.7213 7.817C20.2285 7.31374 20.515 6.62972 20.5176 5.91543C20.5326 5.50714 20.5186 5.09453 20.5186 4.68193ZM6.18828 13.7592V14.7094C6.18828 15.415 6.17318 15.4333 5.47672 15.4635C5.23199 15.4743 5.04547 15.4732 5.14466 15.8169C5.39047 16.6981 6.35107 17.3994 7.36019 17.3973C8.36931 17.3951 9.34177 16.6873 9.56387 15.8093C9.62101 15.582 9.58866 15.4915 9.33315 15.4624C8.52779 15.373 8.52887 15.3633 8.52887 14.5327C8.52887 14.3894 8.52133 14.2462 8.52887 14.1018C8.54073 13.868 8.44909 13.7625 8.20544 13.8271C7.56827 14.0048 6.93002 13.9402 6.18828 13.7592ZM17.8169 3.06922C18.1867 3.03582 18.6287 3.21034 18.8874 2.78266C19.07 2.4726 19.3415 2.22451 19.6669 2.07056C19.9656 1.92836 19.9548 1.78723 19.7348 1.55777C18.8206 0.603286 17.1474 0.511716 16.1102 1.37678C15.6003 1.80016 15.6035 1.81848 16.1415 2.17291C16.2892 2.26986 16.4649 2.37005 16.5458 2.51441C16.8261 3.0509 17.2735 3.15217 17.8169 3.06922ZM21.7035 18.9238C21.7035 19.6779 21.7035 20.432 21.7035 21.1861C21.7035 21.3046 21.6927 21.4813 21.7606 21.5308C21.8932 21.6289 22.0258 21.4834 22.139 21.4102C22.3627 21.2724 22.5465 21.0787 22.6722 20.8482C22.7979 20.6177 22.8613 20.3584 22.856 20.0959C22.8635 18.9486 22.8441 17.8012 22.8657 16.655C22.8754 16.125 22.5132 16.2726 22.2393 16.2607C21.9655 16.2489 21.6647 16.1831 21.6895 16.6658C21.7326 17.4166 21.7035 18.1708 21.7035 18.9238ZM17.7985 10.4498C18.3947 10.4379 18.9187 9.96391 18.9769 9.42203C19.0017 9.1958 18.9715 9.09022 18.6934 9.16887C18.2269 9.30416 17.7355 9.33033 17.2573 9.24535C17.0654 9.21088 16.8002 9.0105 16.6827 9.20442C16.5555 9.41988 16.7086 9.68597 16.8466 9.90143C16.9462 10.0655 17.0857 10.2018 17.2521 10.2977C17.4185 10.3936 17.6065 10.4459 17.7985 10.4498ZM12.0155 15.4603H12.284C12.5481 15.4603 12.7637 15.373 12.7529 15.0724C12.7422 14.7719 12.5287 14.6911 12.2646 14.6932C12.0489 14.6932 11.8333 14.6835 11.6177 14.7029C11.5678 14.7028 11.5184 14.713 11.4727 14.7327C11.4269 14.7525 11.3857 14.7815 11.3516 14.8179C11.3175 14.8543 11.2913 14.8973 11.2746 14.9442C11.2578 14.9912 11.251 15.041 11.2544 15.0908C11.2544 15.3288 11.4107 15.4409 11.6371 15.4549C11.7643 15.4646 11.8904 15.4581 12.0155 15.4581V15.4603ZM14.3766 4.82198C14.1922 4.67762 14.5588 4.28333 14.1114 4.26286C13.7879 4.25209 13.5723 4.48694 13.5723 4.81336C13.5648 5.16779 13.7879 5.41341 14.1329 5.40156C14.5211 5.38648 14.244 5.02882 14.3766 4.81982V4.82198ZM21.5623 4.25316C21.4199 4.24562 21.3121 4.25316 21.3078 4.36628C21.2949 4.67008 21.297 4.97388 21.3078 5.27875C21.3078 5.3951 21.4059 5.4188 21.4997 5.4091C21.8232 5.37571 22.0388 5.20011 22.056 4.86507C22.0744 4.49987 21.8609 4.30918 21.5623 4.25316ZM3.53071 9.07191C3.3442 8.93832 3.71507 8.53326 3.24717 8.53865C2.91295 8.53865 2.72428 8.76703 2.73183 9.10207C2.73938 9.43711 2.93883 9.65257 3.27089 9.64072C3.68057 9.62564 3.39379 9.27552 3.53071 9.07191ZM11.2199 9.05036C11.3514 9.23027 11.0463 9.59548 11.4484 9.63534C11.7719 9.66765 11.9789 9.4328 11.9875 9.10961C11.9961 8.78643 11.8107 8.55804 11.4829 8.5408C11.07 8.51818 11.3201 8.87153 11.2199 9.04929V9.05036Z" stroke="#FA8B02" stroke-width="0.4" mask="url(#path-1-outside-1_201_2004)"/>
<path d="M17.7939 21.5654C18.0118 21.5592 18.1643 21.6097 18.2461 21.7422C18.2837 21.8032 18.3002 21.8725 18.3076 21.9404C18.315 22.0084 18.3141 22.0834 18.3125 22.1572C18.3017 22.6562 18.2975 23.1542 18.3125 23.6504C18.3173 23.8234 18.2711 23.9504 18.1562 24.0225C18.0561 24.0852 17.9228 24.0908 17.8057 24.0918C17.6816 24.0929 17.5497 24.0792 17.4521 24.0059C17.3454 23.9254 17.3059 23.795 17.3174 23.6279C17.3322 23.3657 17.3184 23.1072 17.3184 22.832C17.3184 22.5959 17.3258 22.3703 17.3184 22.1406L17.3193 22.1396C17.3162 22.0716 17.3134 22.0027 17.3193 21.9395C17.3254 21.8754 17.3402 21.8095 17.375 21.751C17.4502 21.6251 17.5921 21.5712 17.7939 21.5654Z" fill="#FA8B02" stroke="#FA8B02" stroke-width="0.2"/>
</g>
<defs>
<clipPath id="clip0_201_2004">
<rect width="24" height="24" fill="white"/>
</clipPath>
</defs>
</svg>
