<svg width="24" height="24" viewBox="0 0 24 24" fill="none" xmlns="http://www.w3.org/2000/svg">
<g opacity="0.8" clip-path="url(#clip0_201_1915)">
<path d="M0.708008 4.7041C4.48692 4.72062 8.26397 4.71289 12.0479 4.71289H23.2227C23.4076 4.71289 23.5568 4.71397 23.6719 4.72949C23.7867 4.745 23.8861 4.77645 23.959 4.84961C24.0318 4.92297 24.0631 5.02306 24.0781 5.1377C24.0932 5.2524 24.0938 5.40056 24.0938 5.58398C24.0937 6.50323 24.0809 7.41788 24.0996 8.33496C24.1036 8.53624 24.0761 8.70812 23.9805 8.84668C23.9083 8.95118 23.8039 9.02794 23.668 9.08691L23.5215 9.13965C22.1497 9.56767 21.3391 10.6757 21.3496 12.0264C21.3603 13.351 22.1709 14.4376 23.5225 14.8594L23.6553 14.9062C23.7813 14.9575 23.885 15.0237 23.9609 15.1172C24.0638 15.2439 24.1031 15.4061 24.0996 15.6094C24.082 16.5995 24.0798 17.5894 24.0996 18.5791C24.1048 18.8156 24.0615 19.0048 23.9316 19.1309C23.8031 19.2556 23.6126 19.2959 23.3818 19.2959C15.8035 19.2886 8.22485 19.2886 0.646484 19.2959C0.403107 19.2959 0.203482 19.2545 0.0703125 19.125C-0.0641439 18.9941 -0.10659 18.7973 -0.0986328 18.5488L-0.0859375 17.8213C-0.0784199 17.0935 -0.0854275 16.3645 -0.0986328 15.6357L-0.0996094 15.6338C-0.0996063 15.4434 -0.0702669 15.282 0.0205078 15.1504C0.111916 15.018 0.255203 14.9316 0.451172 14.8682L0.452148 14.8672C1.84611 14.4343 2.65723 13.3488 2.65723 12.002C2.65716 10.6553 1.8476 9.57203 0.458008 9.13477C0.259529 9.07289 0.114443 8.98604 0.0224609 8.85254C-0.0687256 8.72015 -0.0966726 8.55705 -0.0966797 8.36719V8.36523C-0.0757601 7.41064 -0.0637397 6.45655 -0.0966797 5.50781C-0.105167 5.23396 -0.0619702 5.02082 0.0820312 4.88184C0.224295 4.74462 0.440208 4.70411 0.708008 4.7041ZM18.0537 5.56641C17.8854 5.56028 17.7461 5.58133 17.6348 5.66699C17.5713 5.71583 17.5532 5.7968 17.5615 5.9375C17.5659 6.01117 17.5746 6.0717 17.5811 6.15527C17.5869 6.23095 17.5896 6.3136 17.5762 6.39258C17.5576 6.50371 17.5203 6.61307 17.4453 6.69434C17.3664 6.77981 17.2561 6.82306 17.1191 6.81836C16.997 6.81417 16.8981 6.76882 16.8271 6.68945C16.7584 6.61256 16.7237 6.51177 16.71 6.4082V6.40723C16.6892 6.29092 16.6843 6.17224 16.6963 6.05469V6.0498H16.6973C16.7309 5.82531 16.691 5.72661 16.6318 5.67578C16.5632 5.61693 16.4336 5.58819 16.209 5.58984C13.7312 5.61297 11.2529 5.60254 8.77637 5.60254C6.26333 5.60254 3.74746 5.6115 1.2334 5.59277C1.02829 5.59119 0.929786 5.62444 0.878906 5.67578C0.828886 5.72639 0.798487 5.82192 0.807617 6.02148C0.837535 6.64755 0.831925 7.27684 0.807617 7.90332C0.8021 8.06275 0.828964 8.16636 0.881836 8.24414C0.935691 8.32322 1.02667 8.39003 1.17969 8.45605H1.17871C2.5329 9.03384 3.33455 10.0881 3.51074 11.5439C3.69252 13.0442 3.1999 14.4454 1.85352 15.1289C1.3201 15.3999 1.04661 15.7063 0.911133 16.0518C0.773662 16.4025 0.772863 16.808 0.813477 17.291H0.8125C0.835051 17.4984 0.835234 17.7077 0.8125 17.915V17.918C0.779011 18.1561 0.818698 18.2633 0.881836 18.3193C0.952991 18.3825 1.08698 18.4141 1.32617 18.4131H1.32715C6.11662 18.3955 10.9107 18.4036 15.6953 18.4014C15.781 18.4014 15.8689 18.4054 15.9541 18.4102C16.0402 18.415 16.1238 18.42 16.2051 18.4209C16.3692 18.4226 16.5106 18.4076 16.624 18.3525C16.6654 18.3325 16.6873 18.3044 16.7002 18.2666C16.7145 18.2242 16.7183 18.1681 16.7148 18.0957C16.7111 18.018 16.7017 17.951 16.6953 17.8613C16.6896 17.7804 16.6873 17.6918 16.7051 17.6084L16.7256 17.5283C16.7487 17.449 16.7824 17.3724 16.8369 17.3115C16.9146 17.2249 17.0239 17.1807 17.1631 17.1875C17.3027 17.1943 17.4085 17.2509 17.4785 17.3447C17.5448 17.4338 17.5712 17.5465 17.5791 17.6562L17.5898 17.8828C17.591 17.9583 17.5896 18.0339 17.5859 18.1094V18.1104C17.5781 18.2379 17.5971 18.3059 17.6279 18.3428C17.6561 18.3765 17.7151 18.4077 17.8535 18.4072C19.5426 18.3984 21.2318 18.3974 22.9209 18.4062C23.0571 18.4062 23.1185 18.3808 23.1494 18.3486C23.1811 18.3155 23.2047 18.2518 23.2031 18.1182C23.1932 17.4029 23.1921 16.6852 23.2031 15.9707C23.2031 15.853 23.1773 15.7837 23.1367 15.7334C23.115 15.7066 23.0866 15.682 23.0498 15.6582L22.9111 15.5869C22.1263 15.2505 21.5168 14.7786 21.1045 14.1738C20.6919 13.5686 20.4806 12.8364 20.4834 11.9863C20.4835 11.1477 20.6969 10.4235 21.1074 9.8252C21.5178 9.22725 22.1214 8.76107 22.8926 8.43066C23.0292 8.37211 23.1034 8.31157 23.1455 8.24414C23.1877 8.17645 23.2066 8.08727 23.2041 7.95117L23.1914 6.95703C23.1904 6.62589 23.194 6.29447 23.2051 5.96289V5.96191C23.2114 5.78619 23.1792 5.70621 23.1357 5.66504C23.0901 5.62193 23.0039 5.59454 22.8301 5.59668C21.4188 5.61208 19.9984 5.59656 18.5908 5.60645H18.5898C18.4986 5.60643 18.4048 5.59798 18.3154 5.58887C18.2245 5.57959 18.1378 5.56949 18.0537 5.56641Z" fill="#FA8B02" stroke="#FA8B02" stroke-width="0.2"/>
<path d="M12.7666 8.50269C12.9009 8.46935 13.0354 8.50793 13.1602 8.63062C13.2215 8.69096 13.2637 8.75567 13.2842 8.82495C13.3048 8.89476 13.3019 8.96289 13.2842 9.02612C13.25 9.14759 13.16 9.25335 13.0752 9.33765C12.2044 10.2025 11.3329 11.0685 10.4629 11.9363L10.4639 11.9373C9.32201 13.0791 8.18018 14.2212 7.03906 15.363H7.03809C6.92093 15.4792 6.77565 15.6674 6.50098 15.6912L6.48633 15.6931L6.47168 15.6902C6.33147 15.6607 6.19518 15.6004 6.12207 15.4851C6.04428 15.3622 6.05813 15.2109 6.14355 15.0486L6.14844 15.0398L6.22559 14.9333C6.30594 14.8292 6.39738 14.734 6.49902 14.6501C8.44208 12.7049 10.3856 10.7604 12.3301 8.81812L12.332 8.81616L12.4502 8.70581C12.5381 8.61932 12.6445 8.533 12.7666 8.50269Z" fill="#FA8B02" stroke="#FA8B02" stroke-width="0.2"/>
<path d="M7.44141 8.125C7.66049 8.12499 7.87772 8.16699 8.08008 8.25098C8.28265 8.33507 8.46631 8.45886 8.62109 8.61426C8.77594 8.76975 8.89915 8.9542 8.98242 9.15723C9.04492 9.30963 9.08428 9.47038 9.09961 9.63379L9.10645 9.79785C9.10391 10.0188 9.05761 10.2372 8.9707 10.4404C8.88383 10.6435 8.75853 10.828 8.60059 10.9824C8.44252 11.1369 8.25495 11.2586 8.0498 11.3408C7.84468 11.423 7.62527 11.4645 7.4043 11.4619C7.18336 11.4594 6.96487 11.4131 6.76172 11.3262C6.55859 11.2393 6.37415 11.1131 6.21973 10.9551C6.0654 10.7971 5.94351 10.6103 5.86133 10.4053C5.77913 10.2002 5.73871 9.98068 5.74121 9.75977V9.75879C5.74503 9.53958 5.79221 9.32302 5.87988 9.12207C5.96756 8.92124 6.09394 8.73972 6.25195 8.58789C6.41002 8.43603 6.59654 8.31688 6.80078 8.2373C7.00506 8.15776 7.22322 8.11908 7.44238 8.12402L7.44141 8.125ZM7.44238 9.00391C7.23415 8.99971 7.0331 9.07844 6.88281 9.22266C6.73245 9.36697 6.6449 9.56507 6.64062 9.77344C6.63643 9.98155 6.71533 10.1828 6.85938 10.333C7.00362 10.4833 7.20189 10.5708 7.41016 10.5752C7.51318 10.5773 7.6159 10.5589 7.71191 10.5215C7.808 10.484 7.89627 10.4279 7.9707 10.3564C8.04515 10.285 8.10505 10.199 8.14648 10.1045C8.18778 10.0102 8.20977 9.90861 8.21191 9.80566C8.21403 9.70256 8.19568 9.59998 8.1582 9.50391C8.12068 9.40778 8.06462 9.31957 7.99316 9.24512C7.92174 9.17075 7.83662 9.11074 7.74219 9.06934C7.64769 9.02791 7.54554 9.00602 7.44238 9.00391Z" fill="#FA8B02" stroke="#FA8B02" stroke-width="0.2"/>
<path d="M11.8027 12.5083C12.2446 12.5141 12.667 12.6919 12.9795 13.0044C13.2918 13.3168 13.4698 13.7394 13.4756 14.1812C13.4776 14.4003 13.4358 14.6176 13.3535 14.8208C13.2713 15.0239 13.1499 15.2088 12.9961 15.3647C12.8421 15.5208 12.6581 15.645 12.4561 15.73C12.2547 15.8146 12.0388 15.8587 11.8203 15.8599C11.6014 15.8665 11.3831 15.8294 11.1787 15.7505C10.9744 15.6715 10.7875 15.553 10.6299 15.4009C10.4721 15.2486 10.3469 15.0654 10.2607 14.8638C10.1747 14.6622 10.1289 14.4452 10.1279 14.2261H10.1289C10.122 14.0032 10.1598 13.7808 10.2402 13.5728C10.321 13.3641 10.4427 13.1737 10.5986 13.0132C10.7549 12.8525 10.9427 12.7249 11.1494 12.6382C11.356 12.5515 11.5777 12.5072 11.8018 12.5083H11.8027ZM11.7891 13.4126C11.684 13.4125 11.5801 13.4341 11.4834 13.4751C11.3868 13.5161 11.2995 13.5763 11.2266 13.6519C11.1536 13.7275 11.0961 13.8173 11.0586 13.9155C11.0213 14.0133 11.0041 14.1176 11.0078 14.2222L11.0303 14.3726C11.0666 14.5194 11.1443 14.654 11.2549 14.7603C11.402 14.9015 11.5969 14.9807 11.8008 14.9839C11.9051 14.9825 12.008 14.9613 12.1035 14.9194C12.1993 14.8775 12.2856 14.8167 12.3574 14.7407C12.4292 14.6648 12.4849 14.575 12.5215 14.4771C12.5488 14.4038 12.5658 14.3272 12.5703 14.2495V14.1675C12.5689 14.067 12.5476 13.9678 12.5078 13.8755C12.4679 13.783 12.4103 13.6986 12.3379 13.6284C12.2655 13.5583 12.1797 13.5033 12.0859 13.4663C11.9921 13.4293 11.8918 13.4108 11.791 13.4126H11.7891Z" fill="#FA8B02" stroke="#FA8B02" stroke-width="0.2"/>
<path d="M17.5869 12.0852L17.5762 12.0872C17.5786 12.259 17.5869 12.4443 17.5752 12.6213C17.5673 12.7393 17.5246 12.8526 17.4434 12.9338C17.3601 13.0169 17.2439 13.0579 17.1084 13.0442C16.9754 13.0307 16.8704 12.9741 16.8008 12.8821C16.7332 12.7927 16.7056 12.6796 16.7031 12.5647C16.6943 12.1973 16.6954 11.8298 16.7031 11.4641C16.7035 11.3428 16.7296 11.2172 16.7988 11.1184C16.872 11.0141 16.987 10.9499 17.1396 10.9485C17.2904 10.9472 17.4064 11.0058 17.4824 11.1077C17.5547 11.2047 17.5833 11.3308 17.5869 11.4553V12.0852Z" fill="#FA8B02" stroke="#FA8B02" stroke-width="0.2"/>
<path d="M17.1289 7.83789C17.2643 7.83721 17.3759 7.885 17.4531 7.97266C17.5282 8.05804 17.5624 8.17136 17.5664 8.28809C17.5808 8.67297 17.5797 9.05905 17.5664 9.44336C17.5658 9.56721 17.5347 9.69066 17.4561 9.7832C17.3944 9.85565 17.3103 9.90162 17.208 9.91699L17.0996 9.92188C16.9581 9.91439 16.8525 9.85681 16.7842 9.76172C16.7196 9.6716 16.6955 9.55833 16.6895 9.45117C16.6837 9.34773 16.6867 9.25255 16.6904 9.16211C16.6942 9.07084 16.6987 8.98707 16.6992 8.89844L16.6953 8.59863C16.6941 8.49688 16.6942 8.39401 16.6992 8.29297C16.7049 8.1795 16.7368 8.06622 16.8086 7.97949C16.883 7.88968 16.9922 7.83868 17.1289 7.83789Z" fill="#FA8B02" stroke="#FA8B02" stroke-width="0.2"/>
<path d="M17.1611 14.0938C17.1632 14.0938 17.1659 14.0936 17.168 14.0938H17.1699L17.1689 14.0947C17.3058 14.103 17.4097 14.1571 17.4785 14.249C17.5449 14.3379 17.5701 14.4501 17.5762 14.5586C17.5874 14.7608 17.5802 14.9601 17.5791 15.1582L17.5781 15.7139V15.7158C17.5706 15.8284 17.5394 15.9406 17.4688 16.0273C17.3951 16.1176 17.2871 16.1711 17.1504 16.1738C17.0149 16.1765 16.9034 16.1295 16.8252 16.043C16.7492 15.9588 16.7134 15.8463 16.707 15.7305V15.7285C16.6937 15.3255 16.6937 14.9228 16.707 14.5205C16.7043 14.4632 16.7136 14.4061 16.7344 14.3525C16.7565 14.2957 16.7906 14.244 16.835 14.2021C16.8793 14.1604 16.9323 14.1291 16.9902 14.1104C17.0454 14.0925 17.1036 14.0875 17.1611 14.0938Z" fill="#FA8B02" stroke="#FA8B02" stroke-width="0.2"/>
</g>
<defs>
<clipPath id="clip0_201_1915">
<rect width="24" height="24" fill="white"/>
</clipPath>
</defs>
</svg>
