<svg width="24" height="24" viewBox="0 0 24 24" fill="none" xmlns="http://www.w3.org/2000/svg">
<g clip-path="url(#clip0_201_2028)">
<path d="M12.0011 23.9996H2.3018C1.46745 23.9996 1.25887 23.7545 1.20776 22.916C1.10973 21.1795 1.63641 19.7058 2.92443 18.5127C3.4459 18.0309 4.06332 17.7201 4.69742 17.4302C5.78805 16.9324 6.9166 16.5222 8.07235 16.2037C8.42591 16.0994 8.60738 15.9294 8.66787 15.5852C8.7221 15.2723 8.79615 14.973 8.85247 14.6664C9.011 13.7903 8.89836 13.0467 8.05463 12.5044C7.45494 12.1185 7.165 11.4906 7.20672 10.7543C7.22236 10.4915 7.13371 10.3622 6.88132 10.2569C6.06471 9.9179 5.62146 9.29005 5.6298 8.39626C5.63502 7.52854 6.05532 6.90486 6.85838 6.57425C7.11598 6.46996 7.165 6.35941 7.12224 6.08199C7.01795 5.39782 6.7593 4.8774 6.04072 4.66777C5.81127 4.60207 5.60373 4.45918 5.39097 4.33925C4.76521 3.98986 4.41166 3.45275 4.41061 2.73417C4.41061 1.9916 4.7746 1.44197 5.42956 1.09989C6.3682 0.60867 7.38923 0.393826 8.42382 0.25303C11.1459 -0.116169 13.8627 -0.0984392 16.566 0.425114C17.251 0.548576 17.9152 0.767647 18.5392 1.0759C19.2182 1.42007 19.6041 1.97074 19.603 2.73521C19.603 3.47674 19.2286 4.02011 18.5757 4.36636C18.2232 4.55409 17.8707 4.74495 17.5057 4.90452C17.3838 4.94876 17.2764 5.02568 17.1953 5.12684C17.1142 5.22801 17.0625 5.34954 17.0458 5.47813C16.9967 5.76807 16.8372 6.06634 16.8737 6.33751C16.9102 6.60867 17.3148 6.5972 17.5318 6.75468C18.1419 7.20627 18.4318 7.79762 18.3807 8.5527C18.3275 9.33281 17.9291 9.90851 17.221 10.212C16.8914 10.3528 16.7861 10.5145 16.7986 10.8597C16.8257 11.5543 16.4659 12.0684 15.9705 12.5284C15.6576 12.812 15.182 12.982 15.1361 13.4743C15.055 14.3082 15.1667 15.1497 15.4626 15.9335C15.5439 16.1421 15.7692 16.1369 15.9455 16.1932C17.3367 16.6323 18.7353 17.063 20.0129 17.7848C22.444 19.1593 22.9456 21.1221 22.7736 23.2852C22.7339 23.7837 22.3866 23.9975 21.9069 23.9996C20.898 23.9996 19.8898 23.9996 18.8824 23.9996H12.0011ZM7.21506 7.29388C6.62059 7.56608 6.38906 7.96344 6.40783 8.49012C6.42556 8.99803 6.82501 9.51637 7.32561 9.55392C7.97119 9.60293 8.05567 9.96275 8.00456 10.4686C7.96218 10.7625 8.00258 11.0625 8.12122 11.3348C8.23986 11.6071 8.43205 11.8409 8.67621 12.01C9.08473 12.3062 9.46369 12.6412 9.8078 13.0102C10.5379 13.832 11.4243 14.1418 12.508 14.0072C12.8678 13.9634 13.1827 13.8863 13.456 13.6443C14.0557 13.1155 14.6397 12.567 15.2676 12.0736C15.8266 11.6346 16.0821 11.1058 16.0039 10.405C15.9517 9.93042 16.0581 9.61441 16.6442 9.56435C17.173 9.52054 17.5672 9.00325 17.6069 8.47865C17.6423 8.00412 17.3576 7.58068 16.8528 7.36688C16.7579 7.564 16.8226 7.77258 16.8038 7.97387C16.7809 8.21375 16.6682 8.37436 16.42 8.39104C16.1718 8.40773 16.0372 8.24608 16.0153 8.00724C15.9928 7.81719 15.99 7.62531 16.007 7.43467C16.056 7.0248 15.9027 6.94345 15.5043 6.99664C13.262 7.29679 10.9904 7.30871 8.74505 7.0321C8.01499 6.94449 8.01499 6.94345 8.00352 7.71001C8.00458 7.82899 7.99656 7.94788 7.97953 8.06565C7.96528 8.15595 7.91926 8.2382 7.84976 8.29759C7.78026 8.35698 7.69185 8.38961 7.60043 8.38961C7.50901 8.38961 7.42059 8.35698 7.35109 8.29759C7.28159 8.2382 7.23557 8.15595 7.22132 8.06565C7.20498 7.8087 7.20289 7.55105 7.21506 7.29388ZM18.7916 2.72165C18.7916 2.27111 18.5497 1.977 18.1659 1.78301C17.6657 1.53851 17.136 1.35973 16.59 1.25112C14.0348 0.696277 11.4567 0.700448 8.87228 0.991427C7.83769 1.10824 6.80936 1.30431 5.86238 1.7705C5.23662 2.08338 5.00196 2.72896 5.35655 3.23686C5.75495 3.80735 6.44329 3.95023 7.02525 4.23599C7.08365 4.26415 7.21193 4.17342 7.29537 4.11919C7.85888 3.77144 8.48672 3.54087 9.14136 3.44128C10.7433 3.14926 12.3599 3.15656 13.967 3.3057C14.9578 3.39748 15.9277 3.5852 16.7673 4.17446C16.8227 4.21557 16.8894 4.23845 16.9584 4.23994C17.0273 4.24144 17.095 4.22147 17.1521 4.18281C17.5359 3.98256 17.9302 3.79901 18.3077 3.58625C18.4612 3.50175 18.5879 3.37599 18.6736 3.22319C18.7593 3.0704 18.8006 2.89667 18.7927 2.72165H18.7916ZM11.9969 6.39278C13.2112 6.43872 14.4269 6.36044 15.6253 6.15917C15.8047 6.12892 15.9997 6.14039 16.1092 5.92346C16.5399 5.07243 16.3971 4.70949 15.4928 4.41225C15.3783 4.37032 15.2612 4.33549 15.1424 4.30796C13.0766 3.89923 10.9506 3.89923 8.8848 4.30796C8.64628 4.3542 8.41509 4.43243 8.19751 4.54053C7.95555 4.6636 7.57175 4.72305 7.71359 5.14335C7.84917 5.54383 7.71359 6.09137 8.41548 6.1769C9.60964 6.32604 10.7955 6.43346 11.9969 6.39278ZM12.4047 20.9699C12.4047 20.6747 12.4047 20.3796 12.4047 20.0844C12.4047 19.0863 12.8886 18.7568 13.8137 19.1552C15.4146 19.8435 16.4012 21.0512 16.7162 22.7679C16.7892 23.1684 16.9811 23.2372 17.3138 23.1924C17.7539 23.134 17.488 22.8242 17.5036 22.6261C17.496 22.4876 17.4671 22.3511 17.4181 22.2214C17.104 20.9811 16.3738 19.8861 15.3496 19.1193C14.3254 18.3525 13.069 17.9603 11.7905 18.0083C10.5119 18.0563 9.2885 18.5415 8.3246 19.3829C7.3607 20.2243 6.71466 21.3709 6.4944 22.6313C6.40575 23.1465 6.53716 23.2789 7.01586 23.1965C7.32874 23.1423 7.25052 22.8837 7.28911 22.7095C7.68334 20.9209 8.72627 19.6933 10.445 19.0655C11.1156 18.8204 11.5818 19.1625 11.6037 19.8769C11.6183 20.3462 11.6037 20.8155 11.6037 21.2838C11.6037 21.8647 11.7195 22.478 11.0823 22.8545C11.0583 22.8658 11.0369 22.8818 11.0192 22.9016C11.0014 22.9213 10.9878 22.9443 10.9791 22.9694C10.9704 22.9944 10.9667 23.0209 10.9683 23.0474C10.9699 23.0739 10.9767 23.0997 10.9884 23.1235C11.052 23.2278 11.174 23.1924 11.2731 23.1934C11.7247 23.1934 12.1763 23.1997 12.6289 23.1934C12.7603 23.1934 12.9418 23.2591 13.0106 23.1194C13.0962 22.9483 12.9303 22.8065 12.8135 22.7408C12.4193 22.5072 12.3724 22.1557 12.3964 21.7531C12.4193 21.4924 12.4047 21.2306 12.4047 20.9699ZM6.48814 17.6982L6.38384 17.5939C5.78416 17.8525 5.16778 18.0809 4.58687 18.3761C2.77946 19.2928 1.92426 20.7748 2.00039 22.8054C2.01082 23.087 2.07861 23.2101 2.38106 23.2049C3.35203 23.1913 4.32301 23.1965 5.29398 23.2049C5.52029 23.2049 5.63293 23.1517 5.65796 22.892C5.70725 22.3554 5.83297 21.8286 6.03133 21.3276C6.12103 21.1044 6.09391 21.0032 5.83526 20.924C5.01134 20.6716 4.85803 20.2127 5.32735 19.4806C5.71219 18.883 6.10225 18.2916 6.48814 17.6982ZM17.4921 17.6513C17.9093 18.301 18.3129 18.9028 18.6988 19.5108C19.1431 20.2106 18.9773 20.6789 18.1857 20.9209C17.9479 20.9928 17.8728 21.071 17.9688 21.314C18.1714 21.8138 18.298 22.3411 18.3442 22.8784C18.3692 23.1726 18.5153 23.2018 18.7489 23.1997C19.7021 23.1934 20.6564 23.1903 21.6096 23.1997C21.8964 23.1997 21.9914 23.111 22.0049 22.8138C22.1415 19.9687 20.2862 18.3448 17.4921 17.6513ZM9.73166 14.1001C9.65344 14.7363 9.60338 15.3412 9.4094 15.92C9.36872 16.041 9.36351 16.1672 9.51369 16.2245C10.3251 16.5301 11.1355 16.8346 11.95 17.1308C12.0354 17.1454 12.1233 17.133 12.2013 17.0954C12.9314 16.8242 13.6614 16.5478 14.3915 16.2725C14.526 16.2214 14.6679 16.1609 14.6095 15.9805C14.4113 15.3777 14.3654 14.7436 14.2653 14.1115C12.7457 15.1044 11.27 15.1221 9.73166 14.1001ZM13.2119 21.0137C13.2589 21.3266 13.1076 21.7135 13.2912 22.0431C13.9462 23.2028 13.9555 23.1976 15.3176 23.1903C15.4042 23.1903 15.4918 23.183 15.5773 23.1903C15.9163 23.2247 15.9997 23.086 15.9204 22.7616C15.6232 21.5497 14.9463 20.6309 13.8429 20.0417C13.2464 19.7225 13.2171 19.7507 13.2171 20.4432L13.2119 21.0137ZM10.7902 21.0971C10.7902 20.6977 10.784 20.4202 10.7902 20.1439C10.7965 19.8675 10.6912 19.808 10.4471 19.9196C9.14866 20.4964 8.37376 21.4924 8.06818 22.8691C8.02125 23.0839 8.08487 23.1986 8.3237 23.1965C8.80762 23.1965 9.29259 23.1965 9.77755 23.1965C9.88185 23.1965 10.0122 23.2049 10.0508 23.0922C10.2928 22.382 11.1198 21.8793 10.7955 21.0971H10.7902ZM8.51456 18.1769C8.30597 18.0006 8.08904 17.8703 7.93677 17.6888C7.7115 17.4208 7.58739 17.4573 7.41531 17.7409C7.00648 18.4043 6.56114 19.0457 6.1471 19.7069C6.07409 19.8237 5.81023 19.9822 6.05011 20.1188C6.24722 20.2315 6.51734 20.3566 6.72176 20.0218C7.1066 19.3961 7.63432 18.8913 8.21732 18.446C8.29241 18.3897 8.36333 18.3167 8.51456 18.1811V18.1769ZM16.3835 17.4781C16.2792 17.4687 15.5742 18.1592 15.595 18.2249C15.6196 18.2878 15.6616 18.3424 15.716 18.3824C16.3577 18.8586 16.9129 19.4413 17.3576 20.1053C17.5328 20.3723 17.7946 20.2096 17.9646 20.1199C18.1826 20.0072 17.9573 19.8529 17.8916 19.7476C17.4661 19.0738 17.0259 18.4084 16.5879 17.743C16.5222 17.6481 16.4429 17.5584 16.3835 17.4823V17.4781ZM13.7762 17.3603C14.6919 17.9245 14.7555 17.9224 15.3604 17.2685C15.4438 17.1788 15.6451 17.0995 15.5345 16.9483C15.4449 16.8284 15.2592 16.818 15.1007 16.8753C14.6658 17.0359 14.2371 17.1955 13.773 17.3645L13.7762 17.3603ZM10.3251 17.3843C9.77234 17.1851 9.33639 17.0234 8.89836 16.8711C8.74192 16.8169 8.5594 16.8357 8.47388 16.9671C8.40088 17.0808 8.57818 17.1611 8.63658 17.257C8.97241 17.7576 9.38228 17.9151 9.91939 17.5574C10.0495 17.4919 10.184 17.4354 10.322 17.3884L10.3251 17.3843Z" fill="#FA8B02"/>
<path d="M12.0008 11.9933C11.7244 11.9933 11.447 12.0079 11.1727 11.987C11.1245 11.9861 11.077 11.9756 11.0329 11.9562C10.9889 11.9367 10.9491 11.9087 10.9159 11.8738C10.8827 11.8389 10.8568 11.7977 10.8397 11.7527C10.8225 11.7077 10.8145 11.6597 10.816 11.6116C10.8102 11.5634 10.8145 11.5146 10.8285 11.4682C10.8426 11.4218 10.8662 11.3789 10.8978 11.3421C10.9294 11.3053 10.9683 11.2755 11.012 11.2545C11.0557 11.2336 11.1034 11.222 11.1518 11.2205C11.7202 11.1996 12.2907 11.1996 12.8591 11.2205C12.9076 11.2222 12.9552 11.2341 12.9989 11.2554C13.0425 11.2766 13.0812 11.3068 13.1124 11.344C13.1437 11.3811 13.1668 11.4244 13.1803 11.471C13.1938 11.5177 13.1973 11.5666 13.1908 11.6147C13.1922 11.7119 13.1549 11.8057 13.0873 11.8755C13.0197 11.9453 12.9271 11.9854 12.8299 11.987C12.5546 12.011 12.2771 11.9933 12.0008 11.9933Z" fill="#FA8B02"/>
<path d="M10.0656 7.61304C10.3346 7.6412 10.7393 7.50874 10.7706 8.02187C10.7841 8.24193 10.2376 8.78008 10.0186 8.78738C9.79962 8.79468 9.20827 8.22941 9.2041 8.01039C9.2041 7.71733 9.42938 7.61304 10.0656 7.61304Z" fill="#FA8B02"/>
<path d="M14.0184 7.61304C14.3313 7.63077 14.7224 7.52126 14.7943 8.00205C14.8266 8.21064 14.2165 8.79051 13.9954 8.78947C13.7743 8.78842 13.2424 8.25027 13.2299 8.03334C13.2101 7.71107 13.3968 7.61304 14.0184 7.61304Z" fill="#FA8B02"/>
<path d="M12.0124 10.4227C11.8579 10.4251 11.7034 10.4153 11.5504 10.3935C11.4544 10.381 11.3669 10.3319 11.3061 10.2566C11.2453 10.1812 11.2159 10.0853 11.224 9.98883C11.2226 9.94079 11.2308 9.89295 11.2481 9.8481C11.2654 9.80326 11.2914 9.76231 11.3247 9.72765C11.358 9.69299 11.3979 9.66531 11.442 9.64623C11.4862 9.62714 11.5336 9.61704 11.5817 9.61651C11.8216 9.59878 12.0625 9.60399 12.3034 9.60503C12.5808 9.60503 12.7894 9.71559 12.779 10.0222C12.7706 10.2923 12.5766 10.4029 12.3232 10.4144C12.2189 10.4196 12.1146 10.4144 12.0103 10.4144L12.0124 10.4227Z" fill="#FA8B02"/>
<path d="M12.047 12.3979C12.1847 12.4052 12.3234 12.3979 12.4642 12.4209C12.5515 12.4281 12.6331 12.4676 12.693 12.5315C12.753 12.5955 12.787 12.6795 12.7885 12.7671C12.8062 12.982 12.6978 13.1541 12.4829 13.1843C12.1926 13.2149 11.9002 13.2205 11.609 13.201C11.5564 13.2023 11.5042 13.1924 11.4557 13.172C11.4073 13.1515 11.3638 13.121 11.3281 13.0824C11.2923 13.0438 11.2652 12.9981 11.2486 12.9482C11.2319 12.8984 11.2261 12.8455 11.2314 12.7932C11.2418 12.5533 11.3983 12.424 11.6392 12.4146C11.7769 12.4146 11.9145 12.4146 12.0564 12.4146L12.047 12.3979Z" fill="#FA8B02"/>
</g>
<defs>
<clipPath id="clip0_201_2028">
<rect width="24" height="24" fill="white"/>
</clipPath>
</defs>
</svg>
