<svg width="24" height="24" viewBox="0 0 24 24" fill="none" xmlns="http://www.w3.org/2000/svg">
<g opacity="0.8" clip-path="url(#clip0_201_1952)">
<path d="M7.18362 12.8597C7.46652 12.2085 7.40701 11.909 6.91116 11.454C6.29463 10.9073 5.85156 10.1923 5.63657 9.39698C5.57306 9.09612 5.39675 8.83099 5.14385 8.656C4.22105 7.99852 4.0154 6.85993 4.60833 5.88414C4.70333 5.72656 4.76492 5.59611 4.71272 5.40512C4.22731 3.67688 5.2044 1.66687 7.29323 0.842408C8.49934 0.374994 9.79813 0.196291 11.0857 0.320597C11.855 0.387389 12.4918 0.691083 12.7935 1.48424C12.9346 1.82299 13.1819 2.10681 13.4981 2.29304C14.7445 3.10811 14.9742 3.79064 14.5243 5.21518C14.4731 5.37694 14.4136 5.50531 14.5483 5.69107C15.279 6.69921 15.065 8.01313 14.043 8.7468C13.8733 8.86393 13.7517 9.03853 13.7007 9.23835C13.4435 10.167 12.9129 10.9968 12.1776 11.6199C11.8644 11.8902 11.8415 12.8232 12.1202 13.1154C12.2611 13.2626 12.3561 13.1331 12.4146 13.0528C12.996 12.2586 13.803 12.365 14.5942 12.531C16.7864 13.0048 18.3418 14.2446 19.0109 16.4289C19.6853 18.632 19.7417 20.9165 19.7594 23.1957C19.7594 23.6654 19.4744 23.7176 19.1018 23.7176C15.6054 23.712 12.1087 23.712 8.61167 23.7176C5.98523 23.7176 3.35844 23.7176 0.731311 23.7176C0.0444291 23.7176 -0.00672176 23.6675 0.000585497 22.9661C0.0183317 21.0135 0.122721 19.0703 0.541323 17.1573C1.14783 14.3813 3.25545 12.5654 5.96957 12.436C6.49987 12.411 6.49987 12.411 7.18362 12.8597ZM10.0481 22.9515C11.736 22.9515 13.423 22.938 15.1099 22.9609C15.5275 22.9609 15.6433 22.8451 15.6319 22.4391C15.6047 21.3266 15.6225 20.2131 15.6235 19.0995C15.6235 18.8908 15.6078 18.6748 15.8323 18.5506C16.1267 18.3888 16.3824 18.6017 16.3855 19.0453C16.3949 20.2099 16.3981 21.3757 16.3855 22.5403C16.3855 22.8534 16.4711 22.9724 16.7979 22.9578C17.4054 22.9348 18.0151 22.9453 18.6237 22.9578C18.8523 22.9578 18.9859 22.9067 18.9775 22.6447C18.9086 20.5418 18.8784 18.4316 18.179 16.4122C17.6445 14.8666 16.5087 13.9388 14.9888 13.4274C14.6892 13.3231 14.5222 13.3836 14.3625 13.6685C13.7278 14.7675 13.0701 15.8539 12.4094 16.9371C12.2635 17.1696 12.1881 17.4393 12.1922 17.7136C12.2027 19.0181 12.1995 20.3227 12.1922 21.6261C12.1922 22.2408 12.1066 22.3264 11.5043 22.3285C10.3741 22.3285 9.24322 22.3285 8.11164 22.3285C7.44668 22.3285 7.38614 22.2711 7.38092 21.623C7.38092 20.3707 7.37152 19.1183 7.38092 17.866C7.39312 17.5197 7.30151 17.1777 7.11786 16.8839C6.47795 15.8486 5.84117 14.8102 5.24511 13.7531C5.03633 13.3847 4.82755 13.3742 4.49037 13.5068C2.84833 14.1653 1.77416 15.3237 1.36182 17.0676C0.931739 18.872 0.834657 20.7098 0.764716 22.5539C0.752189 22.891 0.888939 22.9641 1.19167 22.9557C1.86916 22.939 2.54873 22.9348 3.22622 22.9557C3.56235 22.9672 3.67718 22.868 3.67092 22.5195C3.65108 21.3892 3.66465 20.259 3.66257 19.1277C3.66257 18.8344 3.68136 18.5172 4.04985 18.5068C4.41834 18.4963 4.44653 18.8198 4.44757 19.112C4.44757 20.2079 4.46636 21.3037 4.43922 22.3984C4.42878 22.8221 4.54361 22.9661 4.98622 22.9599C6.67316 22.9317 8.36113 22.9515 10.0481 22.9515ZM9.74116 11.765C9.7944 11.765 9.91654 11.7576 10.0366 11.7378C11.7371 11.4644 12.5806 10.3133 13.0305 8.7802C13.1192 8.4765 13.2393 8.27926 13.5399 8.12376C14.3562 7.70005 14.4293 6.55832 13.6954 6.05426C13.5253 5.93737 13.4512 5.76622 13.3666 5.59715C13.0608 4.99151 12.6699 4.43273 12.2058 3.93779C12.091 3.81569 11.9605 3.59235 11.7381 3.80629C11.2579 4.27175 10.6598 4.30723 10.0387 4.29888C9.01357 4.2874 7.98533 4.27592 6.97275 4.4596C6.31823 4.57649 5.79524 4.8854 5.70233 5.63681C5.66757 5.80738 5.58034 5.96282 5.45284 6.08139C4.80145 6.79523 4.95908 7.7157 5.82238 8.15611C6.13033 8.31265 6.22741 8.52555 6.29109 8.83655C6.63975 10.5481 8.05527 11.765 9.74116 11.765ZM5.39125 4.43038C6.22637 3.66958 7.13351 3.59548 8.03961 3.56209C8.78495 3.53078 9.53238 3.53704 10.2788 3.53287C10.6556 3.53287 10.9991 3.45877 11.2757 3.17282C11.7392 2.69379 11.877 2.68544 12.401 3.07889C12.8812 3.43998 13.2225 3.92109 13.5649 4.40325C13.6464 4.517 13.6693 4.70172 13.8593 4.71633C14.0942 3.96388 14.0086 3.59548 13.3457 3.14359C12.7549 2.7418 12.259 2.29096 11.9887 1.61573C11.8738 1.32769 11.6076 1.19828 11.3321 1.15863C9.59502 0.931116 7.93314 1.12001 6.49569 2.22729C5.84535 2.72928 5.45598 3.41598 5.39125 4.43038ZM13.6746 13.2918C13.353 13.1603 13.2319 13.3763 13.0879 13.5005C12.2402 14.2477 11.3971 14.9998 10.5585 15.7568C9.785 16.4613 9.79127 16.4613 9.01565 15.7307C8.22125 14.9772 7.42058 14.23 6.62618 13.4775C6.42784 13.2897 6.23368 13.1269 5.92468 13.2928C5.9413 13.3585 5.96402 13.4224 5.99254 13.4838C6.60635 14.5128 7.22955 15.5376 7.83501 16.5719C7.9655 16.7942 8.13878 16.8192 8.35696 16.8171C9.05219 16.8171 9.75682 16.7451 10.4447 16.8328C11.3185 16.9455 11.8018 16.6021 12.1849 15.8445C12.6202 14.9668 13.1683 14.1475 13.6746 13.2918ZM8.14192 19.5817C8.14192 20.1202 8.1534 20.6577 8.14192 21.1951C8.13461 21.4633 8.22647 21.5666 8.49788 21.5635C9.333 21.552 10.1681 21.5489 10.997 21.5635C11.3227 21.5698 11.4145 21.4393 11.4145 21.1325C11.4013 20.0889 11.4013 19.0477 11.4145 18.0089C11.4145 17.6896 11.3101 17.5852 10.997 17.5915C10.1817 17.6071 9.36536 17.6103 8.55008 17.5915C8.21812 17.5842 8.13774 17.7178 8.14922 18.0215C8.16279 18.5401 8.14818 19.062 8.14818 19.5817H8.14192ZM11.4918 13.6623C11.3274 13.3353 11.2214 12.9821 11.1786 12.6186C11.1535 12.2993 11.0325 12.3055 10.7819 12.3807C10.1643 12.5699 9.50863 12.5987 8.87682 12.4642C8.17636 12.3275 8.17532 12.3254 7.9989 13.0256C7.93522 13.2792 7.75881 13.5203 8.0584 13.7771C8.57096 14.2164 9.05532 14.6923 9.54073 15.163C9.70671 15.3237 9.83407 15.3623 10.0209 15.188C10.4531 14.7873 10.902 14.4043 11.3415 14.0108C11.4396 13.9336 11.5544 13.8626 11.498 13.6623H11.4918Z" fill="#FA8B02" stroke="#FA8B02" stroke-width="0.2"/>
<path d="M17.175 6.67722V1.46537C17.175 1.41319 17.175 1.36101 17.175 1.30883C17.1854 1.03957 17.2627 0.809978 17.5852 0.821458C17.8723 0.831894 17.9882 1.05001 17.9454 1.29317C17.8493 1.85151 18.1646 2.12807 18.5633 2.42968C20.2565 3.70498 21.9278 5.00951 23.6043 6.30778C23.8047 6.46223 24.0866 6.60103 23.9749 6.92351C23.8632 7.24599 23.5699 7.19694 23.3089 7.19694H19.1918C17.9579 7.19694 17.9579 7.19694 17.9579 8.45764C17.9579 9.60423 17.9579 10.7522 17.9579 11.9016C17.9579 12.1844 17.9767 12.5173 17.5904 12.5278C17.1624 12.5434 17.1729 12.1907 17.1729 11.8901C17.1729 10.1528 17.1736 8.4152 17.175 6.67722ZM22.3151 6.29317C20.9507 5.24328 19.601 4.19757 18.2376 3.15604C17.9715 2.94731 17.9621 3.15604 17.9621 3.34807C17.9621 4.2174 17.9777 5.08778 17.9537 5.95712C17.9443 6.33491 18.0915 6.42779 18.4412 6.42258C19.5895 6.40692 20.7378 6.42258 21.8861 6.41423C22.0145 6.41318 22.1616 6.46223 22.3151 6.29317Z" fill="#FA8B02" stroke="#FA8B02" stroke-width="0.2"/>
<path d="M9.80111 18.0476C10.0276 18.0476 10.2542 18.0372 10.4796 18.0476C10.5281 18.0456 10.5765 18.0535 10.6218 18.0707C10.6671 18.0879 10.7085 18.1142 10.7434 18.1478C10.7784 18.1815 10.8061 18.2218 10.825 18.2665C10.8439 18.3111 10.8535 18.3592 10.8534 18.4077C10.8603 18.4559 10.8567 18.505 10.8429 18.5517C10.8291 18.5984 10.8054 18.6416 10.7734 18.6784C10.7414 18.7151 10.7019 18.7445 10.6575 18.7646C10.6131 18.7847 10.5649 18.795 10.5162 18.7948C10.0308 18.8126 9.54327 18.8105 9.05473 18.7948C9.00599 18.796 8.95757 18.7868 8.9127 18.7677C8.86783 18.7487 8.82754 18.7203 8.79453 18.6844C8.76152 18.6485 8.73656 18.606 8.7213 18.5598C8.70605 18.5135 8.70085 18.4645 8.70607 18.416C8.70389 18.3675 8.71175 18.319 8.72917 18.2737C8.74659 18.2284 8.77318 18.1871 8.80728 18.1525C8.84138 18.118 8.88226 18.0908 8.92736 18.0727C8.97245 18.0547 9.02079 18.0461 9.06934 18.0476C9.31466 18.0382 9.55788 18.0487 9.80111 18.0476Z" fill="#FA8B02" stroke="#FA8B02" stroke-width="0.2"/>
<path d="M9.79994 19.946C9.55672 19.946 9.31349 19.9554 9.06922 19.946C9.02075 19.9475 8.9725 19.939 8.92751 19.9209C8.88252 19.9028 8.84177 19.8756 8.80783 19.841C8.77389 19.8064 8.7475 19.7651 8.73032 19.7198C8.71314 19.6744 8.70555 19.626 8.70803 19.5776C8.7028 19.5292 8.70799 19.4802 8.72325 19.434C8.73852 19.3878 8.7635 19.3453 8.79653 19.3095C8.82955 19.2738 8.86986 19.2455 8.91473 19.2265C8.9596 19.2076 9.00801 19.1985 9.05669 19.1998C9.52575 19.1873 9.9948 19.1873 10.4639 19.1998C10.7071 19.205 10.8595 19.3438 10.8511 19.5954C10.8428 19.8197 10.6946 19.9397 10.4764 19.9512C10.2582 19.9627 10.0265 19.9471 9.79994 19.946Z" fill="#FA8B02" stroke="#FA8B02" stroke-width="0.2"/>
<path d="M9.76126 21.0886C9.53682 21.0886 9.31134 21.0886 9.08586 21.0886C9.03769 21.0919 8.98936 21.0853 8.94391 21.069C8.89845 21.0527 8.85686 21.0272 8.82175 20.9941C8.78665 20.9609 8.75878 20.9209 8.73992 20.8764C8.72106 20.832 8.7116 20.7841 8.71215 20.7359C8.70451 20.688 8.70747 20.6389 8.72083 20.5923C8.73419 20.5456 8.75762 20.5025 8.78947 20.4659C8.82132 20.4293 8.86081 20.4001 8.90517 20.3804C8.94952 20.3607 8.99766 20.3509 9.04619 20.3518C9.53056 20.3383 10.017 20.3393 10.5014 20.3518C10.5498 20.3496 10.5982 20.3579 10.6432 20.3761C10.6881 20.3943 10.7287 20.4219 10.762 20.4572C10.7953 20.4925 10.8205 20.5345 10.8361 20.5804C10.8517 20.6264 10.8571 20.6751 10.8521 20.7234C10.8543 20.7716 10.8465 20.8197 10.8291 20.8647C10.8117 20.9097 10.7851 20.9506 10.751 20.9847C10.717 21.0189 10.6761 21.0456 10.6312 21.0631C10.5862 21.0806 10.5381 21.0886 10.4899 21.0865C10.2477 21.0991 10.0045 21.0865 9.75917 21.0865L9.76126 21.0886Z" fill="#FA8B02" stroke="#FA8B02" stroke-width="0.2"/>
</g>
<defs>
<clipPath id="clip0_201_1952">
<rect width="24" height="24" fill="white"/>
</clipPath>
</defs>
</svg>
