<svg width="24" height="24" viewBox="0 0 24 24" fill="none" xmlns="http://www.w3.org/2000/svg">
<g opacity="0.8" clip-path="url(#clip0_201_1944)">
<path d="M11.9807 12.613C11.8293 13.6273 11.7029 14.4849 11.5713 15.3404C11.542 15.5295 11.6371 15.5755 11.799 15.6047C12.0821 15.6548 12.1928 15.8502 12.0716 16.1009C11.9828 16.2827 12.0246 16.4247 12.0612 16.5971C12.1813 17.1518 11.8784 17.7524 11.33 17.8621C10.8985 17.9488 10.8609 18.1609 10.8192 18.5233C10.6155 20.2845 8.99945 21.4754 7.32182 21.1348C5.54599 20.7724 4.50139 19.0665 5.00593 17.3419C5.12976 16.9042 5.36018 16.504 5.67657 16.1771C5.85624 15.9912 6.05889 15.8157 6.29811 16.0487C6.50703 16.2576 6.36914 16.4571 6.20618 16.6378C5.9668 16.8931 5.78978 17.2003 5.68901 17.5354C5.58825 17.8705 5.56647 18.2244 5.62538 18.5693C5.80401 19.7873 6.94889 20.6219 8.20869 20.4548C9.37446 20.2981 10.2478 19.1605 10.1328 17.9843C10.1005 17.6563 9.97511 17.6605 9.73381 17.7702C9.22613 18.001 8.71427 18.2204 8.20242 18.4387C7.73026 18.6414 7.56103 18.5432 7.50776 18.048C7.37196 16.7506 7.209 15.4543 7.12543 14.1527C7.08992 13.5991 6.70759 13.387 6.38063 13.0945C6.22498 12.9535 6.09441 13.1363 5.96279 13.199C5.73193 13.3034 5.51674 13.3379 5.38512 13.0726C5.2535 12.8073 5.42482 12.6652 5.62538 12.5764C6.02964 12.3978 6.14768 12.2442 5.8343 11.8044C5.2932 11.0461 5.56793 10.037 6.3775 9.54287C7.12021 9.09056 7.87755 8.65914 8.63488 8.23085C8.74324 8.18273 8.83614 8.10551 8.90326 8.00778C8.97039 7.91005 9.00911 7.79562 9.01512 7.67721C9.03913 7.3964 9.17154 7.13598 9.38428 6.95113C9.59702 6.76627 9.87337 6.67151 10.1548 6.68693C10.4185 6.69888 10.6691 6.80527 10.8609 6.9867C11.0527 7.16812 11.1728 7.41247 11.1994 7.67512C11.2185 7.81397 11.2095 7.95524 11.1728 8.09053C11.1362 8.22581 11.0727 8.35234 10.9861 8.46257C10.8996 8.57281 10.7917 8.66451 10.669 8.73219C10.5463 8.79988 10.4112 8.84218 10.2718 8.85657C9.97302 8.90044 9.8811 8.99863 9.93019 9.28277C9.98347 9.58779 10.0159 9.89699 10.0639 10.2511C10.5152 10.0255 10.8254 9.67136 11.1942 9.39872C11.4031 9.24516 11.612 9.08534 11.8209 9.35484C12.01 9.5951 11.8314 9.76537 11.6559 9.92833C10.9247 10.6052 10.9247 10.6073 11.6444 11.3239L11.6809 11.3615C11.9546 11.6289 12.1855 12.0165 12.5166 12.1335C12.9073 12.2735 13.0849 11.7428 13.3951 11.5537C14.4962 10.8831 15.9273 10.9395 16.9165 11.7428C17.4005 12.1353 17.7496 12.6695 17.9148 13.2704C18.08 13.8712 18.053 14.5088 17.8376 15.0935C17.6222 15.6783 17.2292 16.181 16.7137 16.5312C16.1982 16.8814 15.5861 17.0615 14.9631 17.0463C14.3401 17.0353 13.7366 16.8272 13.2393 16.4518C12.7419 16.0764 12.3763 15.5532 12.1949 14.9571C12.1333 14.7554 12.0267 14.5235 12.2429 14.3815C12.6326 14.1266 12.7402 14.418 12.853 14.7283C13.2813 15.9087 14.2956 16.5041 15.4729 16.2879C16.4464 16.1082 17.1547 15.3415 17.2915 14.3209C17.3457 13.8504 17.2518 13.3746 17.0229 12.96C16.7941 12.5453 16.4416 12.2123 16.0146 12.0074C15.5876 11.8024 15.1073 11.7357 14.6406 11.8166C14.1739 11.8974 13.744 12.1217 13.4108 12.4584C13.1277 12.7373 13.1925 12.9002 13.4808 13.1039C13.906 13.4037 14.3959 13.5218 14.8816 13.6513C15.1428 13.7223 15.4394 13.7923 15.3433 14.1464C15.2472 14.5006 14.9506 14.3815 14.6925 14.3386C13.6062 14.1558 12.7757 13.5531 11.9807 12.613ZM6.40466 10.343C7.35211 10.6648 7.44926 10.6564 8.10736 10.272C8.30166 10.1592 8.48342 10.0119 8.69025 9.93564C9.27732 9.72046 9.35879 9.33813 9.09555 8.77509L6.40466 10.343ZM10.8265 14.7492L10.9424 14.721C11.0699 13.9145 11.1976 13.1081 11.3258 12.3017C11.3435 12.1847 11.3979 12.052 11.2673 11.9684C11.1367 11.8849 11.0427 12.005 10.9435 12.0593C10.699 12.193 10.4629 12.3403 10.2122 12.4772C10.0566 12.5607 9.95735 12.6589 10.0357 12.849L10.8265 14.7492ZM10.3606 15.775C10.3825 15.6705 10.4055 15.636 10.395 15.611C10.1705 15.0448 9.94273 14.4818 9.71605 13.9166C9.46221 13.2899 8.81873 13.1342 8.29434 13.574C8.16586 13.6785 8.15959 13.7505 8.27554 13.8571C8.96289 14.487 9.64815 15.119 10.3606 15.775ZM8.02901 16.2973C8.04886 16.5208 8.06035 16.6754 8.07811 16.83C8.1763 17.6741 8.18257 17.6824 8.94931 17.3262C9.20524 17.2071 9.66382 17.1821 9.66173 16.9188C9.66173 16.5553 9.24389 16.3641 8.93051 16.1876C8.79172 16.1189 8.64741 16.0619 8.49909 16.0173C8.17004 15.9045 7.93918 15.916 8.02901 16.2994V16.2973ZM9.1154 12.4719C8.4197 11.5819 7.45344 11.2414 6.34511 11.1453C6.50912 11.7637 7.50358 12.2578 9.1154 12.474V12.4719ZM8.37164 10.9437C8.75188 11.1787 9.12063 11.3135 9.35044 11.5704C9.65128 11.9089 9.89677 11.9193 10.2081 11.6551C10.3407 11.5422 10.6426 11.5506 10.5778 11.2999C10.5225 11.0847 10.3104 11.0262 10.0681 11.0659C9.80693 11.1087 9.54578 10.998 9.47788 10.7452C9.36402 10.2919 9.15614 10.4726 8.92946 10.6084L8.37164 10.9437ZM10.0879 7.39203C9.85185 7.43486 9.71187 7.56962 9.72441 7.80988C9.72409 7.85808 9.73382 7.90581 9.75299 7.95004C9.77215 7.99427 9.80032 8.03402 9.83571 8.06675C9.87109 8.09948 9.91291 8.12448 9.9585 8.14014C10.0041 8.1558 10.0524 8.1618 10.1005 8.15773C10.3418 8.15773 10.5005 8.01566 10.4943 7.77123C10.488 7.52679 10.3303 7.40979 10.0879 7.39308V7.39203ZM11.3717 16.8572C11.3717 16.6044 11.2391 16.4613 10.9978 16.4519C10.9504 16.446 10.9022 16.4502 10.8565 16.464C10.8108 16.4779 10.7685 16.5012 10.7323 16.5323C10.6961 16.5635 10.6668 16.6019 10.6463 16.6451C10.6258 16.6883 10.6146 16.7353 10.6134 16.783C10.5893 17.0233 10.7095 17.1852 10.9539 17.2061C11.1983 17.227 11.3331 17.0912 11.3717 16.8582V16.8572ZM7.92978 14.5068C7.88799 15.2381 7.88799 15.2443 8.74666 15.2516L7.92978 14.5068Z" fill="#FA8B02" stroke="#FA8B02" stroke-width="0.2"/>
<path d="M23.5295 19.2932C22.4296 18.9672 21.3296 18.6403 20.2244 18.33C19.9956 18.2653 19.8703 18.1963 19.8713 17.9226C19.8811 15.2241 19.8811 12.5259 19.8713 9.82801C19.8713 9.44673 20.0092 9.47285 20.2662 9.62536C20.7603 9.91889 21.2607 10.1999 21.76 10.483C21.9564 10.5947 22.158 10.7389 22.3867 10.5519C22.5894 10.3817 22.4975 10.1696 22.4379 9.97217C21.5995 7.22625 20.7603 4.48069 19.9204 1.73547C19.8588 1.53282 19.7951 1.31763 19.5277 1.31763C19.2602 1.31763 19.1882 1.52655 19.1265 1.72711C18.6544 3.28357 17.6777 6.55213 17.1606 8.26737C17.1301 8.32617 17.1053 8.38773 17.0864 8.45122C16.9297 8.96726 16.773 9.4812 16.6132 9.99828C16.5537 10.1978 16.4753 10.4161 16.6916 10.5697C16.9078 10.7232 17.0896 10.5968 17.2713 10.4945C17.756 10.2197 18.248 9.9565 18.7191 9.65878C19.0733 9.43733 19.1777 9.49374 19.1756 9.91994C19.1631 12.5301 19.1631 15.1416 19.1756 17.7545C19.1756 18.1253 19.0471 18.236 18.6972 18.2371C17.9743 18.2371 17.2891 18.4397 16.6247 18.7134C14.6462 19.5272 12.6343 20.274 10.6997 21.1818C8.76512 22.0896 6.86289 22.1742 4.90531 21.3145C4.6055 21.1839 4.43941 21.0439 4.36316 20.7107C3.9286 18.8116 3.46793 16.9177 3.01457 15.0228C2.95921 14.7899 2.94667 14.5005 2.62494 14.4828C2.25724 14.4629 2.24575 14.7805 2.18725 15.027C1.8286 16.5166 1.47309 18.0055 1.12071 19.4937C1.06325 19.734 1.03923 19.9941 0.66735 19.8259C0.41769 19.7141 0.117888 19.6483 0.0186511 19.9993C-0.0805862 20.3503 0.236973 20.4234 0.480366 20.5091C2.25619 21.1358 4.02157 21.7626 5.80262 22.3643C7.16872 22.8344 8.66045 22.7823 9.99044 22.2181C12.2607 21.2863 14.5271 20.3461 16.7898 19.3976C18.0647 18.8457 19.4957 18.7715 20.8209 19.1887C21.6566 19.4405 22.4839 19.6985 23.3154 19.9554C23.5713 20.0348 23.8659 20.1393 23.9766 19.7956C24.0874 19.4519 23.7823 19.3684 23.5295 19.2932ZM1.90625 20.25C1.74851 20.1967 1.67957 20.1278 1.72344 19.9481C1.99922 18.8294 2.26664 17.7075 2.65627 16.5824C2.98741 17.9707 3.3196 19.36 3.68208 20.8778C3.0198 20.6428 2.46616 20.4401 1.90938 20.25H1.90625ZM19.0524 8.65492C18.576 8.93696 18.0903 9.20229 17.5158 9.52612C17.592 9.2587 17.6484 9.04351 17.7059 8.84191C17.7236 8.79594 17.7383 8.74789 17.7529 8.69984C18.0663 7.68448 18.9239 4.78571 19.2404 3.77349C19.3146 3.53428 19.3449 3.27208 19.5653 3.00466C20.2276 5.17953 20.87 7.29276 21.55 9.53343C20.9452 9.19394 20.4615 8.92861 19.9831 8.65074C19.8443 8.56239 19.6828 8.51607 19.5182 8.51737C19.3536 8.51866 19.193 8.56752 19.0555 8.65805L19.0524 8.65492Z" fill="#FA8B02" stroke="#FA8B02" stroke-width="0.2"/>
</g>
<defs>
<clipPath id="clip0_201_1944">
<rect width="24" height="24" fill="white"/>
</clipPath>
</defs>
</svg>
