<svg width="24" height="24" viewBox="0 0 24 24" fill="none" xmlns="http://www.w3.org/2000/svg">
<g clip-path="url(#clip0_201_2040)">
<path d="M12.0078 0.450195C13.5934 0.451389 15.1377 0.941659 16.4307 1.85059L16.6865 2.03809L16.9365 2.24023C18.1623 3.27501 19.04 4.66611 19.4453 6.22363C19.8776 7.88495 19.7476 9.6428 19.0762 11.2227C18.4596 12.6717 17.5272 13.9135 16.5869 15.1445C16.1022 15.7791 15.616 16.4165 15.1064 17.0332C15.0428 17.1103 14.9966 17.1735 14.9688 17.2246C14.9406 17.2765 14.9363 17.3077 14.9414 17.3271C14.9461 17.3446 14.9627 17.3672 15.0146 17.3906C15.0663 17.4139 15.1442 17.4339 15.2549 17.4521L15.6328 17.5166C16.5102 17.6807 17.3612 17.9455 18.1562 18.3828C18.5468 18.5844 18.9004 18.8525 19.1992 19.1748L19.2002 19.1758C19.5239 19.5424 19.6877 19.9524 19.6846 20.3633C19.6815 20.7742 19.5116 21.1809 19.1807 21.542C18.5661 22.2134 17.7624 22.575 16.9326 22.8389C14.882 23.4889 12.774 23.6535 10.6416 23.4932C9.15705 23.381 7.68621 23.1604 6.30469 22.5391V22.5381C5.82336 22.3381 5.37912 22.0582 4.99219 21.709L4.99121 21.708C4.549 21.2831 4.32182 20.8128 4.32324 20.3398C4.3248 19.8667 4.55517 19.3996 5.00781 18.9814C5.69291 18.348 6.53551 18.0055 7.41113 17.7607L7.83887 17.6436C8.249 17.5391 8.67536 17.4478 9.12598 17.3428C8.55589 16.6102 8.00831 15.9129 7.4668 15.2109C6.56088 14.0362 5.66274 12.8513 5.03516 11.4873L4.91309 11.2119C4.24731 9.62953 4.12285 7.8712 4.55957 6.21094C4.99631 4.55073 5.96996 3.08122 7.32812 2.03125C8.67205 1.00455 10.3166 0.449018 12.0078 0.450195ZM14.5068 18.333C14.3586 18.3073 14.247 18.3203 14.1533 18.3652C14.0589 18.4106 13.9766 18.4914 13.8926 18.6123C13.4503 19.2388 12.9857 19.8497 12.5303 20.4639C12.4365 20.5905 12.3472 20.6879 12.2598 20.7539C12.172 20.8201 12.0831 20.8559 11.9902 20.8545C11.8975 20.853 11.8084 20.8147 11.7207 20.7461C11.6333 20.6777 11.5444 20.5773 11.4502 20.4482C11.1945 20.0997 10.9399 19.7476 10.6846 19.3984C10.4649 19.0979 10.3024 18.8752 10.1582 18.7139C10.0145 18.5531 9.89266 18.4578 9.75684 18.4072C9.62091 18.3566 9.46497 18.3485 9.24805 18.375C9.03049 18.4016 8.75729 18.4615 8.38867 18.543C7.60326 18.7175 6.84352 18.9469 6.16309 19.3633L5.87695 19.5537C5.49505 19.8281 5.32004 20.1048 5.32324 20.3691C5.32663 20.6335 5.50868 20.9083 5.89648 21.1787H5.89551C6.33286 21.476 6.8119 21.7067 7.31641 21.8652V21.8662C8.83042 22.354 10.3937 22.516 11.9785 22.5449L12.6758 22.5332C13.3727 22.5063 14.0674 22.4356 14.7559 22.3213L14.7568 22.3203C15.2622 22.2492 15.7617 22.1416 16.251 21.998L16.7363 21.8428C17.3164 21.6321 17.8793 21.3969 18.333 20.9795C18.5578 20.7727 18.6664 20.56 18.667 20.3535C18.6674 20.1475 18.5607 19.9349 18.3271 19.7275V19.7266C18.1683 19.5903 17.9982 19.4676 17.8193 19.3594L17.6367 19.2559C16.6653 18.7206 15.5932 18.5201 14.5068 18.333ZM12.498 1.46289C10.8136 1.33981 9.14494 1.858 7.82617 2.91309C6.50739 3.96822 5.63623 5.48292 5.38672 7.15332C5.11098 9.04368 5.59095 10.7631 6.63086 12.3408C7.42928 13.5504 8.31732 14.6928 9.21387 15.8311C10.1101 16.9689 11.0154 18.1034 11.8467 19.293H11.8477C11.9293 19.4105 11.9789 19.4248 12.0088 19.4189C12.0269 19.4154 12.0497 19.4035 12.0771 19.377C12.1043 19.3506 12.1329 19.3137 12.165 19.2676C12.3844 18.953 12.6186 18.6467 12.8447 18.3389C13.5646 17.3578 14.329 16.4097 15.0791 15.4541C15.8295 14.498 16.5659 13.5334 17.2334 12.5176L17.5479 12.0156C18.2466 10.836 18.7002 9.59174 18.6699 8.3125V8.31152C18.6699 4.75269 16.1551 1.91539 12.8232 1.49609L12.498 1.46289Z" fill="#FA8B02" stroke="#FA8B02" stroke-width="0.1"/>
<path d="M12.0029 4.9458C12.4215 4.94667 12.8363 5.02995 13.2227 5.19092C13.6088 5.35185 13.9597 5.58693 14.2549 5.8833C14.5502 6.17986 14.784 6.53242 14.9434 6.91943C15.1027 7.30634 15.1844 7.72074 15.1836 8.13916C15.1818 8.98444 14.8441 9.79465 14.2451 10.3911C13.6463 10.9874 12.8353 11.3215 11.9902 11.3198C11.145 11.3181 10.3347 10.9803 9.73828 10.3813C9.14198 9.7825 8.80791 8.97156 8.80957 8.12646C8.81132 7.28132 9.1483 6.47095 9.74707 5.87451C10.0436 5.57917 10.3962 5.3454 10.7832 5.18604C11.1701 5.02672 11.5845 4.94496 12.0029 4.9458ZM11.9766 5.94775C11.3973 5.95357 10.8442 6.18944 10.4385 6.60303C10.0327 7.0169 9.80777 7.57519 9.81348 8.15479C9.8192 8.73436 10.0549 9.28806 10.4688 9.69385C10.8825 10.0994 11.4402 10.3244 12.0195 10.3188C12.599 10.3131 13.1528 10.0772 13.5586 9.66357C13.9644 9.24973 14.1893 8.69138 14.1836 8.11182C14.1779 7.53222 13.9422 6.97856 13.5283 6.57275C13.1145 6.16703 12.5561 5.94205 11.9766 5.94775Z" fill="#FA8B02" stroke="#FA8B02" stroke-width="0.1"/>
</g>
<defs>
<clipPath id="clip0_201_2040">
<rect width="24" height="24" fill="white"/>
</clipPath>
</defs>
</svg>
