<svg width="24" height="24" viewBox="0 0 24 24" fill="none" xmlns="http://www.w3.org/2000/svg">
<g opacity="0.8" clip-path="url(#clip0_201_1908)">
<mask id="path-1-outside-1_201_1908" maskUnits="userSpaceOnUse" x="-1" y="2.23511" width="26" height="19" fill="black">
<rect fill="white" x="-1" y="2.23511" width="26" height="19"/>
<path d="M12.0058 20.7618C8.25794 20.7618 4.50975 20.7618 0.761204 20.7618C0.0126166 20.7618 0 20.7481 0 19.9964V5.70381C0 4.98781 0.0178736 4.96784 0.735971 4.96784C5.20226 4.96784 9.6689 4.96994 14.1359 4.97415C14.4955 4.97415 14.7394 4.89003 14.977 4.5967C15.3301 4.17071 15.7728 3.82782 16.2735 3.59247C16.7743 3.35713 17.3208 3.23511 17.8741 3.23511C18.4274 3.23511 18.9739 3.35713 19.4747 3.59247C19.9754 3.82782 20.4181 4.17071 20.7712 4.5967C20.9962 4.86901 21.2149 4.98992 21.5639 4.97625C22.1948 4.95312 22.8256 4.97625 23.4564 4.96784C23.8223 4.96153 24 5.08875 24 5.48512C23.993 10.4077 23.993 15.3296 24 20.2508C24 20.7491 23.7109 20.766 23.3481 20.7649C20.7898 20.7607 18.2314 20.7607 15.673 20.7649L12.0058 20.7618ZM14.896 10.0229C14.9129 9.92407 14.9244 9.90304 14.9181 9.89043C14.8487 9.74954 14.7762 9.61076 14.7078 9.46987C14.1822 8.40587 13.9014 7.29561 14.2095 6.11805C14.3251 5.67647 14.1822 5.62811 13.7994 5.63021C11.3841 5.64283 8.96833 5.64283 6.55224 5.63021C6.14325 5.63021 6.01498 5.73535 6.01814 6.1559C6.03706 8.79909 6.02655 11.4433 6.03075 14.0865C6.03075 14.2158 5.97188 14.3683 6.11697 14.4766C6.34091 14.3998 6.486 14.2179 6.65317 14.0697C8.05467 12.827 9.46248 11.5863 10.8482 10.331C10.9595 10.2238 11.0915 10.1405 11.2361 10.0863C11.3808 10.032 11.535 10.008 11.6893 10.0155C12.7586 10.0355 13.8257 10.0229 14.896 10.0229ZM0.647654 10.3383C0.647654 11.7556 0.656065 13.1771 0.640294 14.5901C0.640294 14.9245 0.721251 15.0506 1.07662 15.0454C2.37088 15.0265 3.66618 15.0286 4.96149 15.0454C5.28953 15.0454 5.37469 14.9402 5.37364 14.6248C5.36452 11.7728 5.36452 8.92035 5.37364 6.06759C5.37364 5.75217 5.29478 5.63442 4.9657 5.63862C3.67039 5.65334 2.37543 5.65334 1.08083 5.63862C0.735971 5.63862 0.636089 5.74902 0.640294 6.09072C0.657117 7.49852 0.647654 8.91264 0.647654 10.3341V10.3383ZM10.9681 11.1205L6.15587 15.3902C6.02129 15.5101 6.02655 15.6678 6.02655 15.8255C6.02655 17.104 6.03601 18.3814 6.02024 19.6589C6.02024 20.0069 6.13379 20.1067 6.47549 20.1025C7.82337 20.0857 9.17125 20.0826 10.5191 20.1025C10.9071 20.1089 10.9817 19.9606 10.9754 19.6136C10.9554 18.6863 10.9681 17.759 10.9681 16.8306V11.1205ZM23.3555 13.7227C23.3555 12.848 23.3471 11.9732 23.3608 11.0943C23.3608 10.8062 23.2766 10.6853 22.9749 10.6905C22.1874 10.7042 21.3978 10.7021 20.6135 10.6905C20.5097 10.6872 20.4069 10.7116 20.3156 10.7611C20.2244 10.8106 20.1479 10.8835 20.0941 10.9723C19.6137 11.6186 19.0683 12.214 18.4666 12.7491C18.3215 12.8795 18.2048 13.0067 18.2069 13.2317C18.2174 14.2831 18.2174 15.3328 18.2069 16.3806C18.2069 16.6582 18.312 16.7402 18.5738 16.7392C20.0457 16.7293 21.5152 16.7293 22.9823 16.7392C23.2903 16.7392 23.366 16.6267 23.3608 16.3407C23.3471 15.4712 23.3555 14.5964 23.3555 13.7227ZM17.9009 3.90594C17.4351 3.90306 16.9744 4.0038 16.5523 4.20084C16.1302 4.39789 15.7571 4.68632 15.4602 5.04526C15.1632 5.4042 14.9498 5.82467 14.8353 6.27624C14.7208 6.7278 14.7082 7.19917 14.7983 7.65623C15.1694 9.54347 16.3491 10.9103 17.6633 12.2045C17.8914 12.4285 18.026 12.2729 18.1837 12.1215C19.0181 11.3439 19.7334 10.4476 20.3065 9.46146C20.6783 8.82407 20.9145 8.11681 21.0004 7.38392C21.0493 6.94718 21.0056 6.50505 20.8723 6.08629C20.7389 5.66754 20.5189 5.28156 20.2265 4.95347C19.9342 4.62538 19.576 4.36254 19.1753 4.18206C18.7746 4.00157 18.3404 3.90749 17.9009 3.90594ZM13.831 10.7C13.0729 10.7 12.5693 10.7084 12.0584 10.7C11.786 10.7 11.6378 10.7631 11.6378 11.0774C11.6494 12.0563 11.6441 13.0351 11.6378 14.015C11.6378 14.2316 11.703 14.3672 11.9227 14.4503C13.6891 15.1141 15.4529 15.7852 17.2144 16.4637C17.5413 16.5899 17.5624 16.4385 17.5582 16.184C17.5497 15.6773 17.5066 15.1642 17.5655 14.6637C17.6938 13.5713 17.3258 12.7902 16.5551 11.9532C15.6898 11.0049 14.8918 10.3688 13.831 10.7ZM14.5764 20.0973C15.4344 20.0973 16.2912 20.0847 17.1481 20.0973C17.473 20.1046 17.5687 19.9921 17.5687 19.6767C17.5487 18.9944 17.5571 18.3099 17.5687 17.6297C17.5687 17.411 17.515 17.2733 17.2943 17.1902C15.5419 16.5306 13.7931 15.8648 12.0478 15.1926C11.7482 15.0769 11.642 15.1368 11.6441 15.4691C11.6546 16.8685 11.6588 18.2679 11.6441 19.6673C11.6441 20.0353 11.8018 20.1004 12.1193 20.0952C12.9321 20.0857 13.7542 20.0962 14.5764 20.0962V20.0973ZM3.01853 15.6815C2.35511 15.6815 1.69063 15.6951 1.0272 15.6752C0.726508 15.6667 0.638192 15.7687 0.641346 16.0642C0.655014 17.2869 0.652911 18.5107 0.641346 19.7335C0.641346 20.0027 0.726508 20.1025 1.00197 20.1004C2.33022 20.0906 3.65847 20.0906 4.98673 20.1004C5.28953 20.1004 5.37364 19.9953 5.37048 19.702C5.35927 18.4796 5.35927 17.2564 5.37048 16.0326C5.37048 15.7551 5.28006 15.6699 5.00881 15.6752C4.34748 15.6909 3.67985 15.6804 3.01853 15.6804V15.6815ZM20.727 20.0973C21.4798 20.0973 22.2326 20.091 22.9844 20.0973C23.243 20.0973 23.3671 20.03 23.3608 19.744C23.345 19.0795 23.3471 18.414 23.3608 17.7464C23.3608 17.4741 23.2693 17.3805 22.997 17.3816C21.525 17.3914 20.0552 17.3914 18.5875 17.3816C18.3299 17.3816 18.2016 17.4488 18.2079 17.7348C18.2219 18.3993 18.2219 19.0652 18.2079 19.7325C18.2079 20.0069 18.3131 20.1004 18.577 20.0962C19.2929 20.0878 20.01 20.0952 20.727 20.0952V20.0973ZM23.3555 7.83497V7.099C23.3555 5.52192 23.3555 5.52192 21.7784 5.63652C21.7427 5.63652 21.708 5.63652 21.6733 5.63652C21.5187 5.63652 21.4462 5.69645 21.4988 5.86572C21.9193 7.23252 21.5671 8.49419 20.9194 9.70118C20.7649 9.99031 20.9016 10.0229 21.1444 10.0166C21.7574 10.0166 22.3704 10.0008 22.9833 10.0166C23.2987 10.0271 23.3608 9.88412 23.3545 9.60761C23.346 9.02409 23.3566 8.429 23.3566 7.83286L23.3555 7.83497Z"/>
</mask>
<path d="M12.0058 20.7618C8.25794 20.7618 4.50975 20.7618 0.761204 20.7618C0.0126166 20.7618 0 20.7481 0 19.9964V5.70381C0 4.98781 0.0178736 4.96784 0.735971 4.96784C5.20226 4.96784 9.6689 4.96994 14.1359 4.97415C14.4955 4.97415 14.7394 4.89003 14.977 4.5967C15.3301 4.17071 15.7728 3.82782 16.2735 3.59247C16.7743 3.35713 17.3208 3.23511 17.8741 3.23511C18.4274 3.23511 18.9739 3.35713 19.4747 3.59247C19.9754 3.82782 20.4181 4.17071 20.7712 4.5967C20.9962 4.86901 21.2149 4.98992 21.5639 4.97625C22.1948 4.95312 22.8256 4.97625 23.4564 4.96784C23.8223 4.96153 24 5.08875 24 5.48512C23.993 10.4077 23.993 15.3296 24 20.2508C24 20.7491 23.7109 20.766 23.3481 20.7649C20.7898 20.7607 18.2314 20.7607 15.673 20.7649L12.0058 20.7618ZM14.896 10.0229C14.9129 9.92407 14.9244 9.90304 14.9181 9.89043C14.8487 9.74954 14.7762 9.61076 14.7078 9.46987C14.1822 8.40587 13.9014 7.29561 14.2095 6.11805C14.3251 5.67647 14.1822 5.62811 13.7994 5.63021C11.3841 5.64283 8.96833 5.64283 6.55224 5.63021C6.14325 5.63021 6.01498 5.73535 6.01814 6.1559C6.03706 8.79909 6.02655 11.4433 6.03075 14.0865C6.03075 14.2158 5.97188 14.3683 6.11697 14.4766C6.34091 14.3998 6.486 14.2179 6.65317 14.0697C8.05467 12.827 9.46248 11.5863 10.8482 10.331C10.9595 10.2238 11.0915 10.1405 11.2361 10.0863C11.3808 10.032 11.535 10.008 11.6893 10.0155C12.7586 10.0355 13.8257 10.0229 14.896 10.0229ZM0.647654 10.3383C0.647654 11.7556 0.656065 13.1771 0.640294 14.5901C0.640294 14.9245 0.721251 15.0506 1.07662 15.0454C2.37088 15.0265 3.66618 15.0286 4.96149 15.0454C5.28953 15.0454 5.37469 14.9402 5.37364 14.6248C5.36452 11.7728 5.36452 8.92035 5.37364 6.06759C5.37364 5.75217 5.29478 5.63442 4.9657 5.63862C3.67039 5.65334 2.37543 5.65334 1.08083 5.63862C0.735971 5.63862 0.636089 5.74902 0.640294 6.09072C0.657117 7.49852 0.647654 8.91264 0.647654 10.3341V10.3383ZM10.9681 11.1205L6.15587 15.3902C6.02129 15.5101 6.02655 15.6678 6.02655 15.8255C6.02655 17.104 6.03601 18.3814 6.02024 19.6589C6.02024 20.0069 6.13379 20.1067 6.47549 20.1025C7.82337 20.0857 9.17125 20.0826 10.5191 20.1025C10.9071 20.1089 10.9817 19.9606 10.9754 19.6136C10.9554 18.6863 10.9681 17.759 10.9681 16.8306V11.1205ZM23.3555 13.7227C23.3555 12.848 23.3471 11.9732 23.3608 11.0943C23.3608 10.8062 23.2766 10.6853 22.9749 10.6905C22.1874 10.7042 21.3978 10.7021 20.6135 10.6905C20.5097 10.6872 20.4069 10.7116 20.3156 10.7611C20.2244 10.8106 20.1479 10.8835 20.0941 10.9723C19.6137 11.6186 19.0683 12.214 18.4666 12.7491C18.3215 12.8795 18.2048 13.0067 18.2069 13.2317C18.2174 14.2831 18.2174 15.3328 18.2069 16.3806C18.2069 16.6582 18.312 16.7402 18.5738 16.7392C20.0457 16.7293 21.5152 16.7293 22.9823 16.7392C23.2903 16.7392 23.366 16.6267 23.3608 16.3407C23.3471 15.4712 23.3555 14.5964 23.3555 13.7227ZM17.9009 3.90594C17.4351 3.90306 16.9744 4.0038 16.5523 4.20084C16.1302 4.39789 15.7571 4.68632 15.4602 5.04526C15.1632 5.4042 14.9498 5.82467 14.8353 6.27624C14.7208 6.7278 14.7082 7.19917 14.7983 7.65623C15.1694 9.54347 16.3491 10.9103 17.6633 12.2045C17.8914 12.4285 18.026 12.2729 18.1837 12.1215C19.0181 11.3439 19.7334 10.4476 20.3065 9.46146C20.6783 8.82407 20.9145 8.11681 21.0004 7.38392C21.0493 6.94718 21.0056 6.50505 20.8723 6.08629C20.7389 5.66754 20.5189 5.28156 20.2265 4.95347C19.9342 4.62538 19.576 4.36254 19.1753 4.18206C18.7746 4.00157 18.3404 3.90749 17.9009 3.90594ZM13.831 10.7C13.0729 10.7 12.5693 10.7084 12.0584 10.7C11.786 10.7 11.6378 10.7631 11.6378 11.0774C11.6494 12.0563 11.6441 13.0351 11.6378 14.015C11.6378 14.2316 11.703 14.3672 11.9227 14.4503C13.6891 15.1141 15.4529 15.7852 17.2144 16.4637C17.5413 16.5899 17.5624 16.4385 17.5582 16.184C17.5497 15.6773 17.5066 15.1642 17.5655 14.6637C17.6938 13.5713 17.3258 12.7902 16.5551 11.9532C15.6898 11.0049 14.8918 10.3688 13.831 10.7ZM14.5764 20.0973C15.4344 20.0973 16.2912 20.0847 17.1481 20.0973C17.473 20.1046 17.5687 19.9921 17.5687 19.6767C17.5487 18.9944 17.5571 18.3099 17.5687 17.6297C17.5687 17.411 17.515 17.2733 17.2943 17.1902C15.5419 16.5306 13.7931 15.8648 12.0478 15.1926C11.7482 15.0769 11.642 15.1368 11.6441 15.4691C11.6546 16.8685 11.6588 18.2679 11.6441 19.6673C11.6441 20.0353 11.8018 20.1004 12.1193 20.0952C12.9321 20.0857 13.7542 20.0962 14.5764 20.0962V20.0973ZM3.01853 15.6815C2.35511 15.6815 1.69063 15.6951 1.0272 15.6752C0.726508 15.6667 0.638192 15.7687 0.641346 16.0642C0.655014 17.2869 0.652911 18.5107 0.641346 19.7335C0.641346 20.0027 0.726508 20.1025 1.00197 20.1004C2.33022 20.0906 3.65847 20.0906 4.98673 20.1004C5.28953 20.1004 5.37364 19.9953 5.37048 19.702C5.35927 18.4796 5.35927 17.2564 5.37048 16.0326C5.37048 15.7551 5.28006 15.6699 5.00881 15.6752C4.34748 15.6909 3.67985 15.6804 3.01853 15.6804V15.6815ZM20.727 20.0973C21.4798 20.0973 22.2326 20.091 22.9844 20.0973C23.243 20.0973 23.3671 20.03 23.3608 19.744C23.345 19.0795 23.3471 18.414 23.3608 17.7464C23.3608 17.4741 23.2693 17.3805 22.997 17.3816C21.525 17.3914 20.0552 17.3914 18.5875 17.3816C18.3299 17.3816 18.2016 17.4488 18.2079 17.7348C18.2219 18.3993 18.2219 19.0652 18.2079 19.7325C18.2079 20.0069 18.3131 20.1004 18.577 20.0962C19.2929 20.0878 20.01 20.0952 20.727 20.0952V20.0973ZM23.3555 7.83497V7.099C23.3555 5.52192 23.3555 5.52192 21.7784 5.63652C21.7427 5.63652 21.708 5.63652 21.6733 5.63652C21.5187 5.63652 21.4462 5.69645 21.4988 5.86572C21.9193 7.23252 21.5671 8.49419 20.9194 9.70118C20.7649 9.99031 20.9016 10.0229 21.1444 10.0166C21.7574 10.0166 22.3704 10.0008 22.9833 10.0166C23.2987 10.0271 23.3608 9.88412 23.3545 9.60761C23.346 9.02409 23.3566 8.429 23.3566 7.83286L23.3555 7.83497Z" fill="#FA8B02"/>
<path d="M12.0058 20.7618C8.25794 20.7618 4.50975 20.7618 0.761204 20.7618C0.0126166 20.7618 0 20.7481 0 19.9964V5.70381C0 4.98781 0.0178736 4.96784 0.735971 4.96784C5.20226 4.96784 9.6689 4.96994 14.1359 4.97415C14.4955 4.97415 14.7394 4.89003 14.977 4.5967C15.3301 4.17071 15.7728 3.82782 16.2735 3.59247C16.7743 3.35713 17.3208 3.23511 17.8741 3.23511C18.4274 3.23511 18.9739 3.35713 19.4747 3.59247C19.9754 3.82782 20.4181 4.17071 20.7712 4.5967C20.9962 4.86901 21.2149 4.98992 21.5639 4.97625C22.1948 4.95312 22.8256 4.97625 23.4564 4.96784C23.8223 4.96153 24 5.08875 24 5.48512C23.993 10.4077 23.993 15.3296 24 20.2508C24 20.7491 23.7109 20.766 23.3481 20.7649C20.7898 20.7607 18.2314 20.7607 15.673 20.7649L12.0058 20.7618ZM14.896 10.0229C14.9129 9.92407 14.9244 9.90304 14.9181 9.89043C14.8487 9.74954 14.7762 9.61076 14.7078 9.46987C14.1822 8.40587 13.9014 7.29561 14.2095 6.11805C14.3251 5.67647 14.1822 5.62811 13.7994 5.63021C11.3841 5.64283 8.96833 5.64283 6.55224 5.63021C6.14325 5.63021 6.01498 5.73535 6.01814 6.1559C6.03706 8.79909 6.02655 11.4433 6.03075 14.0865C6.03075 14.2158 5.97188 14.3683 6.11697 14.4766C6.34091 14.3998 6.486 14.2179 6.65317 14.0697C8.05467 12.827 9.46248 11.5863 10.8482 10.331C10.9595 10.2238 11.0915 10.1405 11.2361 10.0863C11.3808 10.032 11.535 10.008 11.6893 10.0155C12.7586 10.0355 13.8257 10.0229 14.896 10.0229ZM0.647654 10.3383C0.647654 11.7556 0.656065 13.1771 0.640294 14.5901C0.640294 14.9245 0.721251 15.0506 1.07662 15.0454C2.37088 15.0265 3.66618 15.0286 4.96149 15.0454C5.28953 15.0454 5.37469 14.9402 5.37364 14.6248C5.36452 11.7728 5.36452 8.92035 5.37364 6.06759C5.37364 5.75217 5.29478 5.63442 4.9657 5.63862C3.67039 5.65334 2.37543 5.65334 1.08083 5.63862C0.735971 5.63862 0.636089 5.74902 0.640294 6.09072C0.657117 7.49852 0.647654 8.91264 0.647654 10.3341V10.3383ZM10.9681 11.1205L6.15587 15.3902C6.02129 15.5101 6.02655 15.6678 6.02655 15.8255C6.02655 17.104 6.03601 18.3814 6.02024 19.6589C6.02024 20.0069 6.13379 20.1067 6.47549 20.1025C7.82337 20.0857 9.17125 20.0826 10.5191 20.1025C10.9071 20.1089 10.9817 19.9606 10.9754 19.6136C10.9554 18.6863 10.9681 17.759 10.9681 16.8306V11.1205ZM23.3555 13.7227C23.3555 12.848 23.3471 11.9732 23.3608 11.0943C23.3608 10.8062 23.2766 10.6853 22.9749 10.6905C22.1874 10.7042 21.3978 10.7021 20.6135 10.6905C20.5097 10.6872 20.4069 10.7116 20.3156 10.7611C20.2244 10.8106 20.1479 10.8835 20.0941 10.9723C19.6137 11.6186 19.0683 12.214 18.4666 12.7491C18.3215 12.8795 18.2048 13.0067 18.2069 13.2317C18.2174 14.2831 18.2174 15.3328 18.2069 16.3806C18.2069 16.6582 18.312 16.7402 18.5738 16.7392C20.0457 16.7293 21.5152 16.7293 22.9823 16.7392C23.2903 16.7392 23.366 16.6267 23.3608 16.3407C23.3471 15.4712 23.3555 14.5964 23.3555 13.7227ZM17.9009 3.90594C17.4351 3.90306 16.9744 4.0038 16.5523 4.20084C16.1302 4.39789 15.7571 4.68632 15.4602 5.04526C15.1632 5.4042 14.9498 5.82467 14.8353 6.27624C14.7208 6.7278 14.7082 7.19917 14.7983 7.65623C15.1694 9.54347 16.3491 10.9103 17.6633 12.2045C17.8914 12.4285 18.026 12.2729 18.1837 12.1215C19.0181 11.3439 19.7334 10.4476 20.3065 9.46146C20.6783 8.82407 20.9145 8.11681 21.0004 7.38392C21.0493 6.94718 21.0056 6.50505 20.8723 6.08629C20.7389 5.66754 20.5189 5.28156 20.2265 4.95347C19.9342 4.62538 19.576 4.36254 19.1753 4.18206C18.7746 4.00157 18.3404 3.90749 17.9009 3.90594ZM13.831 10.7C13.0729 10.7 12.5693 10.7084 12.0584 10.7C11.786 10.7 11.6378 10.7631 11.6378 11.0774C11.6494 12.0563 11.6441 13.0351 11.6378 14.015C11.6378 14.2316 11.703 14.3672 11.9227 14.4503C13.6891 15.1141 15.4529 15.7852 17.2144 16.4637C17.5413 16.5899 17.5624 16.4385 17.5582 16.184C17.5497 15.6773 17.5066 15.1642 17.5655 14.6637C17.6938 13.5713 17.3258 12.7902 16.5551 11.9532C15.6898 11.0049 14.8918 10.3688 13.831 10.7ZM14.5764 20.0973C15.4344 20.0973 16.2912 20.0847 17.1481 20.0973C17.473 20.1046 17.5687 19.9921 17.5687 19.6767C17.5487 18.9944 17.5571 18.3099 17.5687 17.6297C17.5687 17.411 17.515 17.2733 17.2943 17.1902C15.5419 16.5306 13.7931 15.8648 12.0478 15.1926C11.7482 15.0769 11.642 15.1368 11.6441 15.4691C11.6546 16.8685 11.6588 18.2679 11.6441 19.6673C11.6441 20.0353 11.8018 20.1004 12.1193 20.0952C12.9321 20.0857 13.7542 20.0962 14.5764 20.0962V20.0973ZM3.01853 15.6815C2.35511 15.6815 1.69063 15.6951 1.0272 15.6752C0.726508 15.6667 0.638192 15.7687 0.641346 16.0642C0.655014 17.2869 0.652911 18.5107 0.641346 19.7335C0.641346 20.0027 0.726508 20.1025 1.00197 20.1004C2.33022 20.0906 3.65847 20.0906 4.98673 20.1004C5.28953 20.1004 5.37364 19.9953 5.37048 19.702C5.35927 18.4796 5.35927 17.2564 5.37048 16.0326C5.37048 15.7551 5.28006 15.6699 5.00881 15.6752C4.34748 15.6909 3.67985 15.6804 3.01853 15.6804V15.6815ZM20.727 20.0973C21.4798 20.0973 22.2326 20.091 22.9844 20.0973C23.243 20.0973 23.3671 20.03 23.3608 19.744C23.345 19.0795 23.3471 18.414 23.3608 17.7464C23.3608 17.4741 23.2693 17.3805 22.997 17.3816C21.525 17.3914 20.0552 17.3914 18.5875 17.3816C18.3299 17.3816 18.2016 17.4488 18.2079 17.7348C18.2219 18.3993 18.2219 19.0652 18.2079 19.7325C18.2079 20.0069 18.3131 20.1004 18.577 20.0962C19.2929 20.0878 20.01 20.0952 20.727 20.0952V20.0973ZM23.3555 7.83497V7.099C23.3555 5.52192 23.3555 5.52192 21.7784 5.63652C21.7427 5.63652 21.708 5.63652 21.6733 5.63652C21.5187 5.63652 21.4462 5.69645 21.4988 5.86572C21.9193 7.23252 21.5671 8.49419 20.9194 9.70118C20.7649 9.99031 20.9016 10.0229 21.1444 10.0166C21.7574 10.0166 22.3704 10.0008 22.9833 10.0166C23.2987 10.0271 23.3608 9.88412 23.3545 9.60761C23.346 9.02409 23.3566 8.429 23.3566 7.83286L23.3555 7.83497Z" stroke="#FA8B02" stroke-width="0.4" mask="url(#path-1-outside-1_201_1908)"/>
<path d="M17.8848 5.04248C18.1524 5.03994 18.4182 5.08971 18.666 5.19092C18.914 5.29229 19.1397 5.44182 19.3291 5.63135C19.5186 5.82096 19.6683 6.04718 19.7695 6.29541C19.8706 6.54353 19.9208 6.80972 19.918 7.07764C19.915 7.34547 19.8593 7.61014 19.7529 7.85596C19.6464 8.10198 19.4914 8.32473 19.2979 8.51025C19.1044 8.69562 18.8761 8.84101 18.626 8.93701C18.3764 9.03276 18.1099 9.07598 17.8428 9.06787V9.06885L17.8418 9.06787L17.8398 9.06885V9.06787C17.5772 9.06584 17.3175 9.01324 17.0762 8.90967C16.8339 8.80565 16.6145 8.65341 16.4316 8.46338C16.2491 8.27352 16.1062 8.04908 16.0117 7.80322C15.9172 7.55716 15.8733 7.29421 15.8818 7.03076C15.8822 6.76929 15.9338 6.5105 16.0342 6.26904C16.135 6.02658 16.2826 5.80577 16.4688 5.62061C16.6549 5.43547 16.8762 5.28941 17.1191 5.18994C17.3621 5.0905 17.6223 5.04008 17.8848 5.0415V5.04248ZM17.8867 5.9126C17.5803 5.9126 17.286 6.03479 17.0693 6.25146C16.8528 6.46812 16.7314 6.7625 16.7314 7.06885C16.7316 7.37502 16.8529 7.66871 17.0693 7.88525C17.286 8.10193 17.5803 8.22412 17.8867 8.22412C18.193 8.22408 18.4865 8.1018 18.7031 7.88525C18.9197 7.66869 19.0419 7.37511 19.042 7.06885C19.042 6.76243 18.9198 6.46814 18.7031 6.25146C18.4865 6.03495 18.193 5.91264 17.8867 5.9126Z" fill="#FA8B02" stroke="#FA8B02" stroke-width="0.2"/>
</g>
<defs>
<clipPath id="clip0_201_1908">
<rect width="24" height="24" fill="white"/>
</clipPath>
</defs>
</svg>
