<svg width="24" height="24" viewBox="0 0 24 24" fill="none" xmlns="http://www.w3.org/2000/svg">
<g opacity="0.8" clip-path="url(#clip0_201_1928)">
<path d="M1.48176 13.0078C1.48176 12.3295 1.47446 11.6512 1.48176 10.973C1.50159 9.46094 2.05256 8.6898 3.4905 8.25988C3.84424 8.15553 3.78998 7.92283 3.80354 7.70265C3.91833 5.73044 4.67487 4.03997 5.99489 2.58951C8.13406 0.239552 11.6287 -0.616116 14.7185 0.458687C17.7363 1.50845 19.9454 4.34572 20.1343 7.48038C20.1656 7.99065 20.3127 8.21083 20.8167 8.36423C21.7694 8.64597 22.3528 9.34929 22.4248 10.3406C22.5547 12.1268 22.5547 13.9201 22.4248 15.7063C22.3434 16.8145 21.6484 17.5063 20.5882 17.786C20.2699 17.8694 20.1531 18.0061 20.1489 18.3077C20.1452 18.499 20.1274 18.6898 20.0957 18.8785C19.6939 21.3412 18.353 22.5057 15.6619 22.7395C15.4886 22.7589 15.3144 22.768 15.1401 22.7666C14.8083 22.7541 14.6497 22.8709 14.6111 23.232C14.5578 23.711 14.2187 23.9718 13.7502 23.9833C12.7943 24.0056 11.8381 24.0056 10.8816 23.9833C10.3296 23.9729 9.97897 23.6212 9.94766 23.0609C9.91997 22.5743 9.91997 22.0865 9.94766 21.6C9.9821 21.0323 10.315 20.7046 10.8868 20.6921C11.826 20.6702 12.7651 20.6733 13.7043 20.6921C14.226 20.7025 14.5704 20.9791 14.6079 21.5133C14.6319 21.8577 14.7791 21.8974 15.0744 21.8671C15.8048 21.793 16.53 21.7367 17.2219 21.4716C18.4866 20.9874 19.4299 19.4284 19.263 18.1324C19.2264 17.8475 19.0344 17.9237 18.88 17.9154C17.9763 17.8705 17.9513 17.8486 17.9502 16.948C17.9502 14.3219 17.9502 11.6961 17.9502 9.07067C17.9502 8.25049 18.016 8.16701 18.8362 8.16909C19.1784 8.16909 19.2786 8.07622 19.2609 7.72561C19.0741 4.00032 16.026 1.06705 12.1327 0.889651C8.57755 0.719561 5.25401 3.52344 4.78235 7.09533C4.77191 7.1809 4.76043 7.26751 4.74895 7.35308C4.64982 8.10335 4.64982 8.11379 5.39071 8.14718C5.8248 8.16596 6.0168 8.36944 6.0168 8.79937C6.0168 11.6168 6.0168 14.4343 6.0168 17.2517C6.0168 17.7088 5.82271 17.931 5.35836 17.9154C4.78548 17.8945 4.21051 17.9581 3.64076 17.8538C2.41152 17.6347 1.6362 16.8541 1.53498 15.6134C1.46402 14.7504 1.52141 13.877 1.52141 13.0047L1.48176 13.0078ZM5.09226 13.0297V10.0036C5.09226 9.00807 5.09226 9.00807 4.07172 9.05607C3.09918 9.10198 2.43343 9.65608 2.41048 10.5775C2.36874 12.2106 2.37291 13.8457 2.41048 15.4819C2.42926 16.276 2.94996 16.7978 3.73363 16.9428C4.00494 16.9908 4.28877 16.9637 4.56843 16.996C4.97122 17.043 5.11627 16.9032 5.10583 16.4795C5.07766 15.3254 5.0954 14.1776 5.0954 13.0297H5.09226ZM18.8737 13.0297C18.8737 14.1943 18.8842 15.3598 18.8664 16.5244C18.8664 16.8813 18.9645 17.0461 19.3371 17.0023C19.5458 16.9793 19.7545 17.0023 19.9632 16.9846C20.9023 16.9094 21.5148 16.3585 21.543 15.4308C21.591 13.8322 21.59 12.2304 21.5597 10.6307C21.5472 9.80843 21.0473 9.28668 20.2251 9.1312C19.9371 9.07694 19.6355 9.10302 19.3433 9.06963C18.9802 9.02685 18.8623 9.16355 18.8685 9.5319C18.8894 10.6964 18.8769 11.862 18.8769 13.0276L18.8737 13.0297ZM12.2736 23.0702H12.691C13.8128 23.0702 13.8034 23.0702 13.7481 21.9568C13.7356 21.6866 13.6437 21.5926 13.3818 21.5968C12.6514 21.6073 11.9293 21.5968 11.203 21.5968C11.0496 21.5968 10.8597 21.577 10.8607 21.8055C10.8607 22.2 10.7198 22.6497 10.9254 22.9711C11.0809 23.2132 11.5056 23.0358 11.8082 23.0619C11.9637 23.0786 12.1254 23.0682 12.2767 23.0682L12.2736 23.0702Z" fill="#FA8B02" stroke="#FA8B02" stroke-width="0.2"/>
</g>
<defs>
<clipPath id="clip0_201_1928">
<rect width="24" height="24" fill="white"/>
</clipPath>
</defs>
</svg>
