<svg width="24" height="24" viewBox="0 0 24 24" fill="none" xmlns="http://www.w3.org/2000/svg">
<g opacity="0.8" clip-path="url(#clip0_201_1985)">
<path d="M21.6523 3.60767C21.8259 3.59283 21.9805 3.61201 22.1045 3.69067C22.2745 3.79867 22.3573 3.99873 22.3848 4.27661C22.4187 4.61766 22.472 4.95719 22.5254 5.30005C22.5787 5.64203 22.6325 5.98747 22.666 6.33521L22.6836 6.46411C22.705 6.57786 22.738 6.64925 22.7842 6.69556C22.843 6.75455 22.9442 6.79209 23.1455 6.78833C23.3503 6.78442 23.5137 6.7845 23.6406 6.80103C23.7678 6.81759 23.8751 6.85339 23.9531 6.93384C24.0305 7.01365 24.0636 7.12237 24.0801 7.24927C24.0966 7.37642 24.0984 7.53967 24.0986 7.74243C24.0986 8.92315 24.0908 10.1021 24.0986 11.2815L24.0947 11.4397C24.0844 11.5939 24.0536 11.7345 23.9756 11.8489C23.8673 12.0076 23.684 12.0942 23.4121 12.1262H23.4111C23.0581 12.1649 22.7318 12.333 22.4951 12.5979C22.2585 12.8629 22.1276 13.2065 22.1289 13.5618V13.5647C22.1179 13.9279 22.2435 14.2824 22.4805 14.5579C22.6879 14.799 22.9679 14.9639 23.2764 15.0305L23.4102 15.053L23.4131 15.054C23.6588 15.0914 23.8329 15.1741 23.9395 15.3235C24.0431 15.469 24.0683 15.6586 24.0654 15.8733C24.0486 17.1086 24.0419 18.3432 24.0654 19.5774C24.0706 19.855 24.0226 20.0713 23.876 20.2131C23.7307 20.3536 23.5123 20.3978 23.2393 20.3967C19.4823 20.3799 15.7182 20.386 11.9551 20.386H0.831055C0.639898 20.386 0.485096 20.3833 0.363281 20.3645C0.240858 20.3456 0.137279 20.3086 0.0605469 20.2307C-0.0159502 20.153 -0.0518259 20.0484 -0.0703125 19.925C-0.0887429 19.8019 -0.0917969 19.645 -0.0917969 19.4514C-0.0917956 18.2525 -0.0806723 17.0555 -0.0986328 15.8577C-0.10214 15.6309 -0.0656599 15.4429 0.0498047 15.303C0.165994 15.1625 0.345946 15.0896 0.581055 15.0549L0.584961 15.054C0.946041 15.0142 1.27958 14.8412 1.51855 14.5676C1.75761 14.2939 1.88429 13.9397 1.875 13.5764V13.5735C1.87858 13.2182 1.75102 12.8737 1.5166 12.6067C1.2823 12.3399 0.957981 12.1687 0.605469 12.1262H0.603516C0.359295 12.0921 0.180019 12.0163 0.0673828 11.8733C-0.0434839 11.7323 -0.0745355 11.5454 -0.0722656 11.3274C-0.059908 10.0737 -0.0527493 8.81914 -0.0751953 7.56665C-0.0798926 7.31332 -0.0267747 7.11826 0.106445 6.97876C0.237472 6.84159 0.42998 6.77569 0.662109 6.74146L9.85352 5.38599C12.9168 4.93208 15.9802 4.47622 19.043 4.01782C19.8534 3.89626 20.6662 3.78427 21.4727 3.63306L21.6523 3.60767ZM22.7979 7.69067C21.4869 7.70978 20.1752 7.69751 18.8643 7.69751C18.6736 7.69751 18.5384 7.69801 18.4385 7.70923C18.3385 7.72048 18.2938 7.7414 18.2686 7.76587C18.2432 7.79058 18.2203 7.83564 18.2051 7.93677C18.1899 8.03771 18.1848 8.17483 18.1777 8.36841C18.1733 8.49722 18.1639 8.6481 18.1055 8.7688C18.0749 8.83186 18.0303 8.88905 17.9648 8.93091C17.8997 8.97255 17.8204 8.99565 17.7275 9.00024C17.6344 9.00485 17.5525 8.9892 17.4834 8.95337C17.4139 8.9173 17.3635 8.86374 17.3281 8.802C17.26 8.6829 17.2457 8.53007 17.2451 8.39575L17.2412 8.22974C17.2398 8.16992 17.2392 8.10728 17.2451 8.0481L17.249 7.9436C17.2448 7.85367 17.2184 7.80572 17.1865 7.77759C17.1378 7.73483 17.0469 7.70926 16.8857 7.70923C14.274 7.7126 11.6623 7.71411 9.05078 7.71411L1.2168 7.70923C1.05185 7.70924 0.970112 7.73502 0.926758 7.77563C0.885811 7.81416 0.855172 7.88963 0.858398 8.05688C0.876394 9.01208 0.874142 9.96934 0.858398 10.9241C0.858608 11.0592 0.884417 11.1362 0.926758 11.1897C0.971185 11.2457 1.04599 11.2911 1.17676 11.3381H1.17578C2.20976 11.7027 2.8043 12.5585 2.80664 13.6057C2.80884 14.6546 2.22297 15.4768 1.16797 15.8577C1.03273 15.9065 0.961889 15.9547 0.921875 16.01C0.882756 16.0641 0.86165 16.1414 0.864258 16.2776V16.2786C0.878841 17.1758 0.901587 18.0789 0.856445 18.9817C0.843907 19.2362 0.889056 19.3474 0.956055 19.4036C1.02998 19.4654 1.16151 19.4902 1.39844 19.4885C3.9471 19.4661 6.49376 19.4768 9.03906 19.4768H16.792C16.9721 19.4768 17.0814 19.4624 17.1465 19.4172C17.1991 19.3806 17.2456 19.3044 17.2383 19.1018C17.2353 19.0288 17.225 18.9503 17.2168 18.8547C17.2091 18.7646 17.2041 18.6645 17.2178 18.5715C17.2316 18.478 17.2656 18.3808 17.3438 18.3079C17.4229 18.2342 17.5338 18.1975 17.6738 18.1956L17.7803 18.2004C17.8806 18.2121 17.9631 18.2441 18.0273 18.2981C18.1131 18.3703 18.1516 18.4698 18.168 18.5667C18.184 18.6623 18.1803 18.766 18.1738 18.8596C18.167 18.9583 18.1575 19.0424 18.1572 19.1184C18.1567 19.2775 18.1789 19.3594 18.2178 19.4045C18.2529 19.4452 18.3234 19.4799 18.4932 19.4778C19.9354 19.4609 21.3776 19.4633 22.8193 19.4768C22.9796 19.4768 23.0642 19.4545 23.1113 19.4143C23.1536 19.3782 23.1887 19.3072 23.1855 19.1389C23.1675 18.1839 23.1709 17.227 23.1855 16.2727L23.1816 16.1819C23.1734 16.1003 23.1524 16.0467 23.1221 16.0061C23.0808 15.9508 23.0098 15.9034 22.876 15.8557H22.875C22.3537 15.6686 21.9506 15.3766 21.6768 14.9915C21.4371 14.6541 21.2996 14.2498 21.2656 13.7922L21.2578 13.593C21.2484 12.5647 21.8468 11.7034 22.8799 11.3254C23.0231 11.2724 23.1022 11.2163 23.1475 11.1516C23.1922 11.0876 23.215 10.9996 23.2129 10.8586C23.1983 9.94028 23.1926 9.02222 23.2129 8.10376V8.10278C23.2178 7.91329 23.185 7.82053 23.1348 7.77075C23.084 7.7204 22.9888 7.68794 22.7979 7.69067ZM21.4531 4.65063C21.4059 4.6176 21.3222 4.60285 21.1572 4.63013C20.0492 4.8146 18.9373 4.96765 17.8271 5.12817H17.8262C17.5958 5.1608 17.4304 5.18412 17.3086 5.21411C17.1867 5.24417 17.1268 5.27664 17.0928 5.31567C17.0595 5.35382 17.0374 5.41398 17.0293 5.53247C17.0212 5.6516 17.0283 5.81119 17.0391 6.0354C17.0449 6.15659 17.0363 6.28487 16.9805 6.39087C16.9206 6.5043 16.8144 6.57852 16.6602 6.60181C16.5054 6.62508 16.3801 6.5844 16.29 6.49146C16.2054 6.40402 16.1619 6.28116 16.1396 6.15942V6.15845C16.1083 6.0443 16.0891 5.92712 16.084 5.80884V5.80103C16.0915 5.59172 16.0458 5.50822 15.9912 5.47095C15.9274 5.42758 15.811 5.41554 15.6074 5.44751C13.4655 5.78464 11.3189 6.09712 9.17578 6.41724C8.2794 6.55136 7.38362 6.68216 6.48926 6.81274H16.9004C18.4137 6.81274 19.9343 6.79905 21.4453 6.82153L21.5801 6.81665C21.6931 6.80525 21.7461 6.77555 21.7715 6.74341C21.7977 6.70989 21.812 6.65122 21.8018 6.54321L21.7832 6.41724C21.6837 5.91949 21.6108 5.41559 21.5566 4.91235C21.5378 4.75086 21.4981 4.68225 21.4531 4.65063Z" fill="#FA8B02" stroke="#FA8B02" stroke-width="0.2"/>
<path d="M13.793 14.7148C13.7929 14.8302 13.7693 14.9256 13.7197 15.001C13.6694 15.0774 13.5986 15.1239 13.5234 15.1514C13.4501 15.1781 13.37 15.1885 13.2949 15.1924C13.2206 15.1962 13.1409 15.1941 13.0742 15.1943H4.88086C4.81362 15.1943 4.73524 15.196 4.66016 15.1914C4.58467 15.1868 4.50398 15.1756 4.43066 15.1475C4.35592 15.1188 4.28619 15.0713 4.2373 14.9941C4.18891 14.9175 4.16706 14.8206 4.16992 14.7051C4.17256 14.5993 4.19781 14.5112 4.24707 14.4414C4.29668 14.3712 4.36441 14.3286 4.43555 14.3027C4.56976 14.254 4.73715 14.2598 4.86035 14.2598H13.1104C13.2348 14.2598 13.4017 14.2549 13.5352 14.3057C13.6058 14.3326 13.6726 14.377 13.7207 14.4482C13.7685 14.519 13.792 14.6078 13.793 14.7139V14.7148Z" fill="#FA8B02" stroke="#FA8B02" stroke-width="0.2"/>
<path d="M13.083 16.4963C13.1489 16.4963 13.229 16.4941 13.3037 16.4973C13.3793 16.5006 13.4601 16.5104 13.5342 16.5364C13.6098 16.563 13.682 16.608 13.7324 16.6848C13.7822 16.7607 13.8036 16.8571 13.8008 16.9729C13.7979 17.0892 13.7706 17.1851 13.7168 17.259C13.6627 17.3333 13.5892 17.3763 13.5127 17.4006C13.4377 17.4245 13.3566 17.4318 13.2812 17.4338C13.2084 17.4358 13.1265 17.4329 13.0635 17.4329H4.75C4.62568 17.4288 4.4858 17.4122 4.37402 17.3479C4.25282 17.2782 4.17543 17.1586 4.16992 16.9817C4.16702 16.8872 4.18262 16.8051 4.21777 16.7356C4.25328 16.6655 4.30563 16.6142 4.36719 16.5784C4.48569 16.5095 4.63829 16.4963 4.77344 16.4963H13.083Z" fill="#FA8B02" stroke="#FA8B02" stroke-width="0.2"/>
<path d="M13.1143 12.0225C13.24 12.0225 13.4062 12.0185 13.5391 12.0703C13.6092 12.0977 13.6747 12.1423 13.7227 12.2129C13.7703 12.2831 13.7953 12.3713 13.7979 12.4766C13.8004 12.582 13.7789 12.6712 13.7334 12.7432C13.6875 12.8155 13.6226 12.8619 13.5527 12.8906C13.4865 12.9178 13.4117 12.931 13.3379 12.9375L13.1279 12.9434C11.7257 12.94 10.324 12.9385 8.92188 12.9385H4.88477C4.82096 12.9385 4.74171 12.9405 4.66797 12.9375C4.59288 12.9344 4.51158 12.9256 4.4375 12.8994C4.3617 12.8726 4.28997 12.8263 4.24023 12.748C4.19117 12.6708 4.17005 12.5727 4.1748 12.4551C4.17911 12.35 4.20662 12.2627 4.25781 12.1943C4.30911 12.126 4.37798 12.0848 4.44922 12.0605C4.58398 12.0146 4.75187 12.0225 4.87207 12.0225H13.1143Z" fill="#FA8B02" stroke="#FA8B02" stroke-width="0.2"/>
<path d="M8.79297 9.76538C8.91587 9.76538 9.06953 9.76681 9.19238 9.82202C9.25699 9.85114 9.31604 9.89595 9.3584 9.96362C9.40034 10.0307 9.42182 10.1129 9.42383 10.2097C9.42577 10.3064 9.40774 10.3899 9.36914 10.4587C9.3301 10.5283 9.27349 10.5762 9.20996 10.6082C9.08868 10.669 8.93495 10.6755 8.80859 10.6755H4.77734C4.6534 10.6755 4.49739 10.671 4.37598 10.6101C4.31189 10.5779 4.25513 10.5289 4.21777 10.4568C4.18095 10.3856 4.16679 10.2999 4.17383 10.2009L4.18262 10.1335C4.19423 10.0688 4.21627 10.0121 4.24902 9.96362C4.29292 9.89873 4.35157 9.85474 4.41602 9.82593C4.53891 9.77099 4.6892 9.76854 4.81641 9.77124L6.83203 9.76538H8.79297Z" fill="#FA8B02" stroke="#FA8B02" stroke-width="0.2"/>
<path d="M17.7305 9.93799C17.8822 9.94694 17.9962 10.0112 18.0693 10.1157C18.1389 10.2153 18.1643 10.3416 18.168 10.4663V10.4702C18.1668 10.8301 18.165 11.1848 18.165 11.5396V12.6069C18.1614 12.7434 18.1309 12.8805 18.0498 12.9839C17.9646 13.0925 17.8347 13.15 17.667 13.144H17.666C17.5086 13.1371 17.3937 13.0702 17.3223 12.9624C17.2716 12.8859 17.2474 12.7948 17.2383 12.7026L17.2334 12.6108C17.2289 11.9007 17.2289 11.1892 17.2334 10.4761L17.2393 10.3745C17.2507 10.2734 17.2812 10.1764 17.3418 10.0981C17.4268 9.98834 17.5582 9.93136 17.7285 9.93799H17.7305Z" fill="#FA8B02" stroke="#FA8B02" stroke-width="0.2"/>
<path d="M17.7236 14.0635C17.8967 14.073 18.0172 14.1486 18.0879 14.2686C18.1537 14.3804 18.1699 14.5199 18.1699 14.6494L18.166 15.6562V16.7217C18.1658 16.8565 18.1378 16.9935 18.0586 17.0986C17.9754 17.2088 17.8463 17.2695 17.6768 17.2695H17.6738C17.5147 17.2653 17.3993 17.2003 17.3271 17.0928C17.2594 16.9915 17.2374 16.8637 17.2344 16.7441V16.7422C17.2276 16.0316 17.2276 15.3212 17.2344 14.6113C17.2345 14.4777 17.2604 14.3376 17.3379 14.2305C17.4203 14.1166 17.5509 14.054 17.7236 14.0635Z" fill="#FA8B02" stroke="#FA8B02" stroke-width="0.2"/>
</g>
<defs>
<clipPath id="clip0_201_1985">
<rect width="24" height="24" fill="white"/>
</clipPath>
</defs>
</svg>
