<svg width="24" height="24" viewBox="0 0 24 24" fill="none" xmlns="http://www.w3.org/2000/svg">
<path d="M6.51465 2.9502C6.74095 2.94773 6.95788 3.02444 7.11426 3.15723C7.27118 3.29055 7.36811 3.48143 7.34766 3.7041C7.3225 3.97108 7.38165 4.17304 7.49023 4.34668C7.60015 4.52241 7.76173 4.67098 7.94434 4.83008L8.19531 5.03516C9.4666 6.00415 10.9343 6.14549 12.499 5.95996C13.4397 5.85163 14.3863 5.68848 15.3447 5.68848C17.0934 5.6885 18.5336 6.36642 19.709 7.63867C19.7623 7.69647 19.8241 7.7627 19.8564 7.83691C19.8732 7.87534 19.8833 7.91717 19.8799 7.96289C19.8765 8.00855 19.8608 8.05507 19.8311 8.10254C19.7717 8.19735 19.6944 8.24579 19.6064 8.25488C19.5219 8.26354 19.4341 8.23513 19.3525 8.19434C18.3688 7.69862 17.3916 7.829 16.4092 8.23438C16.3633 8.25295 16.3169 8.27187 16.2715 8.29199C16.0982 8.36906 15.9316 8.46086 15.7734 8.56543C15.003 9.07267 13.9778 9.78023 12.9414 10.4316C11.9052 11.0829 10.8519 11.6819 10.0244 11.9707C9.22066 12.2517 8.40592 12.3312 7.57812 12.0723C7.52896 12.0568 7.48954 12.0476 7.45898 12.0449C7.42853 12.0422 7.41139 12.0458 7.40137 12.0518C7.39246 12.057 7.38278 12.068 7.375 12.0938C7.36693 12.1206 7.36215 12.1603 7.36328 12.2168C7.37268 12.7393 7.37111 13.2618 7.36328 13.7832C7.36335 13.8666 7.37529 13.9107 7.39844 13.9385C7.42174 13.9663 7.46535 13.9886 7.55664 14.0049C7.98335 14.0807 8.29165 14.2266 8.49219 14.4697C8.69252 14.7126 8.77923 15.0443 8.7793 15.4775L8.79004 16.7305C8.79258 17.1487 8.79011 17.5672 8.77051 17.9844C8.73014 18.8424 8.85376 19.6521 9.21973 20.4258C9.26884 20.5308 9.3013 20.6215 9.3125 20.6992C9.32374 20.7775 9.31464 20.8478 9.27539 20.9043C9.23648 20.9602 9.17385 20.9949 9.09668 21.0156C9.01954 21.0363 8.92233 21.0449 8.80664 21.0449V21.0439C7.9182 21.0494 7.03331 21.0373 6.14648 21.0498C5.98329 21.0518 5.84394 21.0213 5.75293 20.9385C5.6589 20.8528 5.6286 20.7229 5.65723 20.5566C5.73189 20.1251 5.67656 19.7611 5.52051 19.4453C5.40316 19.2079 5.22757 18.9955 5.00391 18.8008L4.76465 18.6113C4.27988 18.2622 4.07561 17.77 4.12695 17.1689C4.13964 17.0182 4.13926 16.8659 4.13672 16.7119C4.13419 16.5587 4.12927 16.4024 4.13281 16.2471V16.2461C4.14516 15.9103 4.28178 15.5909 4.5166 15.3506C4.75148 15.1103 5.0679 14.9663 5.40332 14.9463L5.49316 14.9346C5.57067 14.9192 5.61244 14.8926 5.6377 14.8584C5.67382 14.8095 5.68651 14.7317 5.68652 14.5996C5.68105 11.9392 5.68164 9.27854 5.68164 6.61816V6.26465C5.68008 5.42205 5.67409 3.94664 5.6875 3.70996C5.71264 3.25392 6.0608 2.95519 6.51465 2.9502ZM6.44922 20.0674C6.40479 20.0674 6.36172 20.085 6.33008 20.1162C6.29865 20.1473 6.28003 20.1892 6.2793 20.2334V20.2344C6.27747 20.311 6.29227 20.353 6.31445 20.377C6.33621 20.4003 6.37605 20.4179 6.4541 20.418H7.39355C7.6832 20.418 7.96723 20.4263 8.25098 20.4131C8.28374 20.4114 8.32217 20.4174 8.35352 20.4219C8.38756 20.4267 8.4167 20.4302 8.44141 20.4287C8.46544 20.4272 8.47773 20.4214 8.48438 20.4141C8.49137 20.4062 8.50173 20.3863 8.5 20.3389C8.49739 20.2707 8.48334 20.2012 8.4502 20.1504C8.41927 20.1032 8.36874 20.0678 8.27832 20.0674H6.44922ZM7.93848 14.8223C7.7807 14.6753 7.60393 14.5833 7.42578 14.6553C7.39239 14.6688 7.37428 14.6875 7.36328 14.708C7.35163 14.7298 7.34614 14.7575 7.3457 14.792C7.34527 14.8266 7.34973 14.8646 7.35547 14.9043C7.36095 14.9422 7.36721 14.9837 7.36914 15.0205L7.37012 15.1582C7.36106 15.2866 7.32275 15.3871 7.24707 15.457C7.14732 15.5492 6.99577 15.5766 6.80859 15.5674C6.38324 15.5503 5.95388 15.5619 5.52344 15.5674C5.25309 15.5705 5.06824 15.6333 4.94922 15.7539C4.83004 15.8747 4.76792 16.0627 4.76367 16.3369C4.75906 16.6442 4.77602 16.965 4.75879 17.2783C4.73953 17.6141 4.86929 17.856 5.11426 18.0957C5.21221 18.1911 5.31729 18.2806 5.42383 18.3711C5.52991 18.4612 5.63759 18.5526 5.73926 18.6494C5.94304 18.8435 6.12584 19.0635 6.22852 19.3564C6.23814 19.3841 6.25111 19.4013 6.26465 19.4121C6.27848 19.4231 6.29624 19.4302 6.31836 19.4346C6.34091 19.4391 6.3667 19.4407 6.39551 19.4404C6.4098 19.4403 6.42443 19.4399 6.43945 19.4395C6.45413 19.439 6.46935 19.4385 6.48438 19.4385H6.48535C6.95081 19.4439 7.42535 19.4277 7.89453 19.4434C8.01317 19.4487 8.07183 19.4286 8.10254 19.3955C8.13456 19.3609 8.15115 19.2978 8.14844 19.1816C8.13434 18.5433 8.14258 17.9043 8.14258 17.2676V15.3896C8.14334 15.166 8.09976 14.9713 7.93945 14.8223H7.93848ZM6.51953 3.56836C6.44424 3.56708 6.39402 3.59115 6.36133 3.62695C6.32766 3.6639 6.30684 3.72018 6.30469 3.79395C6.29534 4.07903 6.29882 6.53935 6.30273 6.82812V14.5781C6.30273 14.6143 6.29842 14.6526 6.29492 14.6865C6.29128 14.7219 6.28925 14.7543 6.29102 14.7842C6.29277 14.8136 6.29835 14.8389 6.31055 14.8604C6.31652 14.8709 6.32429 14.8815 6.33496 14.8916L6.37598 14.9209L6.37891 14.9219C6.41433 14.9433 6.4547 14.9547 6.49609 14.9551C6.53771 14.9554 6.57932 14.9449 6.61523 14.9238C6.65102 14.9028 6.68016 14.8723 6.7002 14.8359C6.72029 14.7995 6.73089 14.7584 6.72949 14.7168L6.72852 14.7139V3.80078H6.72949C6.72718 3.72452 6.70762 3.66807 6.67578 3.63086C6.6448 3.59477 6.59567 3.56973 6.51953 3.56836ZM7.41113 5.19434C7.37473 5.22909 7.36395 5.2646 7.36133 5.30078C7.35957 5.32513 7.36125 5.35062 7.36426 5.37891C7.3671 5.40563 7.37106 5.43709 7.37109 5.4668C7.36718 7.31916 7.37679 9.17193 7.36035 11.0234C7.35888 11.1659 7.38539 11.256 7.43555 11.3193C7.48635 11.3833 7.56775 11.4278 7.69238 11.4658C8.58914 11.736 9.44391 11.5869 10.2842 11.2168C11.4672 10.691 12.4897 9.91027 13.5625 9.1875C13.7797 9.04087 15.0085 8.29327 15.4971 7.99512C15.5543 7.95007 15.6177 7.91268 15.6846 7.88379C16.4616 7.46848 17.3237 7.24088 18.2031 7.21484C17.5068 6.69455 16.6728 6.38877 15.8027 6.3418H15.8018C14.7291 6.26952 13.6816 6.44631 12.6201 6.58203C10.6937 6.82857 8.89854 6.57158 7.41113 5.19434Z" fill="#333333" stroke="#333333" stroke-width="0.1"/>
</svg>
