<svg width="24" height="24" viewBox="0 0 24 24" fill="none" xmlns="http://www.w3.org/2000/svg">
<path d="M4.39437 9.94011C4.06587 9.90257 3.86956 9.89866 3.68263 9.85486C3.47739 9.80731 3.2961 9.68751 3.17189 9.51734C3.04767 9.34718 2.98882 9.13801 3.00609 8.92804C3.01858 8.71757 3.10793 8.51902 3.25715 8.37008C3.40638 8.22114 3.6051 8.13218 3.81559 8.1201C4.23794 8.10524 4.67593 8.0192 5.067 8.29373C5.25393 8.42513 5.24298 8.21552 5.27348 8.1287C5.42521 7.69618 5.55583 7.25975 5.70756 6.82958C5.98053 6.05293 6.47796 5.6955 7.29216 5.6955C10.4332 5.6955 13.5745 5.6955 16.716 5.6955C17.5122 5.6955 18.0105 6.0498 18.2803 6.80377C18.4367 7.24568 18.5838 7.69149 18.7222 8.13965C18.7785 8.3211 18.8301 8.35786 19.0131 8.25149C19.4472 8.00043 19.9275 8.06926 20.3834 8.1592C20.7604 8.23741 21.0037 8.62848 20.9935 9.01954C20.9902 9.21011 20.9245 9.39436 20.8066 9.54408C20.6887 9.6938 20.5249 9.80077 20.3404 9.8486C20.1449 9.89709 19.9384 9.90335 19.6146 9.94402C19.9994 10.3085 20.3185 10.612 20.6361 10.9107C20.7567 11.0202 20.8517 11.1549 20.9144 11.3052C20.9771 11.4555 21.006 11.6177 20.999 11.7805C20.9896 13.0063 20.9896 14.2317 20.999 15.4565C20.999 15.8217 20.8981 16.133 20.5876 16.3332C20.4139 16.4451 20.3834 16.5835 20.3959 16.7618C20.4882 18.0367 20.1245 18.366 18.8372 18.2956C18.3953 18.2721 17.951 18.2956 17.5075 18.2909C16.8615 18.2846 16.515 17.9452 16.4963 17.3085C16.4728 16.4944 16.4728 16.4944 15.668 16.4944H8.00311C7.5049 16.4944 7.50568 16.4944 7.50333 17.0106C7.50333 17.1537 7.50881 17.2984 7.49707 17.4407C7.45484 17.9241 7.11931 18.2721 6.63673 18.2846C5.9203 18.3034 5.20231 18.3026 4.48588 18.2846C3.98766 18.2729 3.64431 17.91 3.61224 17.4094C3.60325 17.2792 3.60325 17.1486 3.61224 17.0184C3.63414 16.6985 3.61224 16.424 3.29078 16.2159C3.06162 16.0736 3.00061 15.7959 3.00061 15.5198C3.00531 14.2549 3.00531 12.9904 3.00061 11.7265C2.99559 11.583 3.02141 11.4402 3.07633 11.3075C3.13124 11.1749 3.21398 11.0556 3.31894 10.9577C3.64743 10.644 3.97906 10.3327 4.39437 9.94011ZM11.9576 15.8843C14.5892 15.8843 17.2208 15.8843 19.8524 15.8843C20.3389 15.8843 20.3881 15.8335 20.3897 15.3446C20.3897 14.7056 20.3983 14.0674 20.3897 13.4292C20.3811 12.791 20.5805 12.0824 20.3177 11.5372C20.0549 10.9921 19.4488 10.5885 18.9936 10.1231C18.985 10.1137 18.9748 10.1051 18.967 10.095C18.8442 9.93855 18.6846 9.89475 18.4875 9.89553C14.1598 9.89918 9.83434 9.89918 5.51125 9.89553C5.42131 9.89059 5.33139 9.90564 5.24795 9.93958C5.16451 9.97353 5.08963 10.0255 5.02867 10.0918C4.63761 10.4946 4.24655 10.8935 3.84062 11.2799C3.75961 11.3537 3.69609 11.4447 3.65468 11.5462C3.61328 11.6476 3.59504 11.7571 3.60129 11.8665C3.60989 13.0131 3.60129 14.1597 3.60598 15.3079C3.60598 15.8507 3.64352 15.889 4.18006 15.8898C6.77204 15.8898 9.36454 15.8892 11.9576 15.8882V15.8843ZM5.52846 9.25105C5.555 9.26459 5.58275 9.27558 5.61136 9.2839C9.81713 9.28755 14.0224 9.29277 18.2271 9.29955C18.5094 9.29955 18.4375 9.16267 18.3835 9.01016C18.175 8.38028 17.9651 7.75093 17.7539 7.1221C17.542 6.47762 17.2956 6.2993 16.6097 6.29852C14.8368 6.29852 13.0661 6.29852 11.2974 6.29852C9.96782 6.29852 8.6382 6.30399 7.31327 6.29852C6.91752 6.29852 6.54366 6.39159 6.39662 6.76779C6.0736 7.57964 5.81628 8.422 5.52846 9.25105ZM5.53784 16.4944C5.33058 16.4944 5.12253 16.4897 4.91214 16.4944C4.08934 16.5163 4.20822 16.3199 4.19023 17.2475C4.18554 17.5604 4.32476 17.6965 4.63761 17.6902C5.10689 17.6816 5.57225 17.6902 6.03997 17.6902C6.92534 17.6902 6.95349 17.6535 6.90031 16.7673C6.89171 16.5671 6.83305 16.4889 6.62891 16.4889C6.26522 16.5022 5.90153 16.4951 5.53784 16.4944ZM18.45 16.4944C18.2427 16.4944 18.0347 16.4897 17.8243 16.4944C16.9999 16.5155 17.1071 16.3207 17.0907 17.2405C17.0852 17.5807 17.2471 17.7004 17.5685 17.6918C18.0378 17.6785 18.5032 17.6918 18.9701 17.6918C19.8133 17.6918 19.7984 17.6918 19.8062 16.8541C19.8062 16.5468 19.6983 16.4748 19.4206 16.492C19.1007 16.51 18.7746 16.4944 18.45 16.4944ZM4.23012 9.29329C4.33805 9.29329 4.41627 9.29955 4.49292 9.29329C4.61962 9.28078 4.79638 9.35508 4.79873 9.11731C4.79873 8.91865 4.75571 8.75362 4.53124 8.71139C4.44266 8.69404 4.35204 8.68956 4.26219 8.69809C4.01582 8.72625 3.63648 8.58468 3.63648 8.99608C3.63648 9.40748 4.01738 9.25809 4.23012 9.29329ZM19.6764 9.29329C19.825 9.29329 19.9415 9.29876 20.0573 9.29329C20.2489 9.28156 20.3787 9.19161 20.3756 8.98044C20.3756 8.78647 20.2364 8.71217 20.0675 8.702C19.8875 8.69105 19.707 8.69105 19.527 8.702C19.3127 8.71295 19.2001 8.83653 19.1985 9.05239C19.1946 9.50055 19.5489 9.19396 19.6764 9.29329Z" fill="#333333" stroke="#333333" stroke-width="0.2"/>
<path d="M11.9954 11.6968C13.0247 11.6968 14.0532 11.6968 15.0817 11.6968C15.4188 11.6968 15.7121 11.7609 15.8411 12.1144C15.9702 12.468 15.7715 12.7096 15.5283 12.963C14.8924 13.6318 14.1549 13.8844 13.2234 13.8163C12.1479 13.7381 11.0623 13.7882 9.98222 13.8031C9.81377 13.8126 9.64518 13.7867 9.48731 13.7272C9.32944 13.6677 9.18578 13.5757 9.06557 13.4573C8.85987 13.2587 8.62836 13.0874 8.40623 12.9099C8.15047 12.7002 8.02768 12.4406 8.14813 12.1176C8.26388 11.8047 8.51416 11.7023 8.82936 11.7023C9.88732 11.7007 10.9427 11.6989 11.9954 11.6968ZM8.76288 12.3287C9.24154 12.9685 9.66389 13.1891 10.3584 13.1891C11.4245 13.1891 12.4952 13.1281 13.555 13.2094C14.3371 13.2696 14.7602 12.8246 15.2851 12.3248L8.76288 12.3287Z" fill="#333333" stroke="#333333" stroke-width="0.2"/>
<path d="M5.94978 13.7937C5.58609 13.7937 5.22162 13.8039 4.8548 13.7937C4.42463 13.7796 4.19859 13.5653 4.19234 13.1406C4.17982 11.8939 4.08205 11.7179 5.55168 11.6663C6.52386 11.6334 7.03772 12.2216 7.64074 12.7464C7.83002 12.9107 7.83393 13.1703 7.73851 13.4018C7.69486 13.5196 7.61538 13.6206 7.51127 13.6908C7.40716 13.7609 7.28366 13.7966 7.15817 13.7929C6.75537 13.8007 6.35258 13.7929 5.94978 13.7929V13.7937ZM7.17068 13.1907C6.64196 12.4954 6.0366 12.1543 5.21927 12.2983C5.08631 12.3217 4.88608 12.2302 4.83525 12.3921C4.76852 12.6304 4.76987 12.8827 4.83916 13.1203C4.84854 13.1563 4.94865 13.1868 5.00653 13.1875C5.70419 13.1922 6.40263 13.1907 7.17068 13.1907Z" fill="#333333" stroke="#333333" stroke-width="0.2"/>
<path d="M18.0007 13.7944H16.9057C16.5874 13.7944 16.341 13.6685 16.2386 13.3596C16.1361 13.0506 16.2386 12.8003 16.4889 12.5986C16.7704 12.3639 17.0512 12.1363 17.3273 11.9001C17.4855 11.7622 17.6901 11.6893 17.8998 11.696C18.3034 11.696 18.7062 11.6905 19.109 11.696C19.5783 11.7061 19.7871 11.9236 19.7996 12.3999C19.8059 12.6205 19.8051 12.8418 19.7996 13.0624C19.7887 13.5629 19.5806 13.778 19.0887 13.789C18.7289 13.8015 18.3644 13.7952 18.0007 13.7944ZM16.8393 13.193H18.682C19.2029 13.193 19.206 13.193 19.1911 12.6549C19.1872 12.5141 19.2545 12.3342 19.0073 12.3006C18.1423 12.1872 17.3985 12.3655 16.8393 13.193Z" fill="#333333" stroke="#333333" stroke-width="0.2"/>
<path d="M11.9836 14.69C12.8309 14.69 13.678 14.69 14.5247 14.69C14.7445 14.69 14.9752 14.6963 14.9799 14.9856C14.9846 15.275 14.7516 15.2915 14.5333 15.2915C12.8393 15.2915 11.1446 15.2915 9.44951 15.2915C9.22738 15.2915 9.00213 15.2649 9.01308 14.9786C9.02246 14.7182 9.22973 14.6931 9.4409 14.6939C10.2903 14.69 11.135 14.69 11.9836 14.69Z" fill="#333333" stroke="#333333" stroke-width="0.2"/>
<path d="M5.8558 14.69C6.17961 14.69 6.50341 14.69 6.82799 14.69C7.04073 14.69 7.19324 14.7784 7.19012 15.0029C7.19012 15.207 7.03369 15.2891 6.84285 15.2899C6.18169 15.293 5.52053 15.293 4.85937 15.2899C4.66931 15.2899 4.5168 15.2046 4.51758 14.9982C4.51758 14.7737 4.67401 14.6908 4.88362 14.6923C5.20742 14.69 5.53122 14.69 5.8558 14.69Z" fill="#333333" stroke="#333333" stroke-width="0.2"/>
<path d="M18.1617 14.69C18.4855 14.69 18.8093 14.69 19.1339 14.69C19.3318 14.69 19.4695 14.7799 19.4781 14.9786C19.4867 15.1773 19.3451 15.2836 19.1519 15.2852C18.4777 15.2899 17.8035 15.2899 17.1293 15.2852C16.9361 15.2852 16.7938 15.1804 16.8032 14.9778C16.8126 14.7753 16.9518 14.69 17.1504 14.6908C17.4875 14.69 17.8246 14.69 18.1617 14.69Z" fill="#333333" stroke="#333333" stroke-width="0.2"/>
</svg>
