<svg width="24" height="24" viewBox="0 0 24 24" fill="none" xmlns="http://www.w3.org/2000/svg">
<path d="M20.9982 12.7187C20.9982 15.0354 20.9982 17.3522 20.9982 19.6689C20.9982 20.6115 20.5021 20.9814 19.6061 20.7002C18.1882 20.2567 16.772 19.8063 15.3577 19.3492C15.1242 19.269 14.8711 19.2668 14.6363 19.3429C12.8787 19.8802 11.1149 20.4041 9.35964 20.9414C9.12625 21.0195 8.87388 21.0195 8.64049 20.9414C7.02848 20.419 5.41255 19.91 3.79662 19.3979C3.19642 19.2038 3 18.9446 3 18.3084C3 13.6357 3 8.96246 3 4.28872C3 3.40267 3.50708 3.0217 4.35378 3.28563C5.78529 3.73127 7.21394 4.18555 8.63971 4.64848C8.8734 4.72876 9.12662 4.73151 9.36199 4.65633C11.1196 4.11905 12.8834 3.59512 14.6386 3.05862C14.872 2.98046 15.1244 2.98046 15.3577 3.05862C16.9698 3.58019 18.5865 4.08841 20.2016 4.60213C20.8065 4.79458 20.999 5.05537 20.9998 5.68927C20.9988 8.03269 20.9982 10.3758 20.9982 12.7187ZM14.6957 12.9434V7.99472C14.6957 7.19822 14.6957 7.19822 13.9132 7.3294C13.9007 7.3294 13.8882 7.33568 13.8756 7.33804C13.6949 7.37182 13.5626 7.30505 13.5063 7.13067C13.493 7.09359 13.4879 7.05409 13.4912 7.01484C13.4946 6.9756 13.5063 6.93754 13.5256 6.90325C13.5449 6.86896 13.5713 6.83925 13.6031 6.81614C13.6349 6.79303 13.6713 6.77707 13.7097 6.76933C13.9343 6.70155 14.1645 6.65423 14.3976 6.62794C14.6284 6.60516 14.7004 6.50776 14.6973 6.2784C14.6848 5.53217 14.6801 4.78594 14.6973 4.0405C14.7051 3.73415 14.6143 3.69723 14.3405 3.78128C12.7965 4.25651 11.2495 4.72388 9.69847 5.17555C9.39407 5.26353 9.29782 5.39706 9.2986 5.71833C9.3119 9.35678 9.30721 12.9944 9.30721 16.6368C9.30721 16.7028 9.30721 16.768 9.30721 16.8332C9.30095 16.9982 9.33303 17.1152 9.54197 17.0916C9.71647 17.072 9.85498 17.1427 9.88002 17.3359C9.9035 17.5457 9.77673 17.6588 9.58423 17.6753C9.34242 17.6965 9.29782 17.8284 9.30173 18.0444C9.31269 18.6854 9.31895 19.3272 9.30173 19.9681C9.29234 20.2768 9.38859 20.3098 9.66013 20.2266C11.2163 19.7474 12.7762 19.2785 14.3397 18.8197C14.6151 18.7412 14.7051 18.6155 14.7035 18.3296C14.691 16.5292 14.6973 14.7367 14.6973 12.9434H14.6957ZM15.2951 3.68388C15.2951 4.61627 15.2998 5.49054 15.2951 6.36637C15.2951 6.56432 15.3984 6.60909 15.5549 6.62952C15.8144 6.66115 16.0671 6.7349 16.303 6.84788C16.4596 6.92644 16.5378 7.06154 16.4674 7.23671C16.3969 7.41188 16.2569 7.45744 16.0816 7.40324C15.9446 7.36082 15.8069 7.32469 15.6731 7.27206C15.3953 7.16209 15.2858 7.21393 15.2858 7.54777C15.2967 11.1611 15.2967 14.772 15.2858 18.3806C15.2858 18.6163 15.3546 18.7223 15.5855 18.793C16.994 19.2266 18.3924 19.6799 19.7963 20.1213C20.272 20.2713 20.3918 20.1834 20.3918 19.6869C20.3918 15.0299 20.3941 10.3727 20.3988 5.71519C20.3988 5.39392 20.2752 5.24939 19.9802 5.16062C19.0583 4.88177 18.1428 4.57857 17.2241 4.28793C16.5973 4.08841 15.9666 3.89282 15.2951 3.68388ZM3.60333 11.2828V12.0322C3.60333 14.1002 3.60333 16.1687 3.60333 18.2377C3.60333 18.4788 3.59316 18.7027 3.89835 18.7977C5.41594 19.269 6.93144 19.7503 8.44486 20.2415C8.66005 20.3106 8.71327 20.2478 8.71014 20.0326C8.69918 19.3782 8.70544 18.7231 8.71014 18.0688C8.71014 17.8983 8.71014 17.7546 8.52702 17.6399C8.34391 17.5252 8.34469 17.3014 8.53407 17.1867C8.72344 17.072 8.70935 16.9212 8.70935 16.7531C8.70935 13.0486 8.71118 9.34421 8.71483 5.63978C8.71483 5.38763 8.63658 5.27374 8.39712 5.19911C7.01048 4.76944 5.634 4.32485 4.25205 3.89047C3.70428 3.71765 3.60255 3.79463 3.60177 4.37119C3.60229 6.67534 3.60281 8.97922 3.60333 11.2828Z" fill="#333333"/>
<path d="M13.1852 7.55479C13.179 7.72839 12.7157 8.34029 12.5819 8.36229C12.3589 8.39999 12.2321 8.29395 12.2266 8.06772C12.2211 7.86114 12.6312 7.33249 12.8245 7.29479C13.0491 7.25159 13.1664 7.36077 13.1852 7.55479Z" fill="#333333"/>
<path d="M12.306 11.4038C12.306 11.4823 12.306 11.5609 12.306 11.6394C12.306 11.8319 12.2231 11.9827 12.0204 11.9906C11.7942 12 11.7073 11.8413 11.7019 11.6332C11.6977 11.4761 11.6977 11.319 11.7019 11.1619C11.7019 10.971 11.7801 10.8217 11.9867 10.8139C12.2215 10.8045 12.2998 10.96 12.306 11.1681C12.306 11.2467 12.306 11.3252 12.306 11.4038Z" fill="#333333"/>
<path d="M11.6674 13.2396C11.7183 12.9788 11.6017 12.6112 11.9969 12.6237C12.4179 12.641 12.27 13.0165 12.2817 13.2647C12.2828 13.3561 12.2734 13.4473 12.2536 13.5365C12.247 13.6094 12.2125 13.6769 12.1573 13.7248C12.1021 13.7727 12.0306 13.7973 11.9577 13.7933C11.7746 13.7878 11.6791 13.6708 11.6682 13.4886C11.6627 13.3982 11.6674 13.3063 11.6674 13.2396Z" fill="#333333"/>
<path d="M12.3907 9.41718C12.3727 9.56014 12.3555 9.70231 12.3375 9.84528C12.3125 10.0519 12.2232 10.2058 11.9908 10.1775C11.7803 10.1524 11.7263 9.98981 11.7404 9.80129C11.7521 9.64419 11.7662 9.48709 11.7905 9.32999C11.8226 9.13204 11.9086 8.96708 12.1434 9.00007C12.3782 9.03307 12.4158 9.21609 12.3907 9.41718Z" fill="#333333"/>
<path d="M12.0811 14.8772C12.0451 15.0006 11.9927 15.215 11.9167 15.4208C11.9065 15.4556 11.8892 15.4879 11.8659 15.5156C11.8426 15.5434 11.8139 15.566 11.7814 15.582C11.749 15.598 11.7136 15.6071 11.6775 15.6087C11.6414 15.6103 11.6053 15.6044 11.5716 15.5913C11.5366 15.5824 11.5037 15.5668 11.4747 15.5452C11.4458 15.5236 11.4213 15.4965 11.4028 15.4654C11.3842 15.4344 11.372 15.3999 11.3667 15.3641C11.3614 15.3283 11.3633 15.2918 11.3721 15.2566C11.4081 15.0532 11.4644 14.8529 11.5192 14.6526C11.5677 14.4766 11.6914 14.3902 11.8706 14.4287C12.0498 14.4672 12.1085 14.6094 12.0811 14.8772Z" fill="#333333"/>
<path d="M11.3881 16.3988C11.3826 16.6721 10.946 17.1238 10.7441 17.1144C10.7049 17.1162 10.6657 17.1097 10.6291 17.0954C10.5926 17.081 10.5595 17.059 10.5319 17.031C10.5044 17.0029 10.483 16.9693 10.4693 16.9323C10.4556 16.8954 10.4497 16.856 10.4522 16.8167C10.4459 16.6407 10.9327 16.1513 11.1009 16.1568C11.1704 16.1533 11.2386 16.1763 11.2919 16.2212C11.3451 16.2661 11.3795 16.3295 11.3881 16.3988Z" fill="#333333"/>
<path d="M17.78 8.39369C17.7786 8.45283 17.7595 8.51019 17.7252 8.55826C17.6908 8.60634 17.6428 8.64288 17.5875 8.66311C17.5274 8.69057 17.4593 8.69477 17.3963 8.67491C17.3333 8.65505 17.2799 8.61252 17.2463 8.5555C17.1015 8.35598 16.9646 8.15018 16.8276 7.94438C16.7876 7.89185 16.7687 7.82621 16.7745 7.76036C16.7803 7.69451 16.8104 7.63322 16.8589 7.58854C16.8977 7.54389 16.9495 7.5127 17.007 7.49943C17.0645 7.48617 17.1247 7.49152 17.179 7.51471C17.3597 7.57755 17.7901 8.20752 17.78 8.39369Z" fill="#333333"/>
<path d="M17.6903 10.1674C17.6752 10.0773 17.6671 9.98621 17.666 9.89486C17.6746 9.73383 17.7568 9.61522 17.9235 9.59872C17.9627 9.59227 18.0027 9.59415 18.0411 9.60424C18.0795 9.61433 18.1154 9.6324 18.1463 9.65728C18.1773 9.68216 18.2028 9.7133 18.221 9.74868C18.2392 9.78406 18.2499 9.82289 18.2522 9.86265C18.2811 10.0566 18.296 10.2525 18.2968 10.4486C18.2968 10.6434 18.2013 10.7895 17.9971 10.7872C17.7928 10.7848 17.7083 10.6372 17.7044 10.4424C17.7044 10.3505 17.7044 10.2593 17.7044 10.1674H17.6903Z" fill="#333333"/>
<path d="M18.3129 11.9945C18.3104 12.1103 18.3021 12.2259 18.2878 12.3409C18.2841 12.3768 18.2734 12.4115 18.2562 12.4432C18.239 12.4749 18.2157 12.5028 18.1877 12.5254C18.1597 12.548 18.1274 12.5648 18.0929 12.5747C18.0584 12.5847 18.0222 12.5877 17.9865 12.5836C17.9506 12.5844 17.915 12.578 17.8816 12.5648C17.8483 12.5515 17.8179 12.5316 17.7924 12.5064C17.7668 12.4811 17.7466 12.4509 17.7329 12.4176C17.7192 12.3843 17.7123 12.3486 17.7126 12.3126C17.7024 12.1319 17.7079 11.9505 17.7056 11.7698C17.7056 11.5774 17.7744 11.4273 17.9779 11.414C18.2049 11.3998 18.291 11.5538 18.3035 11.7612C18.3074 11.8397 18.3035 11.9183 18.3035 11.9968L18.3129 11.9945Z" fill="#333333"/>
<path d="M17.7061 13.6362C17.6928 13.4202 17.7421 13.216 17.9894 13.2105C18.2625 13.2042 18.3025 13.4249 18.3025 13.6503C18.3025 13.8758 18.2594 14.1012 17.9894 14.0949C17.7194 14.0887 17.6936 13.8585 17.7061 13.6362Z" fill="#333333"/>
<path d="M5.89543 15.3368C5.88616 15.2654 5.9044 15.1931 5.94644 15.1347C5.98847 15.0763 6.05112 15.0362 6.1216 15.0226C6.18433 15.0012 6.25292 15.005 6.31291 15.0333C6.3729 15.0615 6.41963 15.1121 6.44325 15.1742C6.53613 15.4021 6.61454 15.6356 6.67803 15.8733C6.71872 16.0304 6.62481 16.1506 6.47611 16.2056C6.32742 16.2606 6.22803 16.1844 6.14351 16.0736C6.07699 15.9912 5.90012 15.4468 5.89543 15.3368Z" fill="#333333"/>
<path d="M6.28689 12.0236C6.29322 12.1282 6.29322 12.2331 6.28689 12.3378C6.28099 12.4048 6.25019 12.4671 6.2006 12.5124C6.15101 12.5577 6.08626 12.5825 6.01924 12.5821C5.9835 12.5878 5.94697 12.5862 5.91187 12.5773C5.87677 12.5685 5.84383 12.5525 5.81506 12.5305C5.78629 12.5085 5.76229 12.4808 5.74452 12.4491C5.72674 12.4175 5.71557 12.3825 5.71167 12.3464C5.69287 12.1512 5.68816 11.9548 5.69759 11.7589C5.70307 11.5688 5.78446 11.4164 5.99498 11.4164C6.22976 11.4164 6.29941 11.5798 6.29471 11.7903C6.29471 11.8688 6.29471 11.9474 6.29471 12.0259L6.28689 12.0236Z" fill="#333333"/>
<path d="M6.30629 13.8546C6.30629 13.9457 6.31255 14.0368 6.30629 14.1272C6.30653 14.1635 6.29942 14.1995 6.28537 14.2329C6.27133 14.2664 6.25065 14.2967 6.22459 14.3219C6.19853 14.3471 6.16763 14.3667 6.13378 14.3795C6.09993 14.3924 6.06383 14.3982 6.02768 14.3966C5.99185 14.3994 5.95583 14.3949 5.92176 14.3834C5.88768 14.372 5.85625 14.3538 5.82932 14.3299C5.80238 14.306 5.7805 14.2769 5.76497 14.2444C5.74944 14.2119 5.74058 14.1765 5.7389 14.1405C5.71777 13.9598 5.70838 13.7768 5.70212 13.5907C5.69508 13.3856 5.76786 13.2121 5.99403 13.2066C6.2202 13.2011 6.29846 13.3692 6.29924 13.5765C6.29924 13.6676 6.29924 13.7595 6.29924 13.8507L6.30629 13.8546Z" fill="#333333"/>
<path d="M7.51432 17.4105C7.25139 17.4208 6.73179 17.0178 6.74118 16.8167C6.73907 16.7804 6.74423 16.744 6.75634 16.7097C6.76845 16.6755 6.78728 16.644 6.81171 16.6171C6.83614 16.5902 6.86568 16.5685 6.89859 16.5533C6.9315 16.5381 6.96711 16.5296 7.00333 16.5284C7.20914 16.5033 7.77021 16.9212 7.77569 17.1003C7.78002 17.1381 7.77658 17.1764 7.7656 17.2128C7.75462 17.2493 7.73632 17.2831 7.71183 17.3121C7.68735 17.3412 7.65719 17.3649 7.62322 17.3819C7.58926 17.3988 7.55219 17.4085 7.51432 17.4105Z" fill="#333333"/>
</svg>
