<svg width="24" height="24" viewBox="0 0 24 24" fill="none" xmlns="http://www.w3.org/2000/svg">
<path d="M2.85693 7.42858H21.1426M5.14265 2.85715H18.8569C19.4631 2.85715 20.0445 3.09796 20.4732 3.52662C20.9018 3.95527 21.1426 4.53665 21.1426 5.14286V18.8571C21.1426 19.4634 20.9018 20.0447 20.4732 20.4734C20.0445 20.902 19.4631 21.1429 18.8569 21.1429H5.14265C4.53644 21.1429 3.95506 20.902 3.5264 20.4734C3.09775 20.0447 2.85693 19.4634 2.85693 18.8571V5.14286C2.85693 4.53665 3.09775 3.95527 3.5264 3.52662C3.95506 3.09796 4.53644 2.85715 5.14265 2.85715V2.85715Z" stroke="#FA8B02" stroke-linecap="round" stroke-linejoin="round"/>
<path d="M11.9998 13.1429C12.631 13.1429 13.1426 12.6312 13.1426 12C13.1426 11.3688 12.631 10.8571 11.9998 10.8571C11.3686 10.8571 10.8569 11.3688 10.8569 12C10.8569 12.6312 11.3686 13.1429 11.9998 13.1429Z" fill="#FA8B02"/>
<path d="M7.4285 13.1429C8.05968 13.1429 8.57136 12.6312 8.57136 12C8.57136 11.3688 8.05968 10.8571 7.4285 10.8571C6.79732 10.8571 6.28564 11.3688 6.28564 12C6.28564 12.6312 6.79732 13.1429 7.4285 13.1429Z" fill="#FA8B02"/>
<path d="M16.5716 13.1429C17.2028 13.1429 17.7144 12.6312 17.7144 12C17.7144 11.3688 17.2028 10.8571 16.5716 10.8571C15.9404 10.8571 15.4287 11.3688 15.4287 12C15.4287 12.6312 15.9404 13.1429 16.5716 13.1429Z" fill="#FA8B02"/>
<path d="M11.9998 17.7143C12.631 17.7143 13.1426 17.2026 13.1426 16.5714C13.1426 15.9403 12.631 15.4286 11.9998 15.4286C11.3686 15.4286 10.8569 15.9403 10.8569 16.5714C10.8569 17.2026 11.3686 17.7143 11.9998 17.7143Z" fill="#FA8B02"/>
<path d="M7.4285 17.7143C8.05968 17.7143 8.57136 17.2026 8.57136 16.5714C8.57136 15.9403 8.05968 15.4286 7.4285 15.4286C6.79732 15.4286 6.28564 15.9403 6.28564 16.5714C6.28564 17.2026 6.79732 17.7143 7.4285 17.7143Z" fill="#FA8B02"/>
<path d="M16.5716 17.7143C17.2028 17.7143 17.7144 17.2026 17.7144 16.5714C17.7144 15.9403 17.2028 15.4286 16.5716 15.4286C15.9404 15.4286 15.4287 15.9403 15.4287 16.5714C15.4287 17.2026 15.9404 17.7143 16.5716 17.7143Z" fill="#FA8B02"/>
</svg>
