<svg width="24" height="24" viewBox="0 0 24 24" fill="none" xmlns="http://www.w3.org/2000/svg">
<g opacity="0.5">
<path d="M2.85742 7.42812H21.1431M5.14314 2.85669H18.8574C19.4636 2.85669 20.045 3.09751 20.4737 3.52616C20.9023 3.95481 21.1431 4.53619 21.1431 5.1424V18.8567C21.1431 19.4629 20.9023 20.0443 20.4737 20.4729C20.045 20.9016 19.4636 21.1424 18.8574 21.1424H5.14314C4.53693 21.1424 3.95555 20.9016 3.52689 20.4729C3.09824 20.0443 2.85742 19.4629 2.85742 18.8567V5.1424C2.85742 4.53619 3.09824 3.95481 3.52689 3.52616C3.95555 3.09751 4.53693 2.85669 5.14314 2.85669V2.85669Z" stroke="#333333" stroke-linecap="round" stroke-linejoin="round"/>
<path d="M12.0003 13.1424C12.6315 13.1424 13.1431 12.6307 13.1431 11.9995C13.1431 11.3684 12.6315 10.8567 12.0003 10.8567C11.3691 10.8567 10.8574 11.3684 10.8574 11.9995C10.8574 12.6307 11.3691 13.1424 12.0003 13.1424Z" fill="#333333"/>
<path d="M7.42899 13.1424C8.06017 13.1424 8.57185 12.6307 8.57185 11.9995C8.57185 11.3684 8.06017 10.8567 7.42899 10.8567C6.79781 10.8567 6.28613 11.3684 6.28613 11.9995C6.28613 12.6307 6.79781 13.1424 7.42899 13.1424Z" fill="#333333"/>
<path d="M16.5716 13.1424C17.2028 13.1424 17.7144 12.6307 17.7144 11.9995C17.7144 11.3684 17.2028 10.8567 16.5716 10.8567C15.9404 10.8567 15.4287 11.3684 15.4287 11.9995C15.4287 12.6307 15.9404 13.1424 16.5716 13.1424Z" fill="#333333"/>
<path d="M12.0003 17.7139C12.6315 17.7139 13.1431 17.2023 13.1431 16.5711C13.1431 15.9399 12.6315 15.4282 12.0003 15.4282C11.3691 15.4282 10.8574 15.9399 10.8574 16.5711C10.8574 17.2023 11.3691 17.7139 12.0003 17.7139Z" fill="#333333"/>
<path d="M7.42899 17.7139C8.06017 17.7139 8.57185 17.2023 8.57185 16.5711C8.57185 15.9399 8.06017 15.4282 7.42899 15.4282C6.79781 15.4282 6.28613 15.9399 6.28613 16.5711C6.28613 17.2023 6.79781 17.7139 7.42899 17.7139Z" fill="#333333"/>
<path d="M16.5716 17.7139C17.2028 17.7139 17.7144 17.2023 17.7144 16.5711C17.7144 15.9399 17.2028 15.4282 16.5716 15.4282C15.9404 15.4282 15.4287 15.9399 15.4287 16.5711C15.4287 17.2023 15.9404 17.7139 16.5716 17.7139Z" fill="#333333"/>
</g>
</svg>
