<svg width="41" height="30" viewBox="0 0 41 30" fill="none" xmlns="http://www.w3.org/2000/svg">
<rect x="1.13672" y="0.5" width="39" height="29" rx="3.5" fill="white" stroke="#B2BCCA"/>
<path d="M20.6367 29L39.6367 23.25V26C39.6367 27.6569 38.2936 29 36.6367 29H20.6367Z" fill="#FD6020"/>
<path fill-rule="evenodd" clip-rule="evenodd" d="M35.2174 11.3886C36.4471 11.3886 37.1235 11.993 37.1235 13.1347C37.185 14.0078 36.6316 14.7466 35.8937 14.8809L37.5539 17.3657H36.2627L34.8484 14.948H34.7255V17.3657H33.6802V11.3886H35.2174ZM34.7255 14.1421H35.0329C35.7093 14.1421 36.0167 13.8063 36.0167 13.2019C36.0167 12.6646 35.7093 12.3288 35.0329 12.3288H34.7255V14.1421ZM30.0525 17.3657H33.0039V16.3584H31.0978V14.7466H32.9424V13.7392H31.0978V12.396H33.0039V11.3886H30.0525V17.3657ZM26.978 15.4181L25.5638 11.3886H24.457L26.732 17.5001H27.2854L29.5605 11.3886H28.4537L26.978 15.4181ZM14.4959 14.4106C14.4959 16.0896 15.7257 17.4999 17.2629 17.4999C17.7548 17.4999 18.1852 17.3656 18.6156 17.1641V15.821C18.3081 16.2239 17.8777 16.4926 17.3858 16.4926C16.402 16.4926 15.6027 15.6867 15.6027 14.6121V14.4778C15.5412 13.4033 16.3405 12.463 17.3243 12.3959C17.8162 12.3959 18.3081 12.6645 18.6156 13.0675V11.7243C18.2467 11.4557 17.7548 11.3885 17.3243 11.3885C15.7257 11.2542 14.4959 12.6645 14.4959 14.4106ZM12.5898 13.672C11.9749 13.4033 11.7905 13.269 11.7905 12.9332C11.852 12.5303 12.1594 12.1945 12.5283 12.2616C12.8358 12.2616 13.1432 12.4631 13.3892 12.7317L13.9426 11.9258C13.5121 11.5229 12.9588 11.2542 12.4054 11.2542C11.5445 11.1871 10.8067 11.9258 10.7452 12.8661V12.9332C10.7452 13.7391 11.0526 14.2092 12.0364 14.545C12.2824 14.6122 12.5283 14.7465 12.7743 14.8808C12.9588 15.0151 13.0817 15.2166 13.0817 15.4852C13.0817 15.9554 12.7128 16.3583 12.3439 16.3583H12.2824C11.7905 16.3583 11.3601 16.0225 11.1756 15.5524L10.4992 16.2911C10.8682 17.0299 11.606 17.4328 12.3439 17.4328C13.3277 17.5 14.127 16.6941 14.1885 15.6196V15.4181C14.127 14.6122 13.8196 14.2092 12.5898 13.672ZM9.02354 17.3657H10.0688V11.3886H9.02354V17.3657ZM4.16602 11.3886H5.70321H6.01065C7.48636 11.4558 8.65463 12.799 8.59315 14.4108C8.59315 15.2838 8.22422 16.0897 7.60934 16.6942C7.05595 17.1643 6.37958 17.4329 5.70321 17.3658H4.16602V11.3886ZM5.51879 16.3584C6.01069 16.4256 6.56408 16.2241 6.93301 15.8883C7.30194 15.4854 7.4864 14.9481 7.4864 14.3437C7.4864 13.8064 7.30194 13.2691 6.93301 12.8662C6.56408 12.5304 6.01069 12.3289 5.51879 12.3961H5.21135V16.3584H5.51879Z" fill="#333333"/>
<path fill-rule="evenodd" clip-rule="evenodd" d="M21.7518 11.25C20.2146 11.25 18.9233 12.5932 18.9233 14.3393C18.9233 16.0183 20.1531 17.4286 21.7518 17.4958C23.3505 17.5629 24.5802 16.1526 24.6417 14.4065C24.5802 12.6603 23.3505 11.25 21.7518 11.25V11.25Z" fill="#FD6020"/>
</svg>
