<svg width="25" height="24" viewBox="0 0 25 24" fill="none" xmlns="http://www.w3.org/2000/svg">
<g clip-path="url(#clip0_201_11503)">
<path d="M10.2468 13.7601C11.6384 15.1718 13.3223 16.2618 15.1801 16.9534L17.6934 14.9534C17.7679 14.9021 17.8563 14.8746 17.9468 14.8746C18.0372 14.8746 18.1256 14.9021 18.2001 14.9534L22.8668 17.9601C23.0439 18.0666 23.1939 18.2128 23.3048 18.3873C23.4158 18.5617 23.4846 18.7595 23.506 18.9652C23.5273 19.1708 23.5005 19.3785 23.4278 19.572C23.355 19.7655 23.2383 19.9394 23.0868 20.0801L20.9001 22.2401C20.5869 22.5495 20.2021 22.7766 19.7798 22.901C19.3575 23.0255 18.911 23.0435 18.4801 22.9534C14.1816 22.0656 10.2195 19.9864 7.04676 16.9534C3.94442 13.8902 1.79761 9.99264 0.866761 5.7334C0.774805 5.30916 0.793997 4.86836 0.922478 4.45372C1.05096 4.03908 1.28437 3.66465 1.60009 3.36674L3.86676 1.18007C4.00703 1.03593 4.17808 0.925387 4.36713 0.856722C4.55617 0.788057 4.75829 0.763049 4.95837 0.78357C5.15844 0.80409 5.35128 0.869608 5.52245 0.975217C5.69362 1.08083 5.83868 1.22379 5.94676 1.3934L9.05343 6.00007C9.10701 6.07241 9.13594 6.16005 9.13594 6.25007C9.13594 6.34009 9.10701 6.42773 9.05343 6.50007L7.00676 8.96007C7.71715 10.7807 8.82392 12.4204 10.2468 13.7601Z" fill="#FA8B02"/>
</g>
<defs>
<clipPath id="clip0_201_11503">
<rect width="24" height="24" fill="white" transform="translate(0.100098)"/>
</clipPath>
</defs>
</svg>
