<svg width="50" height="50" viewBox="0 0 50 50" fill="none" xmlns="http://www.w3.org/2000/svg">
<circle opacity="0.3" cx="25" cy="25" r="25" fill="#FA8B02"/>
<path d="M31.6006 17.6497C32.4359 17.6497 33.2374 17.9818 33.8281 18.5725L33.9355 18.6858C34.4588 19.2636 34.75 20.0168 34.75 20.8V30.3997C34.75 31.1828 34.4586 31.9361 33.9355 32.5139L33.8281 32.6272C33.2374 33.2179 32.4359 33.55 31.6006 33.55H18.4004C17.6173 33.55 16.8639 33.2587 16.2861 32.7356L16.1729 32.6272C15.5822 32.0365 15.25 31.235 15.25 30.3997V20.8C15.25 19.9646 15.5821 19.1632 16.1729 18.5725L16.2861 18.4651C16.864 17.9418 17.6171 17.6497 18.4004 17.6497H31.6006ZM25.3809 27.4465C25.3092 27.4886 25.2314 27.519 25.1504 27.5354L25.0684 27.5471C24.9579 27.557 24.8463 27.5415 24.7422 27.5032L24.7305 27.4993L24.6328 27.4534L24.626 27.4504L24.6191 27.4465L16.75 22.8167V30.3997C16.75 30.8372 16.9241 31.2572 17.2334 31.5667C17.5428 31.8761 17.9628 32.05 18.4004 32.05H31.6006C32.0381 32.05 32.4582 31.876 32.7676 31.5667L32.877 31.4456C33.1174 31.152 33.25 30.7825 33.25 30.3997V22.8157L25.3809 27.4465ZM18.4004 19.1497C18.0174 19.1497 17.6481 19.2831 17.3545 19.5237L17.2334 19.6331C16.924 19.9425 16.75 20.3624 16.75 20.8V21.0764L24.999 25.9299L33.25 21.0735V20.8C33.25 20.4171 33.1175 20.0478 32.877 19.7542L32.7676 19.6331C32.4582 19.3237 32.0381 19.1497 31.6006 19.1497H18.4004Z" fill="#FA8B02" stroke="#FA8B02" stroke-width="0.3"/>
</svg>
