<svg width="50" height="50" viewBox="0 0 50 50" fill="none" xmlns="http://www.w3.org/2000/svg">
<circle opacity="0.3" cx="25" cy="25" r="25" fill="#FA8B02"/>
<path d="M20 30C21.152 29.9985 22.2682 29.5998 23.1604 28.8711C24.0526 28.1424 24.6663 27.1284 24.898 26H27V28H29V26H31V29H33V26H34V24H24.898C24.6663 22.8716 24.0526 21.8576 23.1604 21.1289C22.2682 20.4002 21.152 20.0015 20 20C17.243 20 15 22.243 15 25C15 27.757 17.243 30 20 30ZM20 22C21.654 22 23 23.346 23 25C23 26.654 21.654 28 20 28C18.346 28 17 26.654 17 25C17 23.346 18.346 22 20 22Z" fill="#FA8B02"/>
</svg>
