<svg width="24" height="24" viewBox="0 0 24 24" fill="none" xmlns="http://www.w3.org/2000/svg">
<g opacity="0.4" clip-path="url(#clip0_201_29034)">
<path d="M12.9397 12.0001L17.7997 7.14005C17.9089 7.01252 17.9659 6.84847 17.9595 6.68068C17.953 6.5129 17.8834 6.35374 17.7647 6.23501C17.646 6.11628 17.4868 6.04673 17.319 6.04024C17.1512 6.03376 16.9872 6.09083 16.8597 6.20005L11.9997 11.0601L7.13966 6.19339C7.01212 6.08417 6.84807 6.0271 6.68029 6.03358C6.5125 6.04006 6.35334 6.10961 6.23461 6.22834C6.11589 6.34707 6.04633 6.50623 6.03985 6.67402C6.03337 6.8418 6.09044 7.00585 6.19966 7.13339L11.0597 12.0001L6.19299 16.8601C6.1232 16.9198 6.06652 16.9934 6.02651 17.0761C5.98649 17.1588 5.964 17.2489 5.96046 17.3407C5.95691 17.4325 5.97238 17.5241 6.0059 17.6096C6.03941 17.6952 6.09025 17.7729 6.15522 17.8378C6.22019 17.9028 6.29789 17.9536 6.38344 17.9871C6.46899 18.0207 6.56055 18.0361 6.65236 18.0326C6.74417 18.029 6.83426 18.0066 6.91697 17.9665C6.99968 17.9265 7.07323 17.8698 7.13299 17.8001L11.9997 12.9401L16.8597 17.8001C16.9872 17.9093 17.1512 17.9663 17.319 17.9599C17.4868 17.9534 17.646 17.8838 17.7647 17.7651C17.8834 17.6464 17.953 17.4872 17.9595 17.3194C17.9659 17.1516 17.9089 16.9876 17.7997 16.8601L12.9397 12.0001Z" fill="#333333"/>
</g>
<defs>
<clipPath id="clip0_201_29034">
<rect width="24" height="24" fill="white"/>
</clipPath>
</defs>
</svg>
